<svg width="24" height="24" viewBox="0 0 24 24" fill="none" xmlns="http://www.w3.org/2000/svg">
<path fill-rule="evenodd" clip-rule="evenodd" d="M6.16667 20.3333H21.1667C21.3877 20.3333 21.5996 20.4211 21.7559 20.5774C21.9122 20.7337 22 20.9457 22 21.1667C22 21.3877 21.9122 21.5996 21.7559 21.7559C21.5996 21.9122 21.3877 22 21.1667 22H6.16667C5.062 21.9987 4.00296 21.5593 3.22185 20.7782C2.44073 19.997 2.00132 18.938 2 17.8333V2.83333C2 2.61232 2.0878 2.40036 2.24408 2.24408C2.40036 2.0878 2.61232 2 2.83333 2C3.05435 2 3.26631 2.0878 3.42259 2.24408C3.57887 2.40036 3.66667 2.61232 3.66667 2.83333V17.8333C3.66667 18.4964 3.93006 19.1323 4.3989 19.6011C4.86774 20.0699 5.50363 20.3333 6.16667 20.3333ZM7.58929 18.4226C7.43301 18.5788 7.22105 18.6666 7.00004 18.6666C6.77902 18.6666 6.56706 18.5788 6.41078 18.4226C6.2545 18.2663 6.1667 18.0543 6.1667 17.8333V12C6.1667 11.779 6.2545 11.567 6.41078 11.4107C6.56706 11.2544 6.77902 11.1666 7.00004 11.1666C7.22105 11.1666 7.43301 11.2544 7.58929 11.4107C7.74557 11.567 7.83337 11.779 7.83337 12V17.8333C7.83337 18.0543 7.74557 18.2663 7.58929 18.4226ZM10.3333 10.3333V17.8333C10.3333 18.0543 10.4211 18.2663 10.5774 18.4226C10.7337 18.5789 10.9456 18.6667 11.1666 18.6667C11.3876 18.6667 11.5996 18.5789 11.7559 18.4226C11.9122 18.2663 12 18.0543 12 17.8333V10.3333C12 10.1123 11.9122 9.90036 11.7559 9.74408C11.5996 9.5878 11.3876 9.5 11.1666 9.5C10.9456 9.5 10.7337 9.5878 10.5774 9.74408C10.4211 9.90036 10.3333 10.1123 10.3333 10.3333ZM14.5 17.8333V12.8333C14.5 12.6123 14.5878 12.4004 14.7441 12.2441C14.9004 12.0878 15.1123 12 15.3333 12C15.5543 12 15.7663 12.0878 15.9226 12.2441C16.0789 12.4004 16.1667 12.6123 16.1667 12.8333V17.8333C16.1667 18.0543 16.0789 18.2663 15.9226 18.4226C15.7663 18.5789 15.5543 18.6667 15.3333 18.6667C15.1123 18.6667 14.9004 18.5789 14.7441 18.4226C14.5878 18.2663 14.5 18.0543 14.5 17.8333ZM18.6667 9.49998V17.8333C18.6667 18.0543 18.7545 18.2663 18.9108 18.4226C19.0671 18.5789 19.279 18.6666 19.5 18.6666C19.7211 18.6666 19.933 18.5789 20.0893 18.4226C20.2456 18.2663 20.3334 18.0543 20.3334 17.8333V9.49998C20.3334 9.27897 20.2456 9.06701 20.0893 8.91073C19.933 8.75445 19.7211 8.66665 19.5 8.66665C19.279 8.66665 19.0671 8.75445 18.9108 8.91073C18.7545 9.06701 18.6667 9.27897 18.6667 9.49998ZM7.58914 9.25586C7.43289 9.41215 7.22097 9.49998 6.99997 9.50002C6.83518 9.49999 6.6741 9.4511 6.53709 9.35953C6.40008 9.26795 6.2933 9.13782 6.23024 8.98557C6.16718 8.83332 6.15068 8.66579 6.18282 8.50416C6.21496 8.34254 6.2943 8.19407 6.4108 8.07752L9.39914 5.08919C9.86796 4.62051 10.5037 4.35723 11.1666 4.35723C11.8295 4.35723 12.4653 4.62051 12.9341 5.08919L14.7441 6.89836C14.9004 7.05458 15.1123 7.14235 15.3333 7.14235C15.5543 7.14235 15.7662 7.05458 15.9225 6.89836L20.5775 2.24419C20.7346 2.09239 20.9451 2.0084 21.1636 2.0103C21.3821 2.0122 21.5911 2.09984 21.7457 2.25434C21.9002 2.40885 21.9878 2.61786 21.9897 2.83636C21.9916 3.05485 21.9076 3.26536 21.7558 3.42252L17.1008 8.07752C16.632 8.5462 15.9962 8.80949 15.3333 8.80949C14.6704 8.80949 14.0346 8.5462 13.5658 8.07752L11.7558 6.26752C11.597 6.11621 11.386 6.03181 11.1666 6.03181C10.9473 6.03181 10.7363 6.11621 10.5775 6.26752L7.58914 9.25586Z" fill="currentColor"/>
</svg>
