<svg width="22" height="21" viewBox="0 0 22 21" fill="none" xmlns="http://www.w3.org/2000/svg">
<path fill-rule="evenodd" clip-rule="evenodd" d="M8.81773 13.9869L3.49674 17.3125V13.9869H1.74837C0.782772 13.9869 0 13.2041 0 12.2385V1.74831C0 0.782711 0.782772 -6.10352e-05 1.74837 -6.10352e-05H15.7353C16.7009 -6.10352e-05 17.4837 0.782711 17.4837 1.74831V12.2385C17.4837 13.2041 16.7009 13.9869 15.7353 13.9869H8.81773ZM5.24511 14.158L8.3163 12.2385H15.7353V1.74831H1.74837V12.2385H5.24511V14.158ZM4.37093 7.86761V9.61598H10.4902V7.86761H4.37093ZM4.37093 6.11924V4.37087H12.2386V6.11924H4.37093ZM20.3973 5.82766H18.3575V4.22534H20.3973C21.2824 4.22534 22 4.94272 22 5.82765V15.4415C22 16.3265 21.2824 17.0438 20.3973 17.0438H18.7947V20.0916L13.9171 17.0438H7.86775V15.4415H14.3768L17.192 17.2007V15.4415H20.3973V5.82766Z" fill="currentColor"/>
</svg>
