<svg width="16" height="16" viewBox="0 0 16 16" fill="none" xmlns="http://www.w3.org/2000/svg">
<path fill-rule="evenodd" clip-rule="evenodd" d="M0.666748 7.99935C0.666748 12.0494 3.94999 15.3327 8.00008 15.3327C12.0502 15.3327 15.3334 12.0494 15.3334 7.99935C15.3334 3.94926 12.0502 0.666016 8.00008 0.666016C3.94999 0.666016 0.666748 3.94926 0.666748 7.99935ZM14.0001 7.99935C14.0001 11.3131 11.3138 13.9993 8.00008 13.9993C4.68637 13.9993 2.00008 11.3131 2.00008 7.99935C2.00008 4.68564 4.68637 1.99935 8.00008 1.99935C11.3138 1.99935 14.0001 4.68564 14.0001 7.99935Z" fill="#D32F2F"/>
<path fill-rule="evenodd" clip-rule="evenodd" d="M7.99992 7.33398L10.9999 4.33398L11.6666 5.00065L8.66659 8.00065L11.6666 11.0007L10.9999 11.6673L7.99992 8.66732L4.99992 11.6673L4.33325 11.0007L7.33325 8.00065L4.33325 5.00065L4.99992 4.33398L7.99992 7.33398Z" fill="#D32F2F" stroke="#D32F2F" stroke-width="0.5" stroke-linejoin="round"/>
</svg>
