<svg width="40" height="41" viewBox="0 0 40 41" fill="none" xmlns="http://www.w3.org/2000/svg">
<rect y="0.291016" width="40" height="40" rx="20" fill="#E8E8E8"/>
<path d="M20.4915 20.3809C20.3671 20.7955 20.2219 21.2102 20.0664 21.6042C20.1493 21.7079 20.2219 21.8115 20.2945 21.9359C20.3982 22.1329 20.4915 22.278 20.5848 22.361C20.6677 22.4439 20.8025 22.4854 20.9683 22.4854C21.1239 22.4854 21.2586 22.4232 21.3623 22.3091C21.466 22.1951 21.5282 22.05 21.5282 21.9048C21.5282 21.6249 21.4141 21.3243 21.1964 21.0029C21.0306 20.7644 20.7817 20.5571 20.4915 20.3809Z" fill="#67A22D"/>
<path d="M20.9695 23.9688C20.7829 23.9688 20.6481 24.0206 20.5651 24.1346C20.4822 24.2487 20.4096 24.3834 20.3474 24.5597C20.2127 24.9329 20.0053 25.2128 19.7461 25.4098C19.4766 25.6068 19.1552 25.7001 18.7613 25.7001C18.4088 25.7001 18.0874 25.6171 17.8282 25.4409C17.6416 25.3268 17.4965 25.1506 17.3721 24.9433C16.9988 25.1506 16.6153 25.3061 16.2109 25.4305C16.2939 25.5549 16.3561 25.6897 16.4494 25.8037C16.6464 26.0318 16.8641 26.2184 17.0921 26.3636C17.3306 26.5087 17.5898 26.6124 17.8801 26.6746C18.1703 26.7368 18.4917 26.7782 18.8338 26.7782C19.3004 26.7782 19.7047 26.7057 20.0468 26.5605C20.3993 26.4154 20.6792 26.2184 20.9073 25.98C21.1353 25.7415 21.2909 25.5031 21.4049 25.2543C21.5086 25.0055 21.5604 24.7774 21.5604 24.57C21.5604 24.4042 21.4982 24.259 21.3842 24.1554C21.2701 24.0413 21.1353 23.9895 20.9695 23.9895V23.9688Z" fill="#67A22D"/>
<path d="M27.0548 20.2981C26.5572 20.0182 25.9663 19.873 25.2717 19.873C24.7637 19.873 24.3075 19.956 23.9136 20.1115C23.5092 20.267 23.1775 20.4951 22.8976 20.7957C22.6177 21.0964 22.4103 21.4592 22.2548 21.8843C22.1097 22.3093 22.0371 22.7758 22.0371 23.2942C22.0371 23.8126 22.1097 24.2584 22.2445 24.6938C22.3896 25.1188 22.5969 25.492 22.8665 25.7927C23.1464 26.1037 23.4885 26.3318 23.8928 26.508C24.3075 26.6739 24.774 26.7568 25.2924 26.7568C25.8108 26.7568 26.2773 26.6739 26.692 26.508C27.0963 26.3422 27.4384 26.1037 27.7183 25.8031C27.9982 25.492 28.2056 25.1292 28.3404 24.7041C28.4751 24.2791 28.5477 23.8126 28.5477 23.3046C28.5477 22.61 28.4233 21.9983 28.1641 21.4903C27.9049 20.9823 27.5317 20.578 27.0445 20.2981H27.0548ZM26.9408 24.6316C26.7645 24.9944 26.5365 25.2536 26.2462 25.4298C25.9559 25.6061 25.6449 25.689 25.2924 25.689C25.0229 25.689 24.774 25.6372 24.546 25.5439C24.3179 25.4402 24.1209 25.2951 23.9447 25.0877C23.7684 24.8907 23.6337 24.6316 23.5403 24.3309C23.447 24.0303 23.3952 23.6778 23.3952 23.3046C23.3952 22.9314 23.447 22.5892 23.5403 22.2886C23.6337 21.9879 23.7684 21.7391 23.9343 21.5422C24.1002 21.3452 24.2972 21.2 24.5252 21.0964C24.7533 20.9927 25.0021 20.9409 25.2717 20.9409C25.6553 20.9409 25.987 21.0342 26.2773 21.2208C26.5676 21.4074 26.7956 21.6769 26.9511 22.0294C27.1067 22.3819 27.1896 22.807 27.1896 23.2942C27.1896 23.8229 27.1067 24.2687 26.9304 24.6212L26.9408 24.6316Z" fill="#67A22D"/>
<path d="M31.8645 26.1144C31.7816 26.0522 31.6675 26.0211 31.512 26.0211H30.1954C30.1954 26.0211 30.2472 25.9589 30.2679 25.9278C30.3716 25.8034 30.5479 25.6375 30.8174 25.4198C31.0869 25.2021 31.2839 25.0362 31.398 24.9325C31.5224 24.8288 31.6364 24.6733 31.7504 24.4867C31.8645 24.3001 31.9267 24.0824 31.9267 23.844C31.9267 23.6988 31.8956 23.5537 31.8438 23.4085C31.7919 23.2634 31.709 23.1494 31.6053 23.0457C31.5016 22.942 31.3876 22.8591 31.2528 22.7969C31.0558 22.7036 30.807 22.6621 30.5271 22.6621C30.2887 22.6621 30.0813 22.6932 29.9051 22.7658C29.7288 22.8384 29.5837 22.9317 29.4697 23.0457C29.3556 23.1597 29.2623 23.2945 29.2105 23.4293C29.1483 23.5744 29.1276 23.7092 29.1276 23.844C29.1276 23.958 29.1587 24.0513 29.2312 24.1239C29.3038 24.1964 29.3867 24.2275 29.4904 24.2275C29.6044 24.2275 29.6977 24.1861 29.7703 24.1135C29.8325 24.0409 29.874 23.9476 29.9258 23.8232C29.9777 23.6677 29.9984 23.6263 30.0088 23.6159C30.1332 23.4189 30.299 23.3256 30.5271 23.3256C30.6308 23.3256 30.7241 23.3463 30.8174 23.3982C30.9003 23.4396 30.9729 23.5122 31.0247 23.5952C31.0766 23.6781 31.0973 23.7714 31.0973 23.8751C31.0973 23.9684 31.0766 24.072 31.0247 24.1757C30.9729 24.2794 30.9003 24.3831 30.807 24.4867C30.7137 24.5904 30.5893 24.6941 30.4442 24.7977C30.3612 24.8599 30.2161 24.974 30.0191 25.1502C29.8222 25.3265 29.6044 25.5442 29.366 25.793C29.3038 25.8552 29.252 25.9485 29.2001 26.0625C29.1483 26.1766 29.1172 26.2699 29.1172 26.3424C29.1172 26.4565 29.1587 26.5602 29.2416 26.6431C29.3245 26.726 29.4489 26.7675 29.5941 26.7675H31.5846C31.7193 26.7675 31.823 26.726 31.8852 26.6638C31.9578 26.5913 31.9889 26.5083 31.9889 26.4047C31.9889 26.2906 31.9474 26.1973 31.8541 26.1247L31.8645 26.1144Z" fill="#67A22D"/>
<path d="M10.3741 23.6055L8.15551 25.8137C8.05184 25.9173 8 26.0625 8 26.2076C8 26.3528 8.0622 26.4979 8.16587 26.6016C8.26955 26.7052 8.41469 26.7674 8.55983 26.7674C8.70497 26.7674 8.85011 26.7156 8.95378 26.6119L11.162 24.3934C11.0168 24.2793 10.8821 24.1549 10.7473 24.0202C10.6125 23.8854 10.4881 23.7402 10.3741 23.6055Z" fill="#67A22D"/>
<path d="M20.0783 21.6043C19.9539 21.4384 19.8295 21.3037 19.6843 21.2C19.4459 21.0341 19.1556 20.9512 18.8031 20.9512C18.2537 20.9512 17.8079 21.1585 17.4761 21.5836C17.1444 22.0086 16.9785 22.5995 16.9785 23.3771C16.9785 23.8954 17.0511 24.3309 17.1962 24.673C17.2377 24.7766 17.2999 24.8596 17.3517 24.9425C17.8079 24.6937 18.2433 24.3931 18.6165 24.0198C19.2075 23.4289 19.6843 22.5581 20.0679 21.6043H20.0783Z" fill="#67A22D"/>
<path d="M15.703 24.2696C15.6408 23.9793 15.6097 23.6683 15.6097 23.3365C15.6097 22.7975 15.6927 22.3206 15.8482 21.8955C16.0037 21.4705 16.2318 21.1076 16.522 20.807C16.8123 20.5063 17.1544 20.2782 17.5484 20.1227C17.9423 19.9672 18.357 19.8843 18.7924 19.8843C19.3315 19.8843 19.8084 19.988 20.2335 20.2057C20.3372 20.2575 20.4097 20.3197 20.503 20.3819C21.1251 18.2877 21.3946 16.0588 21.4775 15.1361C21.4983 14.8873 21.4775 14.6385 21.3842 14.4104C21.3013 14.172 21.1665 13.9646 20.9903 13.7884C20.814 13.6122 20.6067 13.4774 20.3683 13.3944C20.1298 13.3115 19.881 13.2804 19.6426 13.3011C18.0771 13.4566 12.8002 14.1098 10.7579 16.1417C9.78338 17.1163 9.20282 18.4225 9.14061 19.8013C9.07841 21.1802 9.51383 22.5383 10.3847 23.6061L16.5842 17.3858C16.6879 17.2821 16.8331 17.2303 16.9782 17.2303C17.1233 17.2303 17.2685 17.2925 17.3721 17.3962C17.4758 17.4998 17.538 17.645 17.538 17.7901C17.538 17.9353 17.4862 18.0804 17.3825 18.1841L11.1622 24.394C12.23 25.2648 13.5881 25.7106 14.967 25.6381C15.392 25.6173 15.7963 25.5344 16.1903 25.4203C16.1177 25.3063 16.0348 25.213 15.9829 25.099C15.8585 24.8398 15.7652 24.5599 15.703 24.2696Z" fill="#67A22D"/>
</svg>
