<svg width="32" height="32" viewBox="0 0 32 32" fill="none" xmlns="http://www.w3.org/2000/svg">
<path d="M25.3333 1.33334H6.66667C4.89921 1.33545 3.20474 2.03851 1.95496 3.2883C0.705176 4.53808 0.00211714 6.23254 0 8.00001L0 18.6667C0.00211714 20.4341 0.705176 22.1286 1.95496 23.3784C3.20474 24.6282 4.89921 25.3312 6.66667 25.3333H14.6667V28H9.33333C8.97971 28 8.64057 28.1405 8.39052 28.3905C8.14047 28.6406 8 28.9797 8 29.3333C8 29.687 8.14047 30.0261 8.39052 30.2762C8.64057 30.5262 8.97971 30.6667 9.33333 30.6667H22.6667C23.0203 30.6667 23.3594 30.5262 23.6095 30.2762C23.8595 30.0261 24 29.687 24 29.3333C24 28.9797 23.8595 28.6406 23.6095 28.3905C23.3594 28.1405 23.0203 28 22.6667 28H17.3333V25.3333H25.3333C27.1008 25.3312 28.7953 24.6282 30.045 23.3784C31.2948 22.1286 31.9979 20.4341 32 18.6667V8.00001C31.9979 6.23254 31.2948 4.53808 30.045 3.2883C28.7953 2.03851 27.1008 1.33545 25.3333 1.33334V1.33334ZM6.66667 4H25.3333C26.3942 4 27.4116 4.42143 28.1618 5.17158C28.9119 5.92172 29.3333 6.93914 29.3333 8.00001V17.3333H2.66667V8.00001C2.66667 6.93914 3.08809 5.92172 3.83824 5.17158C4.58838 4.42143 5.6058 4 6.66667 4V4ZM25.3333 22.6667H6.66667C5.84232 22.6633 5.03916 22.4052 4.36707 21.9279C3.69497 21.4506 3.18678 20.7772 2.912 20H29.088C28.8132 20.7772 28.305 21.4506 27.6329 21.9279C26.9608 22.4052 26.1577 22.6633 25.3333 22.6667Z" fill="currentColor"/>
</svg>
