<svg width="20" height="18" viewBox="0 0 20 18" fill="none" xmlns="http://www.w3.org/2000/svg">
<path fill-rule="evenodd" clip-rule="evenodd" d="M18.1818 0H1.81818C0.814028 0 0 0.89543 0 2V4C0 5.10457 0.814028 6 1.81818 6H18.1818C19.186 6 20 5.10457 20 4V2C20 0.89543 19.186 0 18.1818 0ZM1.81818 8H18.1818C19.186 8 20 8.89543 20 10V12C20 13.1046 19.186 14 18.1818 14H1.81818C0.814028 14 0 13.1046 0 12V10C0 8.89543 0.814028 8 1.81818 8ZM2 10V12H18V10H2ZM2 2V4H18V2H2ZM12 16H0V18H12V16Z" fill="currentColor"/>
</svg>
