<svg width="180" height="125" viewBox="0 0 180 125" fill="none" xmlns="http://www.w3.org/2000/svg">
<g clip-path="url(#clip0_4329_305894)">
<path d="M119.594 10.5405L58.3779 116.568H180.81L119.594 10.5405Z" fill="#D8D013"/>
<path d="M119.594 25.9002L71.6855 108.888H167.51L119.594 25.9002Z" fill="white"/>
<path d="M114.744 49.9135H124.45L123.797 85.6915H115.398L114.744 49.9135Z" fill="#D8D013"/>
<path d="M123.79 90.1753H115.397V98.5675H123.79V90.1753Z" fill="#D8D013"/>
<path d="M59.9352 119.22H28.7664C28.5072 118.216 28.2588 117.23 28.0104 116.258C27.726 115.138 27.4452 114.047 27.1788 112.985C27.1176 112.748 27.0564 112.51 26.9952 112.265C26.79 111.452 26.5884 110.656 26.3904 109.886C26.2716 109.418 26.1528 108.953 26.0304 108.496C25.908 108.039 25.7928 107.571 25.6704 107.124C25.638 107.006 25.6128 106.887 25.5804 106.764C25.548 106.642 25.5156 106.505 25.4832 106.379C25.4508 106.253 25.404 106.073 25.3644 105.918C25.3212 105.756 25.2816 105.598 25.242 105.44L25.0188 104.554C24.9072 104.129 24.8028 103.708 24.6984 103.301C24.6552 103.125 24.6084 102.941 24.5652 102.772C24.4908 102.486 24.4188 102.209 24.3492 101.94C24.3024 101.757 24.2592 101.58 24.216 101.408C24.0324 100.688 23.856 100.018 23.7048 99.3916C23.658 99.226 23.622 99.064 23.5752 98.9056C23.5104 98.632 23.442 98.3728 23.3808 98.1208C23.3376 97.9624 23.298 97.8076 23.262 97.6564C23.1216 97.12 22.9956 96.6304 22.902 96.1984C22.8696 96.0868 22.8408 95.9752 22.812 95.8672C22.7436 95.5828 22.6752 95.3308 22.6212 95.104C22.596 95.014 22.578 94.9276 22.5528 94.8484C22.5276 94.7692 22.5096 94.6756 22.488 94.6C22.4664 94.5244 22.4628 94.4884 22.4484 94.4416C22.434 94.3948 22.4088 94.2904 22.3944 94.2292C22.3891 94.1972 22.3806 94.1659 22.3692 94.1356C22.3224 93.9484 22.3008 93.8548 22.3008 93.8548H52.6416C52.6416 93.8548 53.6388 97.2964 55.2408 102.855C55.5648 103.985 55.914 105.206 56.292 106.502C57.3612 110.22 58.5996 114.54 59.9352 119.22Z" fill="#37474F"/>
<path d="M33.8668 119.22H33.0892C31.9372 114.444 30.82 109.66 29.7376 104.867C29.4748 103.704 29.2192 102.538 28.9636 101.368C28.9384 101.256 28.9132 101.152 28.8916 101.04C28.8916 100.983 28.9672 100.958 28.9816 101.015L29.014 101.123C29.3668 102.376 29.716 103.631 30.0616 104.889C31.3768 109.653 32.6452 114.43 33.8668 119.22Z" fill="#263238"/>
<path d="M51.6624 93.8764L50.3268 100.58L49.2252 106.077L47.3568 115.437L47.166 116.394L46.8456 117.996L46.6044 119.21H28.7628L28.0104 116.247C27.726 115.127 27.4452 114.036 27.1788 112.974C27.1176 112.737 27.0564 112.499 26.9952 112.254C26.79 111.441 26.5884 110.645 26.3904 109.875C26.2716 109.407 26.1528 108.942 26.0304 108.485C25.908 108.028 25.7928 107.56 25.6704 107.114C25.638 106.995 25.6128 106.876 25.5804 106.754C25.548 106.631 25.5156 106.494 25.4832 106.368C25.4508 106.242 25.404 106.062 25.3644 105.908C25.3212 105.746 25.2816 105.587 25.242 105.429L25.0188 104.543C24.9072 104.118 24.8028 103.697 24.6984 103.29C24.6516 103.11 24.6084 102.93 24.5652 102.761C24.4908 102.476 24.4188 102.198 24.3492 101.93C24.3024 101.746 24.2592 101.57 24.216 101.397C24.0324 100.677 23.856 100.007 23.7048 99.3808C23.658 99.2152 23.622 99.0532 23.5752 98.8948C23.5104 98.6212 23.442 98.362 23.3808 98.11C23.3376 97.9516 23.298 97.7968 23.262 97.6456C23.1216 97.1092 22.9956 96.6196 22.902 96.1876C22.8696 96.076 22.8408 95.9644 22.812 95.8564C22.7436 95.572 22.6752 95.32 22.6212 95.0932C22.596 95.0032 22.578 94.9168 22.5528 94.8376C22.5276 94.7584 22.5096 94.6648 22.488 94.5892C22.4664 94.5136 22.4628 94.4776 22.4484 94.4308C22.434 94.384 22.4088 94.2796 22.3944 94.2184C22.3891 94.1864 22.3806 94.1551 22.3692 94.1248C22.3224 93.9376 22.3008 93.844 22.3008 93.844L51.6624 93.8764Z" fill="#263238"/>
<path d="M51.6691 93.862C51.6691 94.0276 51.5395 95.8348 51.2479 98.596C51.1651 99.4024 51.0679 100.288 50.9527 101.235C50.7763 102.732 50.5531 104.385 50.2795 106.131C49.8151 109.176 49.1995 112.496 48.4183 115.743C48.1375 116.913 47.8279 118.072 47.5003 119.206H8.33594C8.79674 113.237 9.22154 107.837 9.55634 103.582C10.0243 97.5952 10.3267 93.862 10.3267 93.862H45.8515H51.6691Z" fill="#37474F"/>
<path d="M51.5866 97.462C51.5398 98.8624 51.4822 100.263 51.3922 101.656C51.295 103.168 51.1582 104.68 50.9602 106.188C50.9602 106.242 50.9602 106.3 50.9602 106.354C50.773 107.769 50.5642 109.176 50.323 110.584C50.0962 111.894 49.9306 113.309 49.351 114.522C49.1324 114.991 48.8214 115.411 48.4366 115.757C48.0837 116.08 47.6514 116.304 47.1838 116.405C47.1072 116.426 47.0289 116.439 46.9498 116.445H46.8814C46.8955 116.453 46.907 116.466 46.9146 116.48C46.9222 116.495 46.9257 116.511 46.9246 116.528C46.9246 116.999 46.9246 117.478 46.8706 117.942C46.8706 117.964 46.8706 117.982 46.8706 118.004C46.8238 118.41 46.7482 118.814 46.6726 119.217H45.9994C46.0002 119.208 46.0002 119.2 45.9994 119.192C46.1182 118.749 46.2154 118.302 46.327 117.856C46.4386 117.41 46.5934 116.956 46.687 116.495C46.6892 116.486 46.6932 116.478 46.6988 116.47C46.7043 116.463 46.7113 116.457 46.7194 116.452C46.2928 116.472 45.8702 116.361 45.5085 116.134C45.1468 115.907 44.8633 115.574 44.6962 115.181C44.5271 114.581 44.5159 113.947 44.6638 113.342C44.7862 112.539 44.905 111.74 45.0238 110.937C45.2542 109.461 45.5494 108.006 45.8086 106.541L45.9274 105.872C46.453 102.891 47.0074 99.9064 47.6626 96.9544C47.6878 96.8284 47.713 96.706 47.7418 96.5944C47.7706 96.4828 47.893 96.5368 47.8858 96.616C47.8642 96.814 47.8462 97.0156 47.821 97.2136C47.7058 98.3476 47.5726 99.4744 47.4142 100.601C47.2234 101.926 47.0938 103.254 46.9066 104.579C46.8454 105.029 46.7806 105.479 46.7158 105.929C46.4098 108.107 46.093 110.282 45.7222 112.452C45.5494 113.46 44.923 115.264 46.3702 115.577C46.7022 115.65 47.049 115.607 47.353 115.455C47.994 115.069 48.4735 114.464 48.703 113.752C49.0567 112.566 49.3144 111.354 49.4734 110.127C49.7134 108.8 49.9234 107.47 50.1034 106.138C50.341 104.475 50.5858 102.819 50.845 101.159L51.2446 98.6212C51.3094 98.2324 51.3706 97.84 51.4354 97.4476C51.4534 97.354 51.5866 97.3792 51.5866 97.462Z" fill="#263238"/>
<path d="M16.9153 107.873C18.5461 107.856 20.1687 107.638 21.7465 107.225C22.4665 107.038 23.1865 106.804 23.9065 106.57C24.6134 106.374 25.2751 106.041 25.8541 105.591C26.9341 104.644 27.4633 103.154 27.9421 101.829C28.4645 100.334 28.8879 98.807 29.2093 97.2568C29.2093 97.1812 29.3353 97.2064 29.3389 97.2784C29.3778 99.0307 29.1558 100.779 28.6801 102.466C28.2877 103.906 27.7585 105.497 26.5993 106.502C25.3825 107.556 23.7193 107.942 22.1713 108.122C20.421 108.325 18.6517 108.3 16.9081 108.046C16.8967 108.046 16.8856 108.043 16.8753 108.038C16.865 108.033 16.8557 108.026 16.848 108.018C16.8403 108.01 16.8344 108 16.8305 107.989C16.8266 107.979 16.8248 107.967 16.8253 107.956C16.8257 107.945 16.8284 107.934 16.8332 107.923C16.838 107.913 16.8448 107.904 16.8531 107.896C16.8615 107.888 16.8713 107.882 16.8819 107.878C16.8926 107.874 16.9039 107.873 16.9153 107.873Z" fill="#263238"/>
<path d="M14.2108 97.3036C14.1244 99.4948 14.0332 101.688 13.9372 103.884C13.7092 108.996 13.462 114.108 13.1956 119.22H12.4756C12.814 114.094 13.174 108.975 13.5556 103.863C13.6996 101.674 13.8592 99.4876 14.0344 97.3036C14.0344 97.1776 14.218 97.1848 14.2108 97.3036Z" fill="#263238"/>
<path d="M45.6143 48.736C50.9891 55.2448 70.1951 79.21 67.4915 85.8844C64.7519 92.6452 58.3403 97.2928 55.0031 92.584C52.2491 88.6996 41.8811 61.8112 40.3979 54.8668C38.9867 48.2572 40.3151 42.3388 45.6143 48.736Z" fill="#D3766A"/>
<path d="M44.0699 72.1648L64.0391 68.2048C64.0391 68.2048 49.9811 50.7772 44.4011 46.8172C38.1191 42.364 37.2011 46.5508 38.3819 53.776C39.5627 61.0012 44.0699 72.1648 44.0699 72.1648Z" fill="#D8D013"/>
<path d="M64.039 68.194L44.0698 72.154C44.0698 72.154 39.5482 60.994 38.3818 53.7544C37.2154 46.5148 38.119 42.3424 44.401 46.7956C44.7178 47.0224 45.0634 47.2924 45.4342 47.5984L45.8878 47.9836C47.9146 49.744 50.5318 52.4872 53.1454 55.3852L53.2894 55.5436C55.3486 57.8368 57.4042 60.2236 59.1574 62.29L59.8774 63.1648C62.3434 66.0916 64.039 68.194 64.039 68.194Z" fill="#D8D013"/>
<path d="M49.9444 66.2932C49.7153 66.8693 49.571 67.4756 49.516 68.0932C49.8798 67.5973 50.173 67.0533 50.3872 66.4768C50.6161 65.9066 50.7615 65.3065 50.8192 64.6948C50.4542 65.184 50.1597 65.722 49.9444 66.2932ZM42.4924 57.5452C41.9165 57.3146 41.3102 57.1691 40.6924 57.1132C41.1839 57.4808 41.7259 57.7754 42.3016 57.988C42.8777 58.2177 43.4839 58.3632 44.1016 58.42C43.6101 58.0524 43.0681 57.7578 42.4924 57.5452ZM46.3408 48.862C46.2066 48.5672 46.0563 48.28 45.8908 48.0016L45.4336 47.6236C45.5418 48.1187 45.701 48.6013 45.9088 49.0636C46.1479 49.6297 46.4693 50.1575 46.8628 50.6296C46.7746 50.0184 46.5988 49.423 46.3408 48.862ZM60.0604 63.5248C60.0064 63.4096 59.9524 63.2944 59.8948 63.1828L59.1748 62.308C59.2776 62.7935 59.4321 63.2665 59.6356 63.7192C59.8789 64.284 60.2013 64.8113 60.5932 65.2852C60.501 64.6758 60.3216 64.083 60.0604 63.5248ZM53.1484 55.4032C53.0476 55.4752 52.9468 55.5544 52.8496 55.6372C52.9984 55.6196 53.1462 55.5944 53.2924 55.5616L53.1484 55.4032Z" fill="white"/>
<path d="M60.5255 65.206C59.8055 65.2348 53.5703 66.376 52.2203 66.646C50.8703 66.916 45.3335 68.0032 43.9619 68.4064C43.9512 68.4093 43.9418 68.4156 43.9351 68.4244C43.9284 68.4332 43.9248 68.4439 43.9248 68.455C43.9248 68.466 43.9284 68.4768 43.9351 68.4855C43.9418 68.4943 43.9512 68.5007 43.9619 68.5036C45.3803 68.3668 50.9639 67.294 52.3463 67.042C53.7287 66.79 59.8811 65.5228 60.5363 65.2888C60.6083 65.2636 60.5759 65.206 60.5255 65.206Z" fill="#263238"/>
<path d="M55.5789 69.8752L44.0589 72.1612C44.0589 72.1612 39.5373 61.0012 38.3709 53.7652C37.5105 48.4336 37.7769 44.7652 40.4985 44.9848L55.5789 69.8752Z" fill="#263238"/>
<path d="M57.9548 105.065L7.29199 107.744C7.29199 107.744 11.5832 64.576 30.332 46.2196C32.6468 43.9516 38.8028 42.904 41.9492 45.3592C43.6268 46.6696 46.6688 52.5304 48.2816 58.5136C49.8944 64.4968 58.0916 104.864 57.9548 105.065Z" fill="#D8D013"/>
<path d="M36.0378 50.2552C35.8122 50.8262 35.668 51.426 35.6094 52.0372C35.9771 51.5445 36.2717 51.0013 36.4842 50.4244C36.7115 49.8537 36.8569 49.2538 36.9162 48.6424C36.5495 49.1363 36.2538 49.6792 36.0378 50.2552ZM30.2094 73.36C29.9775 73.9354 29.8319 74.542 29.7774 75.16C30.5014 74.1619 30.9508 72.9913 31.0806 71.7652C30.7174 72.2536 30.4242 72.7904 30.2094 73.36ZM26.505 97.8724C26.2765 98.4414 26.131 99.0403 26.073 99.6508C26.797 98.6527 27.2464 97.4821 27.3762 96.256C27.0102 96.7505 26.7169 97.2948 26.505 97.8724ZM50.0094 66.1348L49.9446 66.2932C49.7155 66.8693 49.5712 67.4756 49.5162 68.0932C49.7826 67.7411 50.0073 67.3594 50.1858 66.9556C50.1246 66.664 50.067 66.3976 50.0094 66.1348ZM40.401 95.3344C40.1697 95.9102 40.023 96.5165 39.9654 97.1344C40.3341 96.643 40.63 96.1011 40.8438 95.5252C41.0699 94.9543 41.2141 94.3544 41.2722 93.7432C40.9093 94.2305 40.6161 94.7661 40.401 95.3344ZM19.863 64.4104C19.6349 64.9806 19.4906 65.5808 19.4346 66.1924C19.8 65.6988 20.0933 65.1557 20.3058 64.5796C20.5364 64.0037 20.6819 63.3974 20.7378 62.7796C20.3686 63.2779 20.0739 63.8272 19.863 64.4104ZM42.4926 57.5452C41.9168 57.3146 41.3104 57.1691 40.6926 57.1132C41.1841 57.4807 41.7261 57.7754 42.3018 57.988C42.878 58.2177 43.4842 58.3632 44.1018 58.42C43.6104 58.0524 43.0684 57.7578 42.4926 57.5452ZM47.5578 76.852C46.9885 76.6251 46.3896 76.4808 45.7794 76.4236C46.2701 76.7914 46.8124 77.085 47.3886 77.2948C47.9592 77.5232 48.5591 77.6698 49.1706 77.7304C48.6785 77.3609 48.1352 77.065 47.5578 76.852ZM50.211 99.8236C49.6352 99.593 49.0288 99.4475 48.411 99.3916C49.4082 100.115 50.5772 100.566 51.8022 100.698C51.3155 100.334 50.7799 100.039 50.211 99.8236ZM12.2958 98.5672C11.72 98.3366 11.1136 98.1911 10.4958 98.1352C11.4946 98.8584 12.6647 99.3088 13.8906 99.442C13.403 99.0766 12.866 98.782 12.2958 98.5672ZM25.7958 83.1376C25.2203 82.9054 24.6138 82.7586 23.9958 82.702C24.4884 83.0707 25.0316 83.3666 25.6086 83.5804C26.1852 83.8081 26.7913 83.9523 27.4086 84.0088C26.915 83.6434 26.372 83.3501 25.7958 83.1376ZM30.645 61.2676C30.4017 60.7028 30.0793 60.1755 29.6874 59.7016C29.8806 60.9198 30.3909 62.0657 31.167 63.0244C31.076 62.4173 30.9003 61.8259 30.645 61.2676ZM39.4038 80.7076C39.1606 80.1435 38.8395 79.6164 38.4498 79.1416C38.5387 79.7492 38.7145 80.3408 38.9718 80.8984C39.214 81.463 39.5352 81.9902 39.9258 82.4644C39.8363 81.8558 39.6605 81.263 39.4038 80.704V80.7076ZM18.7794 91.2736C18.5368 90.7095 18.2143 90.1834 17.8218 89.7112C17.9128 90.3183 18.0886 90.9097 18.3438 91.468C18.5856 92.0324 18.9082 92.5587 19.3014 93.0304C19.2124 92.4216 19.0367 91.8288 18.7794 91.27V91.2736ZM22.2066 106.664C21.9648 106.099 21.6436 105.571 21.2526 105.098C21.3392 105.706 21.5151 106.298 21.7746 106.854C21.7962 106.905 21.8214 106.952 21.843 107.002L22.3362 106.977L22.2066 106.664ZM49.0698 88.1668C48.5049 88.4068 47.9775 88.7269 47.5038 89.1172C48.7209 88.9246 49.8664 88.417 50.8266 87.6448C50.2191 87.7239 49.6269 87.8938 49.0698 88.1488V88.1668ZM34.0866 103.784C33.522 104.026 32.9948 104.347 32.5206 104.738C33.128 104.648 33.7195 104.472 34.2774 104.216C34.843 103.974 35.3705 103.651 35.8434 103.258C35.2353 103.346 34.6434 103.523 34.0866 103.784ZM9.60662 107.348C9.39062 107.448 9.17462 107.553 8.96582 107.668L10.1574 107.607C10.5916 107.398 10.9969 107.134 11.3634 106.822C10.7522 106.912 10.157 107.089 9.59582 107.348H9.60662ZM19.0134 74.512C18.4492 74.7549 17.9221 75.0761 17.4474 75.466C18.6655 75.271 19.8119 74.7624 20.7738 73.99C20.1614 74.0778 19.5648 74.2536 19.0026 74.512H19.0134ZM32.7834 89.8048C32.219 90.0487 31.6918 90.3711 31.2174 90.7624C31.8266 90.6752 32.4196 90.4994 32.9778 90.2404C33.5428 89.9975 34.0702 89.675 34.5438 89.2828C33.9317 89.3723 33.3354 89.548 32.7726 89.8048H32.7834ZM38.9034 66.2356C38.3388 66.4777 37.8116 66.799 37.3374 67.1896C38.5555 66.9946 39.7019 66.486 40.6638 65.7136C40.0452 65.7997 39.4425 65.9756 38.8746 66.2356H38.9034ZM25.3494 52.4656C25.2234 52.5232 25.101 52.5808 24.9894 52.6456C24.849 52.8472 24.7086 53.0524 24.5718 53.2576C24.9066 53.1581 25.2348 53.0378 25.5546 52.8976C26.1185 52.6541 26.6456 52.333 27.1206 51.9436C26.5033 52.03 25.9018 52.2059 25.335 52.4656H25.3494Z" fill="white"/>
<path d="M23.51 52.4188C9.272 69.1984 -0.458797 95.716 4.5956 99.6112C10.3304 104.036 31.5164 107.675 39.9332 108.406C42.5432 108.633 42.9392 87.0076 40.1384 87.0724C36.7436 87.1516 24.05 84.574 23.7116 84.5704C22.9916 84.5704 29.9 62.6104 31.898 54.0136C34.6808 42.0292 28.856 46.1188 23.51 52.4188Z" fill="#D3766A"/>
<path d="M67.711 90.4636C68.3158 92.6236 66.3682 93.898 66.3682 93.898C67.1928 94.6521 67.7277 95.6709 67.8802 96.778C68.0566 98.7436 65.0506 99.8812 65.0506 99.8812C65.7428 100.844 66.1292 101.993 66.1594 103.179C66.1378 105.076 63.2794 106.656 63.2794 106.656C63.4276 107.892 63.126 109.139 62.4298 110.17C60.457 112.852 55.3882 112.47 52.1662 112.258C48.9442 112.046 39.1342 108.032 37.3594 107.513L39.3826 87.2236C39.3826 87.2236 54.1066 84.0556 57.8614 84.8404C61.0258 85.51 67.0306 88.0444 67.711 90.4636Z" fill="#D3766A"/>
<path d="M66.3068 93.808C63.1136 92.2996 59.6468 91.8136 56.2268 91.1332C56.1512 91.1332 56.1296 91.2412 56.2052 91.2556C59.6288 91.8892 62.8796 93.196 66.2852 93.97C66.3029 93.9664 66.319 93.9575 66.3313 93.9443C66.3436 93.9312 66.3515 93.9145 66.3539 93.8967C66.3563 93.8788 66.353 93.8607 66.3446 93.8448C66.3361 93.8289 66.3229 93.816 66.3068 93.808Z" fill="#263238"/>
<path d="M65.0004 99.622C64.2383 99.3458 63.443 99.1714 62.6352 99.1036C61.7892 98.9812 60.9432 98.8696 60.0936 98.776C58.3944 98.5816 56.6916 98.4316 54.9852 98.326C54.9096 98.326 54.8844 98.4376 54.9636 98.4448C56.6556 98.6392 58.3476 98.8588 60.0288 99.1252C60.8712 99.2596 61.7112 99.3988 62.5488 99.5428C63.3321 99.731 64.1337 99.8324 64.9392 99.8452C64.9646 99.8435 64.9889 99.834 65.0086 99.8179C65.0284 99.8018 65.0426 99.78 65.0494 99.7554C65.0561 99.7308 65.055 99.7048 65.0462 99.6809C65.0375 99.6569 65.0214 99.6364 65.0004 99.622Z" fill="#263238"/>
<path d="M63.1964 106.664C62.57 106.358 61.7348 106.379 61.0544 106.304C60.2768 106.232 59.5028 106.156 58.7252 106.077C57.1772 105.918 55.6292 105.756 54.0848 105.544C54.0092 105.544 53.984 105.652 54.0632 105.663C55.6292 105.886 57.1916 106.134 58.7612 106.343C59.5316 106.449 60.302 106.548 61.0724 106.642C61.7312 106.725 62.5412 106.901 63.1928 106.732C63.1983 106.728 63.2028 106.723 63.206 106.717C63.2092 106.712 63.2111 106.705 63.2114 106.699C63.2118 106.692 63.2106 106.685 63.208 106.679C63.2054 106.673 63.2014 106.668 63.1964 106.664Z" fill="#263238"/>
<path d="M28.5497 73.378L8.38965 70.444C8.38965 70.444 21.5296 52.3144 26.8972 48.0736C32.938 43.3 34.0576 47.4328 33.2692 54.7084C32.4808 61.984 28.5497 73.378 28.5497 73.378Z" fill="#D8D013"/>
<path d="M25.3348 52.4656C24.7644 52.7051 24.232 53.0265 23.7544 53.4196C24.9725 53.2246 26.1189 52.716 27.0808 51.9436C26.4769 52.0337 25.889 52.2095 25.3348 52.4656ZM30.6448 61.2676C30.4015 60.7028 30.0791 60.1755 29.6872 59.7016C29.8804 60.9198 30.3907 62.0657 31.1668 63.0244C31.0758 62.4173 30.9 61.8259 30.6448 61.2676ZM10.7008 67.33C10.6036 67.4632 10.5064 67.5964 10.4092 67.7224H10.4344C11.0106 67.9524 11.6167 68.0991 12.2344 68.158C11.7643 67.8117 11.2481 67.533 10.7008 67.33ZM19.8628 64.4104C19.6347 64.9806 19.4904 65.5808 19.4344 66.1924C19.7997 65.6988 20.0931 65.1557 20.3056 64.5796C20.5361 64.0037 20.6817 63.3974 20.7376 62.7796C20.3684 63.2778 20.0737 63.8272 19.8628 64.4104Z" fill="white"/>
<path d="M11.7595 67.132C12.4795 67.132 18.7651 67.942 20.1259 68.1508C21.4867 68.3596 27.0739 69.148 28.4671 69.4792C28.4804 69.4792 28.4933 69.4845 28.5027 69.494C28.5122 69.5034 28.5175 69.5162 28.5175 69.5296C28.5175 69.543 28.5122 69.5558 28.5027 69.5652C28.4933 69.5747 28.4804 69.58 28.4671 69.58C27.0451 69.5152 21.4111 68.734 20.0179 68.5504C18.6247 68.3668 12.4147 67.4236 11.7379 67.2256C11.6803 67.2076 11.7091 67.132 11.7595 67.132Z" fill="#263238"/>
<path d="M26.9556 72.9892C27.5676 73.0324 28.5216 73.1368 28.5216 73.1368C29.1228 70.3576 30.0228 67.618 30.7464 64.8568C31.47 62.0956 32.3052 59.2876 33.0756 56.4976C33.078 56.489 33.0837 56.4817 33.0914 56.4773C33.0992 56.4729 33.1084 56.4718 33.117 56.4742C33.1256 56.4766 33.1328 56.4823 33.1372 56.49C33.1416 56.4978 33.1428 56.507 33.1404 56.5156C32.8044 58.1212 32.4612 59.7232 32.1108 61.3216L32.3484 60.7456C32.6292 60.0652 32.928 59.392 33.1872 58.7008C33.1905 58.6884 33.1986 58.6778 33.2098 58.6714C33.2209 58.665 33.2342 58.6632 33.2466 58.6666C33.259 58.6699 33.2696 58.6781 33.276 58.6892C33.2824 58.7003 33.2841 58.7136 33.2808 58.726C33.0843 59.4445 32.8438 60.1502 32.5608 60.8392C32.3556 61.3216 32.118 61.786 31.8768 62.2504C31.668 63.1648 31.4628 64.0828 31.2288 64.9936C30.5088 67.7908 29.9328 70.948 29.004 73.6804C29.004 73.6804 27.5964 73.3528 26.9052 73.1116C26.8931 73.1025 26.8844 73.0896 26.8804 73.075C26.8764 73.0604 26.8773 73.0449 26.8831 73.0309C26.8888 73.0169 26.8991 73.0052 26.9122 72.9977C26.9253 72.9901 26.9406 72.9871 26.9556 72.9892Z" fill="#263238"/>
<path d="M41.8992 54.0208C39.1776 54.946 33.9792 51.1408 31.7616 47.8756C31.614 47.6488 31.7364 45.1216 31.74 42.04C31.74 40.1716 31.6896 38.08 31.506 36.1936C31.4664 35.8048 43.6776 37.9432 43.6776 37.9432C43.6776 37.9432 42.8892 42.0292 43.224 45.334C43.2527 45.5951 43.3057 45.8531 43.3824 46.1044C43.3824 46.1368 43.404 46.18 43.4112 46.2304C43.7928 47.6848 44.5344 53.1244 41.8992 54.0208Z" fill="#D3766A"/>
<path d="M42.1945 46.4104C42.6032 46.3848 43.0091 46.3245 43.4077 46.2304C43.401 46.1866 43.3913 46.1433 43.3789 46.1008C43.3045 45.8491 43.2527 45.5913 43.2241 45.3304C42.8893 42.0292 43.6741 37.9432 43.6741 37.9432C43.6741 37.9432 33.7669 36.2044 31.8301 36.1432C32.3953 38.3032 35.1673 46.9288 42.1945 46.4104Z" fill="#263238"/>
<path d="M28.1401 21.3652C27.1861 25.6852 30.3829 37.7128 33.6013 40.1968C38.2813 43.7968 45.4273 43.606 48.3613 38.1088C51.2089 32.7772 46.7665 17.182 43.2133 14.9752C37.9861 11.728 29.5513 14.9788 28.1401 21.3652Z" fill="#D3766A"/>
<path d="M49.2209 31.3624H49.1921C49.4261 34.39 48.9581 37.4356 46.9781 39.8368C46.4868 40.4572 45.8866 40.983 45.2069 41.3884C45.2017 41.3935 45.1984 41.4002 45.1975 41.4074C45.1966 41.4146 45.1981 41.4219 45.2019 41.4281C45.2056 41.4344 45.2113 41.4391 45.2181 41.4417C45.2249 41.4443 45.2324 41.4445 45.2393 41.4424C45.8551 41.1074 46.427 40.6975 46.9421 40.222C47.45 39.7297 47.8862 39.1687 48.2381 38.5552C49.0311 37.1943 49.467 35.655 49.5053 34.0804C49.5021 33.1671 49.4068 32.2565 49.2209 31.3624Z" fill="#263238"/>
<path d="M40.7109 27.91C40.7109 27.8776 40.6569 27.964 40.6677 27.9964C40.8873 28.7992 41.0277 29.7604 40.3401 30.2068C40.3185 30.2068 40.3401 30.2608 40.3581 30.25C41.2221 29.908 41.0529 28.6336 40.7109 27.91Z" fill="#263238"/>
<path d="M39.7819 27.2368C38.4499 27.4564 38.9863 30.0988 40.2175 29.8936C41.4487 29.6884 40.8943 27.0532 39.7819 27.2368Z" fill="#263238"/>
<path d="M45.4199 26.8876C45.4199 26.8552 45.4919 26.9128 45.4991 26.9452C45.6323 27.7696 45.9239 28.6912 46.7195 28.8172C46.7447 28.8172 46.7483 28.864 46.7195 28.8676C45.7907 28.9036 45.4163 27.6868 45.4199 26.8876Z" fill="#263238"/>
<path d="M45.9845 25.8868C47.2805 25.5268 47.9033 28.1512 46.7045 28.4824C45.5057 28.8136 44.8973 26.1856 45.9845 25.8868Z" fill="#263238"/>
<path d="M40.5235 25.8976C40.215 26.0995 39.8966 26.2857 39.5695 26.4556C39.2606 26.697 38.8814 26.831 38.4895 26.8372C38.3652 26.8145 38.2519 26.7514 38.1673 26.6576C38.0826 26.5639 38.0314 26.4447 38.0215 26.3188C38.0215 25.7788 38.3815 25.4116 38.8351 25.1416C39.263 24.8537 39.7828 24.7356 40.2931 24.8104C40.4081 24.835 40.5134 24.8923 40.5965 24.9755C40.6796 25.0587 40.7367 25.1642 40.7611 25.2792C40.7855 25.3942 40.776 25.5138 40.7338 25.6236C40.6917 25.7333 40.6186 25.8285 40.5235 25.8976Z" fill="#263238"/>
<path d="M46.604 23.4316C46.2347 23.4311 45.8658 23.4107 45.4988 23.3704C45.1065 23.4025 44.7145 23.3051 44.3828 23.0932C44.2948 23.0083 44.2366 22.8971 44.2172 22.7764C44.1977 22.6556 44.2179 22.5318 44.2748 22.4236C44.5592 21.9664 45.0884 21.8728 45.5996 21.8836C46.1153 21.8795 46.6143 22.0667 47 22.4092C47.0769 22.4933 47.1288 22.5972 47.1498 22.7092C47.1708 22.8212 47.1601 22.9369 47.119 23.0432C47.0778 23.1494 47.0078 23.2421 46.9168 23.3107C46.8258 23.3793 46.7175 23.4212 46.604 23.4316Z" fill="#263238"/>
<path d="M41.9058 34.4404C42.8562 33.814 44.2134 33.6664 45.0774 33.5944C45.171 33.562 45.2178 33.3604 45.2142 33.2668C45.2142 33.238 44.8038 31.5532 44.8038 31.5532C45.0522 31.618 46.3194 31.9132 46.2438 31.5748C45.5238 28.9216 44.7174 25.9696 43.4358 23.482C43.4291 23.4629 43.4151 23.4472 43.3969 23.4384C43.3787 23.4297 43.3577 23.4285 43.3386 23.4352C43.3195 23.4419 43.3039 23.4559 43.2951 23.4741C43.2863 23.4923 43.2851 23.5133 43.2918 23.5324C43.8894 26.1136 44.9298 28.5724 45.5706 31.15C45.1181 31.0429 44.6525 31.0017 44.1882 31.0276C44.1054 31.0708 44.721 32.8276 44.7498 33.1048C44.7498 33.1048 42.9966 32.9572 41.8302 34.0948C41.5134 34.3828 41.4522 34.7392 41.9058 34.4404Z" fill="#263238"/>
<path d="M40.2821 36.712C40.5161 36.856 40.7681 37.072 41.0669 37.0396C41.3665 36.969 41.6476 36.8352 41.8913 36.6472C41.8965 36.6432 41.9029 36.6411 41.9095 36.6412C41.916 36.6413 41.9223 36.6437 41.9274 36.6478C41.9324 36.652 41.9358 36.6578 41.9371 36.6643C41.9384 36.6707 41.9375 36.6774 41.9345 36.6832C41.8525 36.8665 41.7226 37.0244 41.5586 37.1404C41.3945 37.2563 41.2023 37.3259 41.0021 37.342C40.8282 37.334 40.6605 37.2747 40.5202 37.1715C40.3799 37.0684 40.2732 36.926 40.2137 36.7624C40.1921 36.7192 40.2497 36.6904 40.2821 36.712Z" fill="#263238"/>
<path d="M43.616 33.184C42.8492 33.3352 40.4156 34.3216 41.0204 35.452C41.2832 35.9488 42.1004 35.6536 42.7268 34.93C43.1283 34.4078 43.4298 33.8158 43.616 33.184Z" fill="#263238"/>
<path d="M42.4136 35.2504C41.8592 35.7292 41.24 35.866 41.0168 35.452C40.9442 35.3135 40.914 35.1566 40.93 35.001C40.946 34.8454 41.0075 34.698 41.1068 34.5772C41.5748 34.498 42.572 34.4188 42.4136 35.2504Z" fill="#FF9ABB"/>
<path d="M46.6906 19.0468C43.0222 23.0716 35.9734 19.9432 35.9734 19.9432C35.8258 20.9851 35.3454 21.9514 34.6039 22.6981C33.8624 23.4448 32.8994 23.9319 31.8586 24.0868C31.8586 24.0868 32.737 31.6936 30.7786 32.1364C27.7978 32.8168 24.5074 22.9384 24.979 20.7352C25.4506 18.532 27.859 17.4304 27.859 17.4304C27.859 17.4304 27.6826 15.85 29.191 14.014C30.8542 11.98 38.3566 12.4264 38.3566 12.4264C38.5358 11.3955 38.9551 10.4212 39.5806 9.58238C39.7295 9.37511 39.9189 9.2002 40.1373 9.06825C40.3558 8.93629 40.5987 8.85004 40.8515 8.8147C41.1042 8.77936 41.3615 8.79567 41.6078 8.86265C41.8541 8.92963 42.0842 9.04589 42.2842 9.20438C42.0397 9.83784 41.9424 10.5186 41.9998 11.1952C42.1582 13.4452 43.9294 13.0276 43.4398 11.0656C43.2875 10.3251 42.8734 9.6643 42.2734 9.20438C42.8458 7.71398 44.1742 6.95798 45.2002 7.44398C47.0758 8.32238 49.7434 15.7024 46.6906 19.0468Z" fill="#263238"/>
<path d="M31.5772 31.3588C31.5772 31.3588 28.1176 27.9928 26.5372 29.2996C24.9568 30.6064 28.0816 35.848 30.2992 36.2224C30.5802 36.2879 30.8715 36.2964 31.1559 36.2474C31.4403 36.1985 31.712 36.093 31.955 35.9373C32.1979 35.7816 32.4072 35.5788 32.5705 35.3409C32.7338 35.1029 32.8477 34.8347 32.9056 34.552L31.5772 31.3588Z" fill="#D3766A"/>
<path d="M27.4702 30.7792C27.4378 30.7792 27.4414 30.8296 27.4702 30.8368C29.0362 31.1464 30.0586 32.3488 30.8578 33.6412C30.325 33.184 29.6806 33.004 29.0578 33.6412C29.0254 33.6736 29.0578 33.7276 29.1118 33.7096C29.3515 33.5794 29.6256 33.5268 29.8965 33.559C30.1673 33.5913 30.4214 33.7068 30.6238 33.8896C30.9605 34.1973 31.2634 34.5401 31.5274 34.912C31.621 35.0308 31.8406 34.912 31.765 34.7752C31.7577 34.7652 31.7516 34.7543 31.747 34.7428C31.4266 32.8996 29.4934 30.5848 27.4702 30.7792Z" fill="#263238"/>
<path d="M30.2532 48.8296C31.8138 51.2861 33.9876 53.2937 36.5604 54.6544C37.8081 55.3465 39.2055 55.7246 40.632 55.756C41.3769 55.7796 42.1113 55.5762 42.738 55.1728C43.3112 54.7097 43.7541 54.1056 44.0232 53.4196C44.3506 52.6466 44.5594 51.8286 44.6424 50.9932C44.7498 50.0528 44.7907 49.1061 44.7648 48.16C44.7648 48.124 44.8188 48.1276 44.8188 48.16C44.844 49.0564 44.9448 49.96 44.9052 50.8456C44.8875 51.6367 44.7665 52.4222 44.5452 53.182C44.3294 53.9067 43.9612 54.5769 43.4652 55.1476C42.9339 55.7137 42.2201 56.0744 41.4492 56.1664C39.9426 56.341 38.4178 56.0733 37.0608 55.396C35.6994 54.7652 34.4447 53.9259 33.342 52.9084C32.0778 51.7413 31.0126 50.3758 30.1884 48.8656C30.1452 48.8152 30.2352 48.7792 30.2532 48.8296Z" fill="#263238"/>
<path d="M55.3912 91.6876C58.066 96.886 65.0464 93.0988 66.5512 89.308C70.1116 80.4052 71.206 61.6852 70.234 53.0704C69.9208 50.2984 52.2088 52.876 51.5428 55.7812C50.8588 58.8232 49.966 81.136 55.3912 91.6876Z" fill="#D3766A"/>
<path d="M70.0829 54.3916C70.0829 54.3916 70.8029 48.7792 71.2241 43.8436C71.4545 41.0896 70.8641 35.4736 70.1045 33.3748C68.9741 30.232 62.2385 17.812 59.1929 19.3816C56.4353 20.8 63.5777 30.736 63.5777 30.736C63.5777 30.736 57.2561 20.0728 54.2501 22.3948C51.2441 24.7168 60.8057 34.8652 60.8057 34.8652C60.8057 34.8652 54.0665 24.0652 51.3449 26.9452C49.2893 29.1232 57.4325 38.8252 57.4325 38.8252C57.4325 38.8252 51.5753 29.5732 49.3613 31.7224C46.9205 34.0984 53.8721 43.5088 53.8721 43.5088C49.1921 49.9168 48.2309 53.9236 51.9677 57.7612C52.5725 58.3552 70.0829 54.3916 70.0829 54.3916Z" fill="#D3766A"/>
<path d="M65.9975 34.282C65.3027 33.004 64.6043 31.7044 63.7979 30.4912C62.9915 29.278 62.1383 28.0936 61.2203 26.9596C58.9667 24.184 57.1235 22.798 57.2279 22.8952C59.7011 25.2136 62.6639 29.512 63.4703 30.7252C64.2767 31.9384 65.1443 33.1048 65.9543 34.3252C65.9759 34.3468 66.0155 34.3036 65.9975 34.282Z" fill="#263238"/>
<path d="M61.6735 37.2808C60.7123 35.686 59.8159 34.0696 58.7935 32.5144C57.7711 30.9592 56.6587 29.5948 55.5283 28.1224C55.4419 28.0108 55.4095 28.0936 55.4923 28.2124C56.5723 29.7244 57.4363 31.2076 58.4875 32.734C59.5387 34.2604 60.6475 35.7472 61.6483 37.306C61.6519 37.3312 61.6879 37.306 61.6735 37.2808Z" fill="#263238"/>
<path d="M58.4227 40.5208C57.0121 37.9871 55.3489 35.6025 53.4583 33.4036C53.3683 33.2956 53.3395 33.4036 53.4259 33.526C55.1215 35.8048 56.4571 37.7488 58.3363 40.5712C58.3651 40.6144 58.4515 40.5748 58.4227 40.5208Z" fill="#263238"/>
<path d="M53.9194 25.3864C53.7337 24.8706 53.6304 24.3287 53.6134 23.7808C53.6276 23.2778 53.8189 22.7959 54.1534 22.42C54.175 22.3948 54.2146 22.42 54.1894 22.456C53.761 22.816 53.7538 23.5144 53.8294 24.022C53.9165 24.5187 54.0478 25.0066 54.2218 25.48C54.4002 25.9732 54.6106 26.4542 54.8518 26.92C55.0796 27.3842 55.332 27.8361 55.6078 28.2736C55.6104 28.2772 55.6118 28.2817 55.6118 28.2862C55.6118 28.2907 55.6104 28.2951 55.6078 28.2988C55.6054 28.3012 55.6026 28.3031 55.5995 28.3044C55.5964 28.3057 55.5931 28.3063 55.5898 28.3063C55.5864 28.3063 55.5831 28.3057 55.58 28.3044C55.5769 28.3031 55.5741 28.3012 55.5718 28.2988C55.0544 27.6866 54.4093 27.1951 53.6818 26.8588C53.3507 26.6754 52.9801 26.5753 52.6018 26.5672C52.2519 26.5883 51.9217 26.7364 51.6731 26.9836C51.4246 27.2308 51.2748 27.5602 51.2518 27.91C51.2546 28.2612 51.3217 28.6089 51.4498 28.936C51.6985 29.6956 51.9894 30.4407 52.321 31.168C52.5046 31.5712 52.681 31.9672 52.9078 32.356C53.1346 32.7448 53.3614 33.1192 53.545 33.5188C53.545 33.544 53.4658 33.5656 53.4478 33.5512C53.203 33.346 51.4822 31.6792 50.449 31.5928C50.1843 31.5563 49.9148 31.6037 49.6785 31.7284C49.4421 31.853 49.2508 32.0486 49.1314 32.2876C48.8912 32.8049 48.8292 33.3872 48.955 33.9436C49.1692 34.8995 49.4544 35.8381 49.8082 36.7516C49.8082 36.7804 49.7722 36.7948 49.7614 36.7516C49.4914 36.0856 48.9046 34.6564 48.721 33.9616C48.5391 33.3817 48.571 32.7559 48.811 32.1976C48.9248 31.9449 49.1031 31.7266 49.3281 31.5648C49.5531 31.4031 49.8168 31.3034 50.0926 31.276C50.6667 31.2958 51.2188 31.5018 51.6658 31.8628C52.2175 32.289 52.7428 32.7482 53.239 33.238C53.0698 32.9932 52.3318 31.708 52.1374 31.3156C51.7405 30.5312 51.4012 29.7191 51.1222 28.8856C50.8738 28.1656 50.809 27.3628 51.3922 26.7616C51.6583 26.5098 51.995 26.3453 52.3572 26.29C52.7193 26.2347 53.0898 26.2912 53.419 26.452C53.9546 26.68 54.4429 27.006 54.859 27.4132C54.7546 27.2656 54.6538 27.1108 54.5638 26.9524C54.2992 26.4523 54.0834 25.9279 53.9194 25.3864Z" fill="#263238"/>
<path d="M52.7598 84.088C53.0874 85.0456 53.397 86.0032 53.7534 86.9464C54.1098 87.8896 54.4518 88.8328 54.8334 89.7544C55.1991 90.6658 55.6626 91.5349 56.2158 92.3464C56.2811 92.4415 56.3533 92.5318 56.4318 92.6164L56.6622 92.8468C56.8451 92.9954 57.0388 93.1302 57.2418 93.25C57.6434 93.489 58.0792 93.665 58.5342 93.772C58.9907 93.8763 59.4602 93.9127 59.9274 93.88C60.3999 93.8377 60.8654 93.7373 61.3134 93.5812C62.2313 93.2497 63.0914 92.7759 63.8622 92.1772C64.2654 91.8928 64.6326 91.5508 65.007 91.2304C65.3658 90.8987 65.6837 90.5253 65.9538 90.118C66.516 89.2877 66.9471 88.3758 67.2318 87.4144C67.0755 88.4236 66.7454 89.398 66.2562 90.2944C66.002 90.7498 65.6938 91.1729 65.3382 91.5544C64.9847 91.9309 64.611 92.2879 64.2186 92.6236C63.4263 93.3073 62.5229 93.8503 61.5474 94.2292C61.0468 94.4162 60.524 94.5373 59.9922 94.5892C59.451 94.6324 58.9064 94.596 58.3758 94.4812C57.8501 94.3507 57.3475 94.1407 56.8854 93.8584C56.6539 93.7184 56.4337 93.5608 56.2266 93.3868L55.9242 93.0844C55.8337 92.9812 55.7507 92.8717 55.6758 92.7568C55.1102 91.8868 54.6555 90.9495 54.3222 89.9668C53.6383 88.0542 53.1157 86.0877 52.7598 84.088Z" fill="#263238"/>
</g>
<defs>
<clipPath id="clip0_4329_305894">
<rect width="180" height="124.054" fill="white"/>
</clipPath>
</defs>
</svg>
