<svg width="16" height="11" viewBox="0 0 16 11" fill="none" xmlns="http://www.w3.org/2000/svg">
<path fill-rule="evenodd" clip-rule="evenodd" d="M8.00002 0.166626C9.81838 0.166626 11.5571 1.12038 13.1775 2.68739C13.7304 3.22199 14.2305 3.79273 14.6707 4.36371C14.9364 4.70825 15.125 4.97929 15.2283 5.14076L15.458 5.49996L15.2283 5.85916C15.125 6.02063 14.9364 6.29167 14.6707 6.63621C14.2305 7.20719 13.7304 7.77793 13.1775 8.31253C11.5571 9.87954 9.81838 10.8333 8.00002 10.8333C6.18165 10.8333 4.4429 9.87954 2.82249 8.31253C2.26968 7.77793 1.76955 7.20719 1.32929 6.63621C1.06362 6.29167 0.874998 6.02063 0.771725 5.85916L0.541992 5.49996L0.771725 5.14076C0.874998 4.97929 1.06362 4.70825 1.32929 4.36371C1.76955 3.79273 2.26968 3.22199 2.82249 2.68739C4.4429 1.12038 6.18165 0.166626 8.00002 0.166626ZM13.6149 5.17788C13.2118 4.6551 12.7535 4.13209 12.2507 3.64586C10.855 2.29621 9.4034 1.49996 8.00001 1.49996C6.59663 1.49996 5.14501 2.29621 3.74938 3.64586C3.24657 4.13209 2.78827 4.6551 2.38518 5.17788C2.29812 5.29078 2.21767 5.39851 2.14413 5.49996C2.21767 5.60141 2.29812 5.70914 2.38518 5.82204C2.78827 6.34481 3.24657 6.86782 3.74938 7.35406C5.14501 8.70371 6.59663 9.49996 8.00001 9.49996C9.4034 9.49996 10.855 8.70371 12.2507 7.35406C12.7535 6.86782 13.2118 6.34481 13.6149 5.82204C13.7019 5.70914 13.7824 5.60141 13.8559 5.49996C13.7824 5.39851 13.7019 5.29078 13.6149 5.17788ZM5.33335 5.49996C5.33335 6.97272 6.52726 8.16663 8.00002 8.16663C9.47277 8.16663 10.6667 6.97272 10.6667 5.49996C10.6667 4.0272 9.47277 2.83329 8.00002 2.83329C6.52726 2.83329 5.33335 4.0272 5.33335 5.49996ZM9.33335 5.49996C9.33335 6.23634 8.73639 6.83329 8.00002 6.83329C7.26364 6.83329 6.66668 6.23634 6.66668 5.49996C6.66668 4.76358 7.26364 4.16663 8.00002 4.16663C8.73639 4.16663 9.33335 4.76358 9.33335 5.49996Z" fill="currentColor"/>
</svg>
