<svg width="29" height="29" viewBox="0 0 29 29" fill="currentColor" xmlns="http://www.w3.org/2000/svg">
<g clip-path="url(#clip0_1461_7212)">
<path fill-rule="evenodd" clip-rule="evenodd" d="M7.94044 12C8.16305 13.2982 8.80972 14.5072 9.80263 15.4491C11.0486 16.631 12.738 17.2957 14.5 17.2974C15.8144 17.2974 17.0993 16.9277 18.1922 16.2349C19.2851 15.5422 20.1369 14.5576 20.6399 13.4056C20.8381 12.9518 20.9787 12.48 21.0605 12H18.8015C18.6084 12.7426 18.2048 13.4224 17.6329 13.965C17.0133 14.5528 16.2238 14.953 15.3644 15.1152C14.5049 15.2774 13.6141 15.1941 12.8045 14.876C11.9949 14.5579 11.303 14.0192 10.8161 13.3281C10.5291 12.9206 10.321 12.4709 10.1985 12H7.94044ZM7.45427 22.1717C9.32313 20.3989 11.857 19.4016 14.5 19.3989C17.143 19.4016 19.6769 20.3989 21.5457 22.1717C23.4146 23.9445 24.4658 26.3482 24.4687 28.8554C24.4687 29.1341 24.352 29.4013 24.1443 29.5984C23.9366 29.7954 23.6549 29.9061 23.3611 29.9061C23.0673 29.9061 22.7856 29.7954 22.5779 29.5984C22.3702 29.4013 22.2535 29.1341 22.2535 28.8554C22.2535 26.9047 21.4366 25.0339 19.9825 23.6546C18.5285 22.2752 16.5563 21.5003 14.5 21.5003C12.4436 21.5003 10.4715 22.2752 9.01747 23.6546C7.56341 25.0339 6.74653 26.9047 6.74653 28.8554C6.74653 29.1341 6.62983 29.4013 6.42211 29.5984C6.21438 29.7954 5.93265 29.9061 5.63889 29.9061C5.34512 29.9061 5.06339 29.7954 4.85567 29.5984C4.64795 29.4013 4.53125 29.1341 4.53125 28.8554C4.53418 26.3482 5.5854 23.9445 7.45427 22.1717Z" fill="currentColor"/>
<path fill-rule="evenodd" clip-rule="evenodd" d="M14.4981 0.604126C13.5589 0.604126 12.6248 0.855144 11.7839 1.35837C10.3542 2.21395 9.3959 3.69259 9.13881 5.35255C7.16058 5.75992 5.64358 6.3467 4.67186 7.14869C4.16756 7.56491 3.7867 8.06428 3.66268 8.66681C3.53867 9.26934 3.72795 9.91171 4.12478 10.4203C4.91845 11.4374 6.351 12.0755 8.18009 12.5536C10.0092 13.0317 12.2507 13.3013 14.6295 13.2914C17.0084 13.2814 19.2249 12.9955 21.0232 12.5013C22.8216 12.0072 24.2188 11.3588 24.9577 10.3116C25.3272 9.78793 25.4718 9.12356 25.3083 8.53193C25.1447 7.94029 24.74 7.46538 24.2141 7.05923C23.2401 6.30702 21.756 5.7479 19.864 5.35805C19.6082 3.69581 18.6502 2.21491 17.2189 1.35837C16.378 0.855145 15.4373 0.604126 14.4981 0.604126ZM14.5007 2.01351C15.205 2.01351 15.9101 2.20262 16.5417 2.58057C17.5906 3.20826 18.2943 4.27892 18.5056 5.48881C18.46 5.52613 18.4244 5.56172 18.3224 5.61406C18.008 5.77532 17.4634 5.94718 16.7714 6.0655C15.3874 6.30214 13.6141 6.30214 12.2301 6.0655C11.5381 5.94718 10.9935 5.77532 10.6791 5.61406C10.5764 5.56137 10.5415 5.52483 10.4959 5.48743C10.7075 4.27809 11.4126 3.20803 12.4611 2.58057C13.0927 2.20262 13.7965 2.01351 14.5007 2.01351ZM9.06312 6.81561V7.65244C9.06312 7.99755 9.22633 8.29908 9.41501 8.50578C9.60368 8.71247 9.82266 8.86015 10.0763 8.99025C10.5835 9.25045 11.2292 9.4335 12.0097 9.56695C13.5706 9.83384 15.4322 9.83384 16.9932 9.56695C17.7736 9.4335 18.4179 9.25045 18.9252 8.99025C19.1788 8.86015 19.3991 8.71247 19.5878 8.50578C19.7765 8.29908 19.9384 7.99755 19.9384 7.65244V6.81837C21.5367 7.18506 22.7529 7.68837 23.4014 8.18921C23.7763 8.47872 23.9504 8.74564 23.999 8.92144C24.0476 9.09723 24.0401 9.22106 23.8582 9.47886C23.4944 9.99445 22.331 10.6841 20.6767 11.1387C19.0224 11.5933 16.9008 11.8724 14.6242 11.882C12.3476 11.8915 10.2051 11.6312 8.51604 11.1897C6.827 10.7482 5.60133 10.0713 5.18309 9.53529C4.97397 9.26729 4.95895 9.12505 4.99321 8.9586C5.02747 8.79215 5.1676 8.53792 5.51506 8.25115C6.1406 7.73487 7.39283 7.19888 9.06312 6.81561ZM10.4229 7.02757C10.868 7.209 11.3955 7.35061 12.0097 7.45562C13.5706 7.72251 15.4322 7.72251 16.9932 7.45562C17.6073 7.35061 18.1335 7.209 18.5786 7.02757V7.55334C18.5427 7.58825 18.4658 7.65181 18.3224 7.72538C18.008 7.88665 17.4634 8.05988 16.7714 8.1782C15.3874 8.41485 13.6141 8.41485 12.2301 8.1782C11.5381 8.05988 10.9935 7.88665 10.6791 7.72538C10.5357 7.65181 10.4588 7.58825 10.4229 7.55334V7.02757Z" fill="currentColor" stroke="currentColor"/>
</g>
<defs>
<clipPath id="clip0_1461_7212">
<rect width="29" height="29" fill="currentColor"/>
</clipPath>
</defs>
</svg>
