<svg width="16" height="17" viewBox="0 0 16 17" fill="none" xmlns="http://www.w3.org/2000/svg">
<path fill-rule="evenodd" clip-rule="evenodd" d="M10.2761 1.16669H3.33333C2.59695 1.16669 2 1.76364 2 2.50002V14.5C2 15.2364 2.59695 15.8334 3.33333 15.8334H12.6667C13.403 15.8334 14 15.2364 14 14.5V4.89054L10.2761 1.16669ZM3.33333 2.50002H8.66667V5.16669C8.66667 5.90307 9.26362 6.50002 10 6.50002H12.6667V14.5H3.33333V2.50002ZM10 5.16669V2.77616L12.3905 5.16669H10ZM7.33333 7.16669V10.2239L6.4714 9.36195L5.5286 10.3048L8 12.7762L10.4714 10.3048L9.5286 9.36195L8.66667 10.2239V7.16669H7.33333Z" fill="#3F51B5"/>
</svg>
