<svg width="40" height="41" viewBox="0 0 40 41" fill="none" xmlns="http://www.w3.org/2000/svg">
<rect y="0.291016" width="40" height="40" rx="20" fill="#E8E8E8"/>
<path d="M23.126 14.6013C23.126 14.6013 21.8793 12.8663 22.3671 11.6136C22.9192 10.1971 24.4007 9.29102 24.4007 9.29102C24.4007 9.29102 25.2094 11.2209 24.9026 12.3249C24.5364 13.644 23.126 14.6013 23.126 14.6013V14.6013Z" fill="#67A22D"/>
<path fill-rule="evenodd" clip-rule="evenodd" d="M23.3396 14.5997C23.0349 14.8927 22.6718 15.1822 22.4926 15.3094C22.4741 15.3217 22.456 15.3338 22.4372 15.3473C21.8761 14.9793 21.0444 14.7419 20.0333 14.7419C17.0671 14.7419 15.6066 16.6664 15.6066 18.8076C15.6066 20.2998 16.3482 21.5759 17.7635 22.0516C17.6401 22.1535 17.5193 22.2515 17.402 22.3466C16.4728 23.1002 15.7643 23.6749 15.7643 24.539C15.7643 25.0361 16.0113 25.4898 16.5504 25.7282C15.7863 26.1604 15 26.7448 15 27.9557C15 29.3613 16.146 30.2911 19.561 30.2911C23.8302 30.2911 25.2463 29.0369 25.2463 26.874C25.2463 24.4308 23.3141 24.0626 20.7301 24.0626H18.6177C17.9883 24.0626 17.6958 24.0199 17.6958 23.6089C17.6958 23.3062 18.0333 22.9597 18.7525 22.333C19.202 22.4191 19.4714 22.4622 20.0334 22.4622C22.3698 22.4622 24.2352 21.0352 24.2352 18.5695C24.2352 17.3151 23.7183 16.5371 23.0892 15.9311C23.1786 15.908 23.2666 15.8871 23.3554 15.8661C23.7561 15.7711 24.1733 15.6723 24.8105 15.3438C25.4388 15.0199 26.0093 14.3229 25.9999 13.2987C25.9926 12.4768 25.5318 11.9619 25.183 11.6934C25.1866 11.919 25.1669 12.1343 25.1139 12.3249C24.7563 13.6131 23.4029 14.5562 23.3396 14.5997ZM17.7866 18.5695C17.7866 20.7322 18.6853 21.446 20.0107 21.446C21.1567 21.446 22.1007 20.7539 22.1007 18.5266C22.1007 16.4067 21.2469 15.693 19.9878 15.693C18.8197 15.693 17.7866 16.4504 17.7866 18.5695ZM23.6059 27.3716C23.6059 26.2036 22.4826 26.0743 20.3929 26.0743H17.3141C16.9999 26.4852 16.7526 26.9391 16.7526 27.5447C16.7526 28.5609 17.2693 29.1884 20.1004 29.1884C22.3028 29.1884 23.6059 28.7556 23.6059 27.3716Z" fill="#67A22D"/>
</svg>
