<svg width="32" height="32" viewBox="0 0 32 32" fill="none" xmlns="http://www.w3.org/2000/svg">
<circle cx="11.5556" cy="12.5556" r="10.3368" stroke="currentColor" stroke-width="2.4375"/>
<circle cx="24.8889" cy="23.2222" r="5.89111" stroke="currentColor" stroke-width="2.44"/>
<path d="M12.5825 7.31695C13.0909 7.31744 13.5783 7.51963 13.9378 7.87912C14.2973 8.23861 14.4995 8.72605 14.5 9.23445C14.5 9.40021 14.5659 9.55918 14.6831 9.67639C14.8003 9.7936 14.9592 9.85945 15.125 9.85945C15.2908 9.85945 15.4497 9.7936 15.5669 9.67639C15.6842 9.55918 15.75 9.40021 15.75 9.23445V9.19195C15.75 9.18007 15.75 9.16945 15.75 9.15757C15.7291 8.33115 15.3863 7.54556 14.7947 6.96823C14.203 6.3909 13.4092 6.0675 12.5825 6.06695H12V5.44195C12 5.27619 11.9342 5.11722 11.8169 5.00001C11.6997 4.8828 11.5408 4.81695 11.375 4.81695C11.2092 4.81695 11.0503 4.8828 10.9331 5.00001C10.8159 5.11722 10.75 5.27619 10.75 5.44195V6.06695H10.1675C9.41583 6.06775 8.68893 6.33584 8.11675 6.82331C7.54456 7.31077 7.16438 7.98584 7.04416 8.72784C6.92394 9.46984 7.07151 10.2304 7.4605 10.8736C7.84948 11.5168 8.45454 12.0007 9.1675 12.2388L10.75 12.7669V17.3169H10.1675C9.6591 17.3165 9.17167 17.1143 8.81217 16.7548C8.45268 16.3953 8.2505 15.9078 8.25 15.3994C8.25 15.2337 8.18415 15.0747 8.06694 14.9575C7.94973 14.8403 7.79076 14.7744 7.625 14.7744C7.45924 14.7744 7.30027 14.8403 7.18306 14.9575C7.06585 15.0747 7 15.2337 7 15.3994V15.4419C7 15.4538 7 15.4644 7 15.4763C7.02086 16.3027 7.36366 17.0883 7.95535 17.6657C8.54704 18.243 9.34082 18.5664 10.1675 18.5669H10.75V19.1919C10.75 19.3577 10.8159 19.5167 10.9331 19.6339C11.0503 19.7511 11.2092 19.8169 11.375 19.8169C11.5408 19.8169 11.6997 19.7511 11.8169 19.6339C11.9342 19.5167 12 19.3577 12 19.1919V18.5669H12.5825C13.3342 18.5661 14.0611 18.2981 14.6333 17.8106C15.2054 17.3231 15.5856 16.6481 15.7058 15.9061C15.8261 15.1641 15.6785 14.4035 15.2895 13.7603C14.9005 13.1171 14.2955 12.6332 13.5825 12.3951L12 11.8669V7.31695H12.5825ZM13.1888 13.5801C13.6209 13.7239 13.9877 14.0169 14.2236 14.4065C14.4594 14.7961 14.5489 15.2569 14.476 15.7065C14.403 16.1561 14.1725 16.565 13.8255 16.8601C13.4786 17.1552 13.038 17.3171 12.5825 17.3169H12V13.1838L13.1888 13.5801ZM10.75 11.4501L9.5625 11.0538C9.13046 10.91 8.7637 10.6172 8.52784 10.2277C8.29198 9.8382 8.20242 9.37748 8.27519 8.92799C8.34796 8.47851 8.57831 8.06959 8.92502 7.77441C9.27173 7.47924 9.71216 7.31708 10.1675 7.31695H10.75V11.4501Z" fill="currentColor" stroke="currentColor"/>
<path d="M28.0187 21C28.2342 21.2154 28.2342 21.5646 28.0187 21.78L24.319 25.4798C24.1035 25.6952 23.7544 25.6952 23.539 25.4798L21.7778 23.7185C21.5623 23.5032 21.5623 23.154 21.7778 22.9386C21.9931 22.7232 22.3423 22.7232 22.5576 22.9386L23.9289 24.3099L27.2388 21C27.4542 20.7847 27.8034 20.7847 28.0187 21Z" fill="currentColor" stroke="currentColor"/>
</svg>
