<svg width="16" height="16" viewBox="0 0 16 16" fill="currentColor" xmlns="http://www.w3.org/2000/svg">
<path d="M14.0222 1.97242C13.8528 1.80345 13.6481 1.67416 13.4228 1.59385C13.1974 1.51354 12.957 1.48423 12.719 1.50802C11.2055 1.65433 6.11564 2.28456 4.14971 4.2484C3.20996 5.19074 2.65271 6.44787 2.58555 7.77704C2.5184 9.1062 2.94612 10.4131 3.7861 11.4454L9.77929 5.45196C9.88149 5.35325 10.0184 5.29863 10.1605 5.29986C10.3025 5.3011 10.4384 5.35809 10.5389 5.45856C10.6394 5.55903 10.6964 5.69495 10.6976 5.83703C10.6988 5.97912 10.6442 6.116 10.5455 6.2182L4.55449 12.2116C5.58635 13.0521 6.8931 13.4804 8.22228 13.4136C9.55146 13.3469 10.8087 12.7898 11.7512 11.8502C13.7431 9.8576 14.3522 4.78325 14.4926 3.27569C14.5155 3.03719 14.4852 2.79656 14.4039 2.57118C14.3225 2.34581 14.1922 2.1413 14.0222 1.97242ZM4.14971 11.8502C4.27903 11.9791 4.41324 12.1003 4.55232 12.2138L2.41732 14.3489C2.31484 14.4473 2.1778 14.5016 2.0357 14.5C1.8936 14.4983 1.75783 14.441 1.65763 14.3402C1.55743 14.2394 1.50083 14.1033 1.50001 13.9612C1.49919 13.8191 1.55423 13.6824 1.65327 13.5804L3.78827 11.4454C3.90171 11.5841 4.02218 11.719 4.14971 11.8502Z" fill="currentColor"/>
</svg>
