<svg width="32" height="32" viewBox="0 0 32 32" fill="none" xmlns="http://www.w3.org/2000/svg">
<path d="M25.3333 1.33334H6.66667C4.89921 1.33545 3.20474 2.03851 1.95496 3.2883C0.705176 4.53808 0.00211714 6.23254 0 8.00001L0 18.6667C0.00211714 20.4341 0.705176 22.1286 1.95496 23.3784C3.20474 24.6282 4.89921 25.3312 6.66667 25.3333H14.6667V28H9.33333C8.97971 28 8.64057 28.1405 8.39052 28.3905C8.14047 28.6406 8 28.9797 8 29.3333C8 29.687 8.14047 30.0261 8.39052 30.2762C8.64057 30.5262 8.97971 30.6667 9.33333 30.6667H22.6667C23.0203 30.6667 23.3594 30.5262 23.6095 30.2762C23.8595 30.0261 24 29.687 24 29.3333C24 28.9797 23.8595 28.6406 23.6095 28.3905C23.3594 28.1405 23.0203 28 22.6667 28H17.3333V25.3333H25.3333C27.1008 25.3312 28.7953 24.6282 30.045 23.3784C31.2948 22.1286 31.9979 20.4341 32 18.6667V8.00001C31.9979 6.23254 31.2948 4.53808 30.045 3.2883C28.7953 2.03851 27.1008 1.33545 25.3333 1.33334ZM6.66667 4H25.3333C26.3942 4 27.4116 4.42143 28.1618 5.17158C28.9119 5.92172 29.3333 6.93914 29.3333 8.00001V17.3333H2.66667V8.00001C2.66667 6.93914 3.08809 5.92172 3.83824 5.17158C4.58838 4.42143 5.6058 4 6.66667 4ZM25.3333 22.6667H6.66667C5.84232 22.6633 5.03916 22.4052 4.36707 21.9279C3.69497 21.4506 3.18678 20.7772 2.912 20H29.088C28.8132 20.7772 28.305 21.4506 27.6329 21.9279C26.9608 22.4052 26.1577 22.6633 25.3333 22.6667Z" fill="currentColor"/>
<path d="M20.3041 11.7917L20.0985 11.685C20.1911 11.2319 20.1911 10.7673 20.0985 10.3142L20.3041 10.2075C20.4622 10.1254 20.6008 10.0161 20.712 9.88586C20.8232 9.75559 20.9047 9.60689 20.9521 9.44826C20.9994 9.28962 21.0115 9.12416 20.9877 8.96132C20.9639 8.79847 20.9047 8.64143 20.8135 8.49917C20.7223 8.3569 20.6008 8.2322 20.456 8.13217C20.3112 8.03214 20.146 7.95875 19.9697 7.91619C19.7933 7.87363 19.6094 7.86273 19.4284 7.88412C19.2474 7.90551 19.0729 7.95876 18.9148 8.04083L18.7087 8.14792C18.3195 7.84872 17.8722 7.61677 17.3893 7.46375V7.25C17.3893 6.91848 17.2429 6.60054 16.9824 6.36612C16.7218 6.1317 16.3685 6 16 6C15.6315 6 15.2782 6.1317 15.0176 6.36612C14.7571 6.60054 14.6107 6.91848 14.6107 7.25V7.46375C14.1278 7.61732 13.6807 7.84983 13.2918 8.14958L13.0847 8.04167C12.7654 7.87591 12.386 7.83107 12.0299 7.91703C11.6738 8.00298 11.3703 8.21268 11.186 8.5C11.0018 8.78732 10.952 9.12872 11.0475 9.44909C11.143 9.76947 11.3761 10.0426 11.6954 10.2083L11.9011 10.315C11.8085 10.7681 11.8085 11.2327 11.9011 11.6858L11.6954 11.7925C11.3761 11.9583 11.143 12.2314 11.0475 12.5517C10.952 12.8721 11.0018 13.2135 11.186 13.5008C11.3703 13.7882 11.6738 13.9979 12.0299 14.0838C12.386 14.1698 12.7654 14.1249 13.0847 13.9592L13.2908 13.8521C13.6802 14.1513 14.1277 14.3833 14.6107 14.5363V14.75C14.6107 15.0815 14.7571 15.3995 15.0176 15.6339C15.2782 15.8683 15.6315 16 16 16C16.3685 16 16.7218 15.8683 16.9824 15.6339C17.2429 15.3995 17.3893 15.0815 17.3893 14.75V14.5363C17.8722 14.3827 18.3193 14.1502 18.7082 13.8504L18.9153 13.9579C19.2346 14.1237 19.614 14.1685 19.9701 14.0826C20.3262 13.9966 20.6297 13.7869 20.814 13.4996C20.9982 13.2123 21.048 12.8709 20.9525 12.5505C20.857 12.2301 20.6234 11.9574 20.3041 11.7917ZM19.1241 10.2183C19.2809 10.7296 19.2809 11.2696 19.1241 11.7808C19.0967 11.8698 19.103 11.9645 19.1419 12.0499C19.1808 12.1354 19.2501 12.2068 19.339 12.2529L19.841 12.5138C19.9474 12.569 20.0251 12.66 20.0569 12.7668C20.0888 12.8736 20.0721 12.9874 20.0107 13.0831C19.9493 13.1789 19.8481 13.2488 19.7295 13.2774C19.6108 13.306 19.4843 13.2911 19.3779 13.2358L18.875 12.9742C18.786 12.9278 18.6824 12.9094 18.5805 12.9218C18.4787 12.9343 18.3843 12.9769 18.3123 13.0429C17.9001 13.4215 17.3808 13.6917 16.8104 13.8242C16.7109 13.8472 16.6227 13.8994 16.5597 13.9725C16.4967 14.0456 16.4626 14.1354 16.4626 14.2279V14.75C16.4626 14.8605 16.4139 14.9665 16.327 15.0446C16.2402 15.1228 16.1224 15.1667 15.9995 15.1667C15.8767 15.1667 15.7589 15.1228 15.6721 15.0446C15.5852 14.9665 15.5364 14.8605 15.5364 14.75V14.2283C15.5365 14.1359 15.5023 14.046 15.4394 13.9729C15.3764 13.8998 15.2882 13.8476 15.1886 13.8246C14.6183 13.6915 14.0991 13.4208 13.6872 13.0417C13.6152 12.9756 13.5209 12.933 13.419 12.9206C13.3171 12.9082 13.2135 12.9266 13.1246 12.9729L12.6226 13.2342C12.5699 13.262 12.5116 13.2801 12.4511 13.2875C12.3906 13.295 12.329 13.2916 12.27 13.2775C12.2109 13.2635 12.1556 13.2391 12.1071 13.2057C12.0585 13.1723 12.0178 13.1306 11.9873 13.0831C11.9568 13.0355 11.937 12.9829 11.9291 12.9284C11.9212 12.8739 11.9254 12.8186 11.9414 12.7655C11.9574 12.7125 11.9849 12.6629 12.0224 12.6194C12.0598 12.576 12.1064 12.5397 12.1595 12.5125L12.6615 12.2517C12.7504 12.2055 12.8197 12.1341 12.8586 12.0487C12.8975 11.9632 12.9037 11.8686 12.8764 11.7796C12.7195 11.2683 12.7195 10.7284 12.8764 10.2171C12.9032 10.1283 12.8967 10.034 12.8577 9.94887C12.8188 9.86377 12.7496 9.79267 12.661 9.74667L12.159 9.48583C12.0526 9.43058 11.9749 9.33955 11.9431 9.23277C11.9112 9.12599 11.9279 9.01221 11.9893 8.91646C12.0507 8.8207 12.1519 8.75082 12.2705 8.72218C12.3892 8.69354 12.5157 8.7085 12.6221 8.76375L13.125 9.02542C13.2138 9.07188 13.3171 9.0905 13.4189 9.07836C13.5207 9.06622 13.6151 9.024 13.6872 8.95833C14.0995 8.57973 14.6188 8.30959 15.1891 8.17708C15.289 8.15399 15.3774 8.10156 15.4404 8.02813C15.5034 7.95469 15.5374 7.86443 15.5369 7.77167V7.25C15.5369 7.13949 15.5857 7.03351 15.6725 6.95537C15.7594 6.87723 15.8772 6.83333 16 6.83333C16.1228 6.83333 16.2406 6.87723 16.3275 6.95537C16.4143 7.03351 16.4631 7.13949 16.4631 7.25V7.77167C16.4631 7.86415 16.4972 7.95402 16.5602 8.02712C16.6231 8.10022 16.7113 8.15239 16.8109 8.17542C17.3814 8.3084 17.9008 8.57912 18.3127 8.95833C18.3847 9.02436 18.4791 9.06696 18.581 9.0794C18.6829 9.09185 18.7865 9.07344 18.8754 9.02708L19.3774 8.76583C19.4301 8.73804 19.4884 8.7199 19.5489 8.71246C19.6094 8.70502 19.671 8.70841 19.73 8.72246C19.7891 8.7365 19.8444 8.76092 19.8929 8.7943C19.9415 8.82768 19.9822 8.86936 20.0127 8.91695C20.0432 8.96453 20.063 9.01709 20.0709 9.07158C20.0788 9.12607 20.0746 9.18142 20.0586 9.23446C20.0426 9.28749 20.0151 9.33714 19.9776 9.38057C19.9402 9.424 19.8936 9.46034 19.8405 9.4875L19.3385 9.74833C19.2501 9.79446 19.1811 9.86562 19.1423 9.95071C19.1035 10.0358 19.0971 10.1296 19.1241 10.2183Z" fill="currentColor"/>
<path d="M16 9.33333C15.6336 9.33333 15.2755 9.43108 14.9708 9.61422C14.6662 9.79735 14.4288 10.0577 14.2886 10.3622C14.1484 10.6667 14.1117 11.0019 14.1832 11.3252C14.2546 11.6485 14.4311 11.9454 14.6901 12.1785C14.9492 12.4116 15.2793 12.5703 15.6386 12.6346C15.9979 12.699 16.3704 12.6659 16.7089 12.5398C17.0474 12.4137 17.3367 12.2 17.5402 11.926C17.7438 11.6519 17.8524 11.3296 17.8524 11C17.8524 10.558 17.6573 10.1341 17.3099 9.82149C16.9625 9.50893 16.4913 9.33333 16 9.33333ZM16 11.8333C15.8168 11.8333 15.6377 11.7845 15.4854 11.6929C15.3331 11.6013 15.2144 11.4712 15.1443 11.3189C15.0742 11.1666 15.0558 10.9991 15.0916 10.8374C15.1273 10.6758 15.2155 10.5273 15.3451 10.4107C15.4746 10.2942 15.6396 10.2148 15.8193 10.1827C15.999 10.1505 16.1852 10.167 16.3544 10.2301C16.5237 10.2932 16.6683 10.4 16.7701 10.537C16.8719 10.6741 16.9262 10.8352 16.9262 11C16.9262 11.221 16.8286 11.433 16.6549 11.5893C16.4812 11.7455 16.2456 11.8333 16 11.8333Z" fill="currentColor"/>
<path d="M21.1649 11.95L20.9182 11.822C21.0293 11.2782 21.0293 10.7208 20.9182 10.177L21.1649 10.049C21.3547 9.95051 21.521 9.81936 21.6544 9.66303C21.7878 9.50671 21.8857 9.32827 21.9425 9.13791C21.9992 8.94755 22.0138 8.74899 21.9852 8.55358C21.9567 8.35816 21.8857 8.16972 21.7762 7.999C21.6668 7.82828 21.521 7.67863 21.3472 7.5586C21.1735 7.43857 20.9752 7.3505 20.7636 7.29943C20.552 7.24836 20.3313 7.23528 20.1141 7.26094C19.8969 7.28661 19.6875 7.35051 19.4977 7.449L19.2505 7.5775C18.7834 7.21846 18.2466 6.94012 17.6672 6.7565V6.5C17.6672 6.10218 17.4915 5.72064 17.1789 5.43934C16.8662 5.15804 16.4422 5 16 5C15.5578 5 15.1338 5.15804 14.8211 5.43934C14.5085 5.72064 14.3328 6.10218 14.3328 6.5V6.7565C13.7534 6.94078 13.2168 7.2198 12.7501 7.5795L12.5017 7.45C12.1185 7.25109 11.6632 7.19729 11.2359 7.30043C10.8086 7.40358 10.4443 7.65522 10.2232 8C10.0021 8.34478 9.94234 8.75446 10.057 9.13891C10.1716 9.52336 10.4513 9.85109 10.8345 10.05L11.0813 10.178C10.9702 10.7218 10.9702 11.2792 11.0813 11.823L10.8345 11.951C10.4513 12.1499 10.1716 12.4776 10.057 12.8621C9.94234 13.2465 10.0021 13.6562 10.2232 14.001C10.4443 14.3458 10.8086 14.5974 11.2359 14.7006C11.6632 14.8037 12.1185 14.7499 12.5017 14.551L12.749 14.4225C13.2162 14.7816 13.7532 15.0599 14.3328 15.2435V15.5C14.3328 15.8978 14.5085 16.2794 14.8211 16.5607C15.1338 16.842 15.5578 17 16 17C16.4422 17 16.8662 16.842 17.1789 16.5607C17.4915 16.2794 17.6672 15.8978 17.6672 15.5V15.2435C18.2466 15.0592 18.7832 14.7802 19.2499 14.4205L19.4983 14.5495C19.8815 14.7484 20.3369 14.8022 20.7641 14.6991C21.1914 14.5959 21.5557 14.3443 21.7768 13.9995C21.9979 13.6547 22.0577 13.245 21.943 12.8606C21.8284 12.4761 21.5487 12.1484 21.1655 11.9495L21.1649 11.95ZM19.7489 10.062C19.9371 10.6755 19.9371 11.3235 19.7489 11.937C19.7161 12.0438 19.7236 12.1574 19.7702 12.2599C19.8169 12.3624 19.9001 12.4481 20.0068 12.5035L20.6092 12.8165C20.7369 12.8828 20.8301 12.992 20.8683 13.1202C20.9065 13.2483 20.8866 13.3848 20.8129 13.4998C20.7392 13.6147 20.6178 13.6985 20.4754 13.7329C20.3329 13.7672 20.1812 13.7493 20.0535 13.683L19.45 13.369C19.3432 13.3134 19.2189 13.2913 19.0966 13.3062C18.9744 13.3212 18.8611 13.3723 18.7747 13.4515C18.2801 13.9058 17.6569 14.23 16.9725 14.389C16.8531 14.4166 16.7472 14.4792 16.6717 14.567C16.5961 14.6547 16.5551 14.7625 16.5552 14.8735V15.5C16.5552 15.6326 16.4966 15.7598 16.3924 15.8536C16.2882 15.9473 16.1468 16 15.9994 16C15.8521 16 15.7107 15.9473 15.6065 15.8536C15.5023 15.7598 15.4437 15.6326 15.4437 15.5V14.874C15.4438 14.763 15.4028 14.6552 15.3272 14.5675C15.2517 14.4797 15.1458 14.4171 15.0264 14.3895C14.3419 14.2298 13.7189 13.905 13.2247 13.45C13.1383 13.3708 13.0251 13.3197 12.9028 13.3047C12.7806 13.2898 12.6563 13.3119 12.5495 13.3675L11.9471 13.681C11.8839 13.7143 11.8139 13.7361 11.7413 13.7451C11.6687 13.754 11.5948 13.7499 11.524 13.7331C11.4531 13.7162 11.3867 13.6869 11.3285 13.6468C11.2702 13.6068 11.2214 13.5568 11.1848 13.4997C11.1481 13.4426 11.1244 13.3795 11.1149 13.3141C11.1055 13.2487 11.1105 13.1823 11.1297 13.1187C11.1489 13.055 11.1819 12.9954 11.2268 12.9433C11.2717 12.8912 11.3276 12.8476 11.3914 12.815L11.9938 12.502C12.1004 12.4466 12.1836 12.3609 12.2303 12.2584C12.277 12.1559 12.2845 12.0423 12.2516 11.9355C12.0634 11.322 12.0634 10.674 12.2516 10.0605C12.2839 9.95394 12.276 9.84077 12.2293 9.73865C12.1825 9.63653 12.0995 9.5512 11.9932 9.496L11.3908 9.183C11.2631 9.1167 11.1699 9.00746 11.1317 8.87933C11.0935 8.75119 11.1134 8.61466 11.1871 8.49975C11.2608 8.38485 11.3822 8.30099 11.5246 8.26662C11.6671 8.23225 11.8188 8.2502 11.9465 8.3165L12.55 8.6305C12.6565 8.68626 12.7806 8.70861 12.9027 8.69403C13.0248 8.67946 13.1381 8.6288 13.2247 8.55C13.7193 8.09567 14.3425 7.77151 15.0269 7.6125C15.1468 7.58478 15.2529 7.52188 15.3285 7.43375C15.4041 7.34563 15.4448 7.23732 15.4443 7.126V6.5C15.4443 6.36739 15.5028 6.24021 15.607 6.14645C15.7113 6.05268 15.8526 6 16 6C16.1474 6 16.2887 6.05268 16.393 6.14645C16.4972 6.24021 16.5557 6.36739 16.5557 6.5V7.126C16.5557 7.23698 16.5966 7.34482 16.6722 7.43254C16.7478 7.52026 16.8536 7.58287 16.9731 7.6105C17.6577 7.77008 18.2809 8.09494 18.7753 8.55C18.8617 8.62923 18.975 8.68035 19.0972 8.69528C19.2195 8.71022 19.3438 8.68813 19.4505 8.6325L20.0529 8.319C20.1161 8.28565 20.1861 8.26388 20.2587 8.25495C20.3313 8.24602 20.4052 8.2501 20.476 8.26695C20.5469 8.28381 20.6133 8.3131 20.6715 8.35316C20.7298 8.39321 20.7786 8.44323 20.8152 8.50034C20.8519 8.55744 20.8756 8.62051 20.8851 8.6859C20.8945 8.75129 20.8895 8.81771 20.8703 8.88135C20.8511 8.94498 20.8181 9.00457 20.7732 9.05669C20.7283 9.1088 20.6724 9.15241 20.6086 9.185L20.0062 9.498C19.9001 9.55335 19.8173 9.63874 19.7708 9.74085C19.7243 9.84296 19.7166 9.95605 19.7489 10.0625V10.062Z" fill="currentColor"/>
<circle cx="16" cy="11" r="1.125" stroke="currentColor" stroke-width="1.125"/>
</svg>
