<?xml version="1.0" encoding="utf-8"?>
<svg viewBox="-1.746 14.052 33.509 33.725" fill="currentColor" xmlns="http://www.w3.org/2000/svg">
  <path d="M1.45858 38.8173C1.84364 38.8173 2.21412 38.6627 2.48833 38.3914L10.6943 30.1855L14.0403 33.5314C14.3145 33.8057 14.6849 33.9573 15.0729 33.9573C15.4609 33.9573 15.8314 33.8027 16.1056 33.5314L25.283 24.3541V27.6388C25.283 28.4439 25.9364 29.0974 26.7415 29.0974C27.5467 29.0974 28.2001 28.4439 28.2001 27.6388V20.8302C28.2001 20.025 27.5467 19.3716 26.7415 19.3716H19.9358C19.1307 19.3716 18.4772 20.025 18.4772 20.8302C18.4772 21.6353 19.1307 22.2887 19.9358 22.2887H23.2205L15.0729 30.4363L11.727 27.0904C11.4527 26.8162 11.0823 26.6645 10.6943 26.6645C10.3063 26.6645 9.93582 26.8191 9.66161 27.0904L0.428821 36.329C0.154609 36.6032 0 36.9737 0 37.3587C0 38.1639 0.653442 38.8173 1.45858 38.8173Z" fill="currentColor"/>
  <path d="M26.7415 40.8535H1.45858C0.653442 40.8535 0 41.507 0 42.3121C0 43.1172 0.653442 43.7707 1.45858 43.7707H26.7415C27.5467 43.7707 28.2001 43.1172 28.2001 42.3121C28.2001 41.507 27.5467 40.8535 26.7415 40.8535Z" fill="currentColor"/>
</svg>