<svg width="32" height="32" viewBox="0 0 32 32" fill="none" xmlns="http://www.w3.org/2000/svg">
<g clip-path="url(#clip0_211_8744)">
<path d="M32 12.9653V25.3333C31.9979 27.1008 31.2948 28.7953 30.045 30.045C28.7952 31.2948 27.1008 31.9979 25.3333 32H24C23.6464 32 23.3072 31.8595 23.0572 31.6095C22.8071 31.3594 22.6667 31.0203 22.6667 30.6667C22.6667 30.313 22.8071 29.9739 23.0572 29.7239C23.3072 29.4738 23.6464 29.3333 24 29.3333H25.3333C26.3942 29.3333 27.4116 28.9119 28.1617 28.1618C28.9119 27.4116 29.3333 26.3942 29.3333 25.3333V12.9653C29.3334 12.3106 29.1727 11.6658 28.8653 11.0876C28.558 10.5095 28.1134 10.0156 27.5707 9.64934L18.2373 3.35201C17.5778 2.90242 16.7982 2.66195 16 2.66195C15.2018 2.66195 14.4222 2.90242 13.7627 3.35201L4.42934 9.64934C3.88656 10.0156 3.442 10.5095 3.13467 11.0876C2.82733 11.6658 2.66663 12.3106 2.66667 12.9653V25.3333C2.66667 26.3942 3.0881 27.4116 3.83824 28.1618C4.58839 28.9119 5.6058 29.3333 6.66667 29.3333H8C8.35362 29.3333 8.69276 29.4738 8.94281 29.7239C9.19285 29.9739 9.33333 30.313 9.33333 30.6667C9.33333 31.0203 9.19285 31.3594 8.94281 31.6095C8.69276 31.8595 8.35362 32 8 32H6.66667C4.89921 31.9979 3.20475 31.2948 1.95496 30.045C0.705181 28.7953 0.00212236 27.1008 5.22276e-06 25.3333V12.9653C-0.00136128 11.8743 0.265444 10.7996 0.776944 9.83593C1.28844 8.87222 2.02896 8.04899 2.93334 7.43868L12.2667 1.14002C13.367 0.393287 14.6662 -0.00592041 15.996 -0.00592041C17.3258 -0.00592041 18.625 0.393287 19.7253 1.14002L29.0587 7.43868C29.9639 8.04867 30.7056 8.87163 31.2184 9.83526C31.7313 10.7989 31.9997 11.8737 32 12.9653ZM25.3333 20.0093C25.3367 21.2353 25.0969 22.4498 24.6277 23.5825C24.1586 24.7152 23.4693 25.7435 22.6 26.608L17.9133 31.192C17.4003 31.6887 16.7141 31.9665 16 31.9665C15.2859 31.9665 14.5997 31.6887 14.0867 31.192L9.41066 26.6187C8.32319 25.5346 7.51998 24.1989 7.07225 22.7302C6.62451 21.2614 6.54608 19.7048 6.84391 18.1984C7.14173 16.6921 7.80661 15.2825 8.7796 14.0946C9.7526 12.9067 11.0036 11.9772 12.4218 11.3885C13.84 10.7998 15.3816 10.5701 16.9098 10.7198C18.438 10.8695 19.9057 11.3939 21.1827 12.2466C22.4597 13.0992 23.5066 14.2538 24.2307 15.6079C24.9547 16.962 25.3334 18.4738 25.3333 20.0093ZM22.6667 20.0093C22.6667 18.913 22.3963 17.8336 21.8796 16.8668C21.3628 15.8999 20.6155 15.0754 19.704 14.4663C18.7925 13.8572 17.7448 13.4822 16.6538 13.3747C15.5628 13.2672 14.4621 13.4304 13.4492 13.8499C12.4363 14.2693 11.5425 14.9321 10.847 15.7795C10.1514 16.6269 9.67555 17.6328 9.46156 18.708C9.24757 19.7832 9.30205 20.8946 9.62017 21.9437C9.93829 22.9929 10.5102 23.9474 11.2853 24.7227L15.952 29.2853L20.7253 24.712C21.3435 24.0952 21.8333 23.3621 22.1665 22.5549C22.4997 21.7477 22.6697 20.8826 22.6667 20.0093ZM20 20C20 20.7911 19.7654 21.5645 19.3259 22.2223C18.8863 22.8801 18.2616 23.3928 17.5307 23.6955C16.7998 23.9983 15.9956 24.0775 15.2196 23.9231C14.4437 23.7688 13.731 23.3878 13.1716 22.8284C12.6122 22.269 12.2312 21.5563 12.0769 20.7804C11.9225 20.0044 12.0017 19.2002 12.3045 18.4693C12.6072 17.7384 13.1199 17.1137 13.7777 16.6741C14.4355 16.2346 15.2089 16 16 16C17.0609 16 18.0783 16.4214 18.8284 17.1716C19.5786 17.9217 20 18.9391 20 20Z" fill="currentColor"/>
</g>
<defs>
<clipPath id="clip0_211_8744">
<rect width="32" height="32" fill="currentcolor"/>
</clipPath>
</defs>
</svg>
