<svg width="28" height="28" viewBox="0 0 28 28" fill="none" xmlns="http://www.w3.org/2000/svg">
    <path
        d="M14.5745 14.1061C14.4294 14.5899 14.26 15.0737 14.0786 15.5333C14.1754 15.6542 14.26 15.7752 14.3447 15.9203C14.4657 16.1501 14.5745 16.3195 14.6834 16.4162C14.7801 16.513 14.9374 16.5614 15.1309 16.5614C15.3123 16.5614 15.4695 16.4888 15.5905 16.3557C15.7114 16.2227 15.784 16.0534 15.784 15.884C15.784 15.5575 15.651 15.2067 15.397 14.8318C15.2035 14.5536 14.9132 14.3117 14.5745 14.1061Z"
        fill="currentColor" />
    <path
        d="M15.131 18.2911C14.9133 18.2911 14.756 18.3516 14.6593 18.4847C14.5625 18.6177 14.4778 18.7749 14.4053 18.9806C14.248 19.416 14.0061 19.7425 13.7038 19.9723C13.3893 20.2021 13.0143 20.311 12.5547 20.311C12.1435 20.311 11.7685 20.2142 11.4662 20.0086C11.2485 19.8756 11.0791 19.67 10.934 19.4281C10.4986 19.67 10.0511 19.8514 9.57935 19.9965C9.67611 20.1417 9.74868 20.2989 9.85753 20.432C10.0873 20.698 10.3413 20.9158 10.6074 21.0851C10.8856 21.2544 11.188 21.3754 11.5266 21.4479C11.8653 21.5205 12.2403 21.5689 12.6394 21.5689C13.1837 21.5689 13.6554 21.4842 14.0545 21.3149C14.4657 21.1456 14.7923 20.9158 15.0584 20.6376C15.3245 20.3594 15.5059 20.0812 15.639 19.7909C15.7599 19.5006 15.8204 19.2345 15.8204 18.9926C15.8204 18.7991 15.7478 18.6298 15.6148 18.5088C15.4817 18.3758 15.3245 18.3153 15.131 18.3153V18.2911Z"
        fill="currentColor" />
    <path
        d="M22.2307 14.0093C21.6501 13.6828 20.9607 13.5134 20.1504 13.5134C19.5577 13.5134 19.0255 13.6102 18.5659 13.7916C18.0942 13.973 17.7072 14.2391 17.3806 14.5899C17.054 14.9406 16.8121 15.364 16.6307 15.8599C16.4614 16.3558 16.3767 16.9 16.3767 17.5048C16.3767 18.1095 16.4614 18.6296 16.6186 19.1376C16.7879 19.6335 17.0298 20.0689 17.3443 20.4197C17.6709 20.7825 18.07 21.0486 18.5417 21.2542C19.0255 21.4478 19.5698 21.5445 20.1746 21.5445C20.7793 21.5445 21.3236 21.4478 21.8074 21.2542C22.2791 21.0607 22.6782 20.7825 23.0048 20.4318C23.3314 20.0689 23.5733 19.6456 23.7305 19.1497C23.8877 18.6538 23.9724 18.1095 23.9724 17.5169C23.9724 16.7065 23.8273 15.9929 23.5249 15.4002C23.2225 14.8076 22.7871 14.3359 22.2186 14.0093H22.2307ZM22.0977 19.065C21.892 19.4884 21.626 19.7907 21.2873 19.9964C20.9486 20.202 20.5858 20.2987 20.1746 20.2987C19.8601 20.2987 19.5698 20.2383 19.3037 20.1294C19.0376 20.0084 18.8078 19.8391 18.6022 19.5972C18.3966 19.3674 18.2393 19.065 18.1305 18.7143C18.0216 18.3635 17.9612 17.9523 17.9612 17.5169C17.9612 17.0815 18.0216 16.6823 18.1305 16.3316C18.2393 15.9808 18.3966 15.6905 18.5901 15.4607C18.7836 15.2309 19.0134 15.0616 19.2795 14.9406C19.5456 14.8197 19.8359 14.7592 20.1504 14.7592C20.5979 14.7592 20.9849 14.8681 21.3236 15.0858C21.6622 15.3035 21.9283 15.618 22.1098 16.0292C22.2912 16.4404 22.3879 16.9363 22.3879 17.5048C22.3879 18.1216 22.2912 18.6417 22.0856 19.0529L22.0977 19.065Z"
        fill="currentColor" />
    <path
        d="M27.8426 20.7948C27.7459 20.7223 27.6128 20.686 27.4314 20.686H25.8953C25.8953 20.686 25.9558 20.6134 25.98 20.5771C26.1009 20.432 26.3066 20.2385 26.621 19.9845C26.9355 19.7305 27.1653 19.537 27.2984 19.416C27.4435 19.2951 27.5765 19.1136 27.7096 18.8959C27.8426 18.6782 27.9152 18.4242 27.9152 18.146C27.9152 17.9767 27.8789 17.8074 27.8184 17.6381C27.758 17.4687 27.6612 17.3357 27.5403 17.2147C27.4193 17.0938 27.2863 16.997 27.129 16.9244C26.8992 16.8156 26.6089 16.7672 26.2824 16.7672C26.0042 16.7672 25.7623 16.8035 25.5567 16.8882C25.3511 16.9728 25.1817 17.0817 25.0487 17.2147C24.9156 17.3478 24.8068 17.505 24.7463 17.6622C24.6737 17.8316 24.6495 17.9888 24.6495 18.146C24.6495 18.2791 24.6858 18.3879 24.7705 18.4726C24.8552 18.5573 24.9519 18.5936 25.0729 18.5936C25.2059 18.5936 25.3148 18.5452 25.3994 18.4605C25.472 18.3758 25.5204 18.267 25.5809 18.1219C25.6413 17.9404 25.6655 17.892 25.6776 17.88C25.8228 17.6501 26.0163 17.5413 26.2824 17.5413C26.4033 17.5413 26.5122 17.5655 26.621 17.626C26.7178 17.6743 26.8025 17.759 26.8629 17.8558C26.9234 17.9525 26.9476 18.0614 26.9476 18.1823C26.9476 18.2912 26.9234 18.4121 26.8629 18.5331C26.8025 18.654 26.7178 18.775 26.6089 18.8959C26.5001 19.0169 26.3549 19.1378 26.1856 19.2588C26.0889 19.3314 25.9195 19.4644 25.6897 19.67C25.4599 19.8756 25.2059 20.1296 24.9277 20.4199C24.8552 20.4925 24.7947 20.6013 24.7342 20.7344C24.6737 20.8674 24.6375 20.9763 24.6375 21.0609C24.6375 21.194 24.6858 21.3149 24.7826 21.4117C24.8794 21.5085 25.0245 21.5568 25.1938 21.5568H27.5161C27.6733 21.5568 27.7943 21.5085 27.8668 21.4359C27.9515 21.3512 27.9878 21.2545 27.9878 21.1335C27.9878 21.0005 27.9394 20.8916 27.8305 20.8069L27.8426 20.7948Z"
        fill="currentColor" />
    <path
        d="M2.76976 17.8677L0.181425 20.4439C0.0604752 20.5649 0 20.7342 0 20.9035C0 21.0729 0.0725702 21.2422 0.19352 21.3631C0.314471 21.4841 0.483801 21.5567 0.653132 21.5567C0.822462 21.5567 0.991793 21.4962 1.11274 21.3752L3.68898 18.7869C3.51965 18.6539 3.36242 18.5087 3.20518 18.3515C3.04795 18.1942 2.90281 18.0249 2.76976 17.8677Z"
        fill="currentColor" />
    <path
        d="M14.0908 15.5335C13.9456 15.34 13.8005 15.1827 13.6312 15.0618C13.353 14.8682 13.0143 14.7715 12.6031 14.7715C11.9621 14.7715 11.442 15.0134 11.0549 15.5093C10.6679 16.0052 10.4744 16.6946 10.4744 17.6017C10.4744 18.2065 10.559 18.7145 10.7284 19.1136C10.7767 19.2345 10.8493 19.3313 10.9098 19.4281C11.442 19.1378 11.95 18.787 12.3854 18.3516C13.0748 17.6622 13.6312 16.6462 14.0787 15.5335H14.0908Z"
        fill="currentColor" />
    <path
        d="M8.98671 18.6419C8.91414 18.3033 8.87785 17.9404 8.87785 17.5534C8.87785 16.9244 8.97461 16.3681 9.15604 15.8722C9.33746 15.3763 9.60355 14.9529 9.94221 14.6022C10.2809 14.2514 10.68 13.9853 11.1396 13.8039C11.5992 13.6225 12.083 13.5257 12.591 13.5257C13.22 13.5257 13.7763 13.6467 14.2722 13.9007C14.3932 13.9611 14.4779 14.0337 14.5867 14.1063C15.3124 11.6631 15.6269 9.06266 15.7236 7.98621C15.7478 7.69593 15.7236 7.40565 15.6148 7.13956C15.518 6.86137 15.3608 6.61947 15.1552 6.41386C14.9496 6.20824 14.7077 6.05101 14.4295 5.95425C14.1513 5.85749 13.861 5.8212 13.5828 5.84539C11.7565 6.02682 5.6001 6.7888 3.21738 9.15942C2.08044 10.2964 1.40312 11.8203 1.33055 13.429C1.25798 15.0376 1.76597 16.622 2.78196 17.8678L10.0148 10.6108C10.1357 10.4899 10.3051 10.4294 10.4744 10.4294C10.6437 10.4294 10.8131 10.502 10.934 10.6229C11.055 10.7439 11.1275 10.9132 11.1275 11.0825C11.1275 11.2519 11.0671 11.4212 10.9461 11.5421L3.68908 18.7871C4.93487 19.803 6.51932 20.3231 8.12796 20.2385C8.62386 20.2143 9.09556 20.1175 9.55517 19.9845C9.47051 19.8514 9.37375 19.7426 9.31327 19.6095C9.16813 19.3071 9.05928 18.9806 8.98671 18.6419Z"
        fill="currentColor" />
</svg>