<svg width="25" height="25" viewBox="0 0 25 25" fill="none" xmlns="http://www.w3.org/2000/svg">
<path fill-rule="evenodd" clip-rule="evenodd" d="M16.6624 7.0219C15.7484 5.40509 14.1886 4.51111 12.5 4.51111C9.83277 4.51111 7.5 6.71768 7.5 10.4962C7.5 13.6127 6.79422 15.5734 5.45849 17.0261C5.24843 17.2546 4.79607 17.6742 4.5 17.9454V18.5069H20.5V17.945C20.2016 17.6706 19.7506 17.2506 19.5402 17.0208C19.1957 16.6447 18.8931 16.2349 18.6337 15.7805L20.1209 14.2933C20.3559 14.8308 20.6554 15.2779 21.0154 15.6709C21.1823 15.8531 21.6363 16.2718 21.937 16.5491L21.9371 16.5492C22.0757 16.677 22.1817 16.7747 22.212 16.8055L22.5 17.0974V20.506H16.3743C16.1241 21.4904 15.5075 22.3525 14.5878 22.9135C13.3059 23.6955 11.6941 23.6955 10.4122 22.9135C9.37009 22.2779 8.79384 21.5676 8.58798 20.506H2.5V17.0974L2.78796 16.8055C2.82139 16.7718 2.93195 16.6701 3.07466 16.5389C3.3763 16.2615 3.8216 15.8521 3.98596 15.6733C4.96898 14.6042 5.5 13.129 5.5 10.4962C5.5 6.42711 7.73535 3.61713 10.6353 2.77538C10.7402 2.50483 10.9057 2.25332 11.1305 2.0422C11.9003 1.31927 13.0997 1.31927 13.8695 2.0422C14.0948 2.25378 14.2605 2.50593 14.3654 2.77717C15.8496 3.21042 17.161 4.16122 18.087 5.53139L16.6624 7.0219ZM10.6786 20.506C10.8199 20.7687 11.0607 20.9671 11.454 21.207C12.0963 21.5988 12.9037 21.5988 13.546 21.207C13.8434 21.0256 14.0758 20.7856 14.2367 20.506H10.6786ZM19.7929 7.79289L15.5 12.0858L13.2071 9.79289L11.7929 11.2071L15.5 14.9142L21.2071 9.20711L19.7929 7.79289Z" fill="white"/>
</svg>
