<svg width="32" height="32" viewBox="0 0 32 32" fill="none" xmlns="http://www.w3.org/2000/svg">
<g clip-path="url(#clip0_1_1373)">
<path d="M20.1213 21.3333C28.8813 21.2853 32 16.6453 32 12.6667C31.9992 11.6001 31.633 10.5659 30.9624 9.73648C30.2919 8.90702 29.3574 8.33229 28.3147 8.108C28.496 7.592 28.6533 7.11867 28.7587 6.76C28.9914 5.97993 29.0371 5.15599 28.8921 4.35496C28.7471 3.55392 28.4154 2.7983 27.924 2.14933C27.4285 1.47985 26.7824 0.936412 26.038 0.563012C25.2935 0.189612 24.4715 -0.00326227 23.6387 -1.28949e-06H8.36133C7.52846 -0.00326227 6.70652 0.189612 5.96204 0.563012C5.21756 0.936412 4.57145 1.47985 4.076 2.14933C3.58454 2.7983 3.25287 3.55392 3.10786 4.35496C2.96285 5.15599 3.00858 5.97993 3.24133 6.76C3.34667 7.11867 3.508 7.592 3.68533 8.108C2.64258 8.33229 1.70812 8.90702 1.03757 9.73648C0.367017 10.5659 0.00083504 11.6001 0 12.6667C0 16.6453 3.11867 21.2853 11.8787 21.3333C11.9565 21.7381 11.9972 22.1492 12 22.5613V26.6667C12.0229 27.0228 11.9696 27.3797 11.8437 27.7137C11.7178 28.0476 11.5222 28.3508 11.2698 28.6032C11.0175 28.8555 10.7142 29.0512 10.3803 29.1771C10.0464 29.303 9.68946 29.3563 9.33333 29.3333H8C7.64638 29.3333 7.30724 29.4738 7.05719 29.7239C6.80714 29.9739 6.66667 30.3131 6.66667 30.6667C6.66667 31.0203 6.80714 31.3594 7.05719 31.6095C7.30724 31.8595 7.64638 32 8 32H24C24.3536 32 24.6928 31.8595 24.9428 31.6095C25.1929 31.3594 25.3333 31.0203 25.3333 30.6667C25.3333 30.3131 25.1929 29.9739 24.9428 29.7239C24.6928 29.4738 24.3536 29.3333 24 29.3333H22.6773C22.3204 29.3574 21.9625 29.305 21.6275 29.1796C21.2925 29.0543 20.9881 28.8589 20.7346 28.6064C20.4812 28.354 20.2846 28.0504 20.1579 27.7159C20.0312 27.3814 19.9774 27.0237 20 26.6667V22.56C20.0029 22.1483 20.0435 21.7377 20.1213 21.3333ZM27.3333 10.6667C27.8638 10.6667 28.3725 10.8774 28.7475 11.2525C29.1226 11.6275 29.3333 12.1362 29.3333 12.6667C29.3333 15.3787 27.188 18.2667 21.2853 18.6267C21.5806 18.2237 21.9215 17.8564 22.3013 17.532C24.4267 15.6173 26.1206 13.2726 27.2707 10.6533C27.292 10.6547 27.3107 10.6667 27.3333 10.6667ZM2.66667 12.6667C2.66667 12.1362 2.87738 11.6275 3.25245 11.2525C3.62753 10.8774 4.13623 10.6667 4.66667 10.6667C4.68933 10.6667 4.708 10.6547 4.72933 10.6533C5.87941 13.2726 7.57331 15.6173 9.69866 17.532C10.0785 17.8564 10.4194 18.2237 10.7147 18.6267C4.812 18.2667 2.66667 15.3787 2.66667 12.6667ZM14.0173 29.3333C14.4581 28.5146 14.6817 27.5965 14.6667 26.6667V22.5613C14.6713 21.2198 14.3837 19.8933 13.824 18.6741C13.2643 17.455 12.4457 16.3723 11.4253 15.5013C8.71404 12.9101 6.76752 9.62313 5.79867 6C5.68481 5.61757 5.66291 5.21365 5.73474 4.82115C5.80657 4.42865 5.97009 4.05866 6.212 3.74133C6.46072 3.40603 6.78491 3.13402 7.15832 2.94731C7.53173 2.76061 7.94386 2.66447 8.36133 2.66667H23.6387C24.0566 2.66508 24.469 2.76205 24.8425 2.94969C25.2159 3.13734 25.5398 3.41038 25.788 3.74667C26.0299 4.064 26.1934 4.43398 26.2653 4.82648C26.3371 5.21898 26.3152 5.6229 26.2013 6.00533C25.2316 9.62655 23.2851 12.9115 20.5747 15.5013C19.5543 16.372 18.7358 17.4545 18.176 18.6734C17.6163 19.8924 17.3287 21.2187 17.3333 22.56V26.6667C17.3183 27.5965 17.5419 28.5146 17.9827 29.3333H14.0173Z" fill="currentColor"/>
<path d="M16.8344 5.5C17.2411 5.5004 17.6311 5.66214 17.9187 5.94974C18.2063 6.23733 18.368 6.62728 18.3684 7.034C18.3684 7.16661 18.4211 7.29379 18.5149 7.38755C18.6086 7.48132 18.7358 7.534 18.8684 7.534C19.001 7.534 19.1282 7.48132 19.222 7.38755C19.3157 7.29379 19.3684 7.16661 19.3684 7.034V7C19.3684 6.9905 19.3684 6.982 19.3684 6.9725C19.3517 6.31136 19.0775 5.68289 18.6041 5.22103C18.1308 4.75916 17.4958 4.50044 16.8344 4.5H16.3684V4C16.3684 3.86739 16.3157 3.74021 16.222 3.64645C16.1282 3.55268 16.001 3.5 15.8684 3.5C15.7358 3.5 15.6086 3.55268 15.5149 3.64645C15.4211 3.74021 15.3684 3.86739 15.3684 4V4.5H14.9024C14.3011 4.50064 13.7196 4.71512 13.2618 5.10509C12.8041 5.49506 12.4999 6.03511 12.4037 6.62871C12.3076 7.22231 12.4256 7.83077 12.7368 8.34533C13.048 8.85989 13.532 9.24701 14.1024 9.4375L15.3684 9.86V13.5H14.9024C14.4957 13.4996 14.1057 13.3379 13.8181 13.0503C13.5306 12.7627 13.3688 12.3727 13.3684 11.966C13.3684 11.8334 13.3157 11.7062 13.222 11.6124C13.1282 11.5187 13.001 11.466 12.8684 11.466C12.7358 11.466 12.6086 11.5187 12.5149 11.6124C12.4211 11.7062 12.3684 11.8334 12.3684 11.966V12C12.3684 12.0095 12.3684 12.018 12.3684 12.0275C12.3851 12.6886 12.6593 13.3171 13.1327 13.779C13.606 14.2408 14.2411 14.4996 14.9024 14.5H15.3684V15C15.3684 15.1326 15.4211 15.2598 15.5149 15.3536C15.6086 15.4473 15.7358 15.5 15.8684 15.5C16.001 15.5 16.1282 15.4473 16.222 15.3536C16.3157 15.2598 16.3684 15.1326 16.3684 15V14.5H16.8344C17.4358 14.4994 18.0173 14.2849 18.475 13.8949C18.9328 13.5049 19.2369 12.9649 19.3331 12.3713C19.4293 11.7777 19.3112 11.1692 19 10.6547C18.6888 10.1401 18.2048 9.75299 17.6344 9.5625L16.3684 9.14V5.5H16.8344ZM17.3194 10.5105C17.6651 10.6256 17.9586 10.8599 18.1473 11.1716C18.336 11.4833 18.4075 11.852 18.3492 12.2117C18.2908 12.5713 18.1064 12.8985 17.8288 13.1345C17.5513 13.3706 17.1988 13.5001 16.8344 13.5H16.3684V10.1935L17.3194 10.5105ZM15.3684 8.8065L14.4184 8.4895C14.0728 8.37446 13.7794 8.14019 13.5907 7.82859C13.402 7.517 13.3303 7.14843 13.3886 6.78884C13.4468 6.42925 13.6311 6.10211 13.9084 5.86597C14.1858 5.62983 14.5381 5.5001 14.9024 5.5H15.3684V8.8065Z" fill="currentColor" stroke="currentColor"/>
</g>
<defs>
<clipPath id="clip0_1_1373">
<rect width="32" height="32" fill="currentColor"/>
</clipPath>
</defs>
</svg>
