<svg width="16" height="17" viewBox="0 0 16 17" fill="none" xmlns="http://www.w3.org/2000/svg">
<path fill-rule="evenodd" clip-rule="evenodd" d="M6.66659 5.16665H4.12863C5.03561 3.88578 6.40417 3.16665 7.99992 3.16665C10.9454 3.16665 13.3333 5.55446 13.3333 8.49998H14.6666C14.6666 4.81808 11.6818 1.83331 7.99992 1.83331C6.13043 1.83331 4.48332 2.62165 3.33325 4.01355V1.83331H1.99992V6.49998H6.66659V5.16665ZM9.33325 11.8333H11.8712C10.9642 13.1142 9.59567 13.8333 7.99992 13.8333C5.0544 13.8333 2.66659 11.4455 2.66659 8.49998H1.33325C1.33325 12.1819 4.31802 15.1666 7.99992 15.1666C9.86941 15.1666 11.5165 14.3783 12.6666 12.9864V15.1666H13.9999V10.5H9.33325V11.8333Z" fill="white"/>
</svg>
