<svg width="56" height="56" viewBox="0 0 56 56" fill="none" xmlns="http://www.w3.org/2000/svg">
<path fill-rule="evenodd" clip-rule="evenodd" d="M28 53.6667C13.8247 53.6667 2.33337 42.1754 2.33337 28C2.33337 13.8247 13.8247 2.33337 28 2.33337C42.1754 2.33337 53.6667 13.8247 53.6667 28C53.6667 42.1754 42.1754 53.6667 28 53.6667ZM28 49C39.598 49 49 39.598 49 28C49 16.4021 39.598 7.00004 28 7.00004C16.4021 7.00004 7.00004 16.4021 7.00004 28C7.00004 39.598 16.4021 49 28 49ZM39.458 36.0463L35.6409 33.3616C33.9017 35.8344 31.0789 37.3334 28 37.3334C24.9212 37.3334 22.0983 35.8344 20.3592 33.3616L16.5421 36.0463C19.1461 39.7488 23.3857 42 28 42C32.6143 42 36.854 39.7488 39.458 36.0463ZM32.6667 25.6667V21H37.3334V25.6667H32.6667ZM18.6667 21V25.6667H23.3334V21H18.6667Z" fill="currentColor"/>
</svg>
