<svg width="14" height="15" viewBox="0 0 14 15" fill="none" xmlns="http://www.w3.org/2000/svg">
<path fill-rule="evenodd" clip-rule="evenodd" d="M7.58333 4.58337V2.28208C10.2083 2.57226 12.25 4.79772 12.25 7.50004C12.25 10.3995 9.89949 12.75 7 12.75C4.1005 12.75 1.74999 10.3995 1.74999 7.50004C1.74999 6.08474 2.31184 4.75993 3.29466 3.78077L2.47124 2.95427C1.27087 4.15018 0.583328 5.77138 0.583328 7.50004C0.583328 11.0439 3.45617 13.9167 7 13.9167C10.5438 13.9167 13.4167 11.0439 13.4167 7.50004C13.4167 3.95621 10.5438 1.08337 7 1.08337H6.41666V4.58337H7.58333ZM7 6.33337C6.89549 6.33337 6.79419 6.34712 6.6978 6.37289L4.49581 4.1709L3.67085 4.99585L5.87285 7.19785C5.84707 7.29423 5.83333 7.39553 5.83333 7.50004C5.83333 8.14437 6.35566 8.66671 7 8.66671C7.64433 8.66671 8.16666 8.14437 8.16666 7.50004C8.16666 6.85571 7.64433 6.33337 7 6.33337Z" fill="white"/>
</svg>
