<svg width="15" height="16" viewBox="0 0 15 16" fill="none" xmlns="http://www.w3.org/2000/svg">
    <path fill-rule="evenodd" clip-rule="evenodd"
        d="M5.5026 0.666016H9.5026C10.239 0.666016 10.8359 1.26297 10.8359 1.99935V2.66602H12.8359C13.5723 2.66602 14.1693 3.26297 14.1693 3.99935V5.33268C14.1693 6.06906 13.5723 6.66602 12.8359 6.66602H12.7825L12.1693 13.9993C12.1693 14.7357 11.5723 15.3327 10.8359 15.3327H4.16927C3.43289 15.3327 2.83594 14.7357 2.83824 14.0547L2.22252 6.66602H2.16927C1.43289 6.66602 0.835938 6.06906 0.835938 5.33268V3.99935C0.835938 3.26297 1.43289 2.66602 2.16927 2.66602H4.16927V1.99935C4.16927 1.26297 4.76622 0.666016 5.5026 0.666016ZM2.16927 3.99935L4.16927 3.99935H10.8359L12.8359 3.99935V5.33268H2.16927V3.99935ZM3.56026 6.66602H11.4447L10.8382 13.944L10.8359 13.9993H4.16927L3.56026 6.66602ZM9.5026 1.99935V2.66602H5.5026V1.99935H9.5026ZM8.44541 9.99935L9.97401 11.5279L9.0312 12.4708L7.5026 10.9422L5.97401 12.4708L5.0312 11.5279L6.55979 9.99935L5.0312 8.47075L5.97401 7.52794L7.5026 9.05654L9.0312 7.52794L9.97401 8.47075L8.44541 9.99935Z"
        fill="currentColor" />
</svg>