<svg width="22" height="16" viewBox="0 0 22 16" fill="none" xmlns="http://www.w3.org/2000/svg">
    <path fill-rule="evenodd" clip-rule="evenodd"
        d="M15.382 2.5L17.2243 6.18474L20 8.03518V11.5H18.8293C18.4175 10.3348 17.3062 9.5 16 9.5C14.6938 9.5 13.5825 10.3348 13.1707 11.5H8.82929C8.41746 10.3348 7.30622 9.5 6 9.5C4.69378 9.5 3.58254 10.3348 3.17071 11.5H2V2.5H15.382ZM20 13.5H18.8293C18.4175 14.6652 17.3062 15.5 16 15.5C14.6938 15.5 13.5825 14.6652 13.1707 13.5H8.82929C8.41746 14.6652 7.30622 15.5 6 15.5C4.69378 15.5 3.58254 14.6652 3.17071 13.5H2C0.89543 13.5 0 12.6046 0 11.5V2.5C0 1.39543 0.89543 0.5 2 0.5H15.382C16.1395 0.5 16.832 0.928005 17.1708 1.60557L18.7757 4.81526L22 6.96482V11.5C22 12.6046 21.1046 13.5 20 13.5ZM7 12.5C7 13.0523 6.55228 13.5 6 13.5C5.44771 13.5 5 13.0523 5 12.5C5 11.9477 5.44771 11.5 6 11.5C6.55228 11.5 7 11.9477 7 12.5ZM17 12.5C17 13.0523 16.5523 13.5 16 13.5C15.4477 13.5 15 13.0523 15 12.5C15 11.9477 15.4477 11.5 16 11.5C16.5523 11.5 17 11.9477 17 12.5Z"
        fill="currentColor" />
</svg>