<svg width="16" height="16" viewBox="0 0 16 16" fill="none" xmlns="http://www.w3.org/2000/svg">
<path fill-rule="evenodd" clip-rule="evenodd" d="M10.2761 0.666504H3.33333C2.59695 0.666504 2 1.26346 2 1.99984V13.9998C2 14.7362 2.59695 15.3332 3.33333 15.3332H12.6667C13.403 15.3332 14 14.7362 14 13.9998V4.39036L10.2761 0.666504ZM3.33333 1.99984H8.66667V4.6665C8.66667 5.40288 9.26362 5.99984 10 5.99984H12.6667V13.9998H3.33333V1.99984ZM10 4.6665V2.27598L12.3905 4.6665H10ZM8.66667 11.9998V8.94265L9.5286 9.80457L10.4714 8.86177L8 6.39036L5.5286 8.86177L6.4714 9.80457L7.33333 8.94265V11.9998H8.66667Z" fill="currentColor"/>
</svg>
