<svg width="40" height="41" viewBox="0 0 40 41" fill="none" xmlns="http://www.w3.org/2000/svg">
    <rect y="0.291016" width="40" height="40" rx="20" fill="#E8E8E8" />
    <g clip-path="url(#clip0_5584_595167)">
        <path fill-rule="evenodd" clip-rule="evenodd"
            d="M27.2954 12.9661C25.3659 11.0342 22.7997 9.96988 20.0659 9.96875C14.4325 9.96875 9.84776 14.5534 9.84549 20.1882C9.84474 21.9895 10.3153 23.7479 11.2097 25.2978L9.75977 30.5938L15.1777 29.1725C16.6706 29.9869 18.3513 30.416 20.0617 30.4165H20.066C25.6987 30.4165 30.284 25.8315 30.2861 20.1964C30.2872 17.4655 29.2251 14.8978 27.2954 12.9661ZM20.0659 28.6905H20.0623C18.5381 28.6899 17.0432 28.2802 15.7388 27.5064L15.4288 27.3223L12.2136 28.1657L13.0718 25.031L12.8698 24.7096C12.0194 23.3571 11.5704 21.7939 11.5711 20.1889C11.5729 15.5053 15.3837 11.6949 20.0693 11.6949C22.3382 11.6956 24.4711 12.5804 26.0749 14.186C27.6786 15.7917 28.5613 17.9259 28.5606 20.1958C28.5586 24.8797 24.748 28.6905 20.0659 28.6905V28.6905ZM24.7254 22.3284C24.4701 22.2005 23.2145 21.5829 22.9803 21.4976C22.7465 21.4123 22.576 21.3699 22.4059 21.6255C22.2356 21.881 21.7463 22.4563 21.5972 22.6266C21.4482 22.7971 21.2994 22.8185 21.044 22.6906C20.7886 22.5628 19.9658 22.293 18.9903 21.423C18.2312 20.7459 17.7187 19.9096 17.5697 19.6541C17.4209 19.3983 17.5684 19.2734 17.6817 19.1329C17.9582 18.7896 18.235 18.4297 18.3201 18.2594C18.4053 18.089 18.3626 17.9398 18.2987 17.812C18.235 17.6842 17.7243 16.4273 17.5115 15.9158C17.3041 15.4181 17.0937 15.4853 16.9369 15.4775C16.7881 15.4701 16.6177 15.4685 16.4474 15.4685C16.2772 15.4685 16.0005 15.5324 15.7664 15.7882C15.5324 16.0438 14.8727 16.6616 14.8727 17.9185C14.8727 19.1755 15.7878 20.3898 15.9154 20.5602C16.0431 20.7307 17.7162 23.31 20.2778 24.4161C20.8871 24.6794 21.3627 24.8364 21.7337 24.9541C22.3455 25.1485 22.902 25.121 23.3421 25.0553C23.8328 24.9819 24.8529 24.4375 25.0659 23.841C25.2786 23.2445 25.2786 22.7332 25.2147 22.6266C25.151 22.5201 24.9807 22.4563 24.7254 22.3284V22.3284Z"
            fill="#67A22D" />
    </g>
    <defs>
        <clipPath id="clip0_5584_595167">
            <rect width="22" height="22" fill="white" transform="translate(9 9.29102)" />
        </clipPath>
    </defs>
</svg>