<svg width="25" height="25" viewBox="0 0 25 25" fill="none" xmlns="http://www.w3.org/2000/svg">
<path fill-rule="evenodd" clip-rule="evenodd" d="M6.8732 3.4982L5.45898 2.08398L1.95898 5.58398L3.3732 6.9982L6.8732 3.4982ZM19.8732 2.08398L23.3732 5.58398L21.959 6.9982L18.459 3.4982L19.8732 2.08398ZM12.6661 22.7911C7.14324 22.7911 2.66609 18.3139 2.66609 12.7911C2.66609 7.26824 7.14324 2.79109 12.6661 2.79109C18.1889 2.79109 22.6661 7.26824 22.6661 12.7911C22.6661 18.3139 18.1889 22.7911 12.6661 22.7911ZM12.6661 20.7911C17.0844 20.7911 20.6661 17.2094 20.6661 12.7911C20.6661 8.37281 17.0844 4.79109 12.6661 4.79109C8.24781 4.79109 4.66609 8.37281 4.66609 12.7911C4.66609 17.2094 8.24781 20.7911 12.6661 20.7911ZM17.6661 11.7911H13.6661V6.79109H11.6661V13.7911H17.6661V11.7911Z" fill="#303030"/>
</svg>
