<svg width="16" height="16" viewBox="0 0 16 16" fill="none" xmlns="http://www.w3.org/2000/svg">
<path fill-rule="evenodd" clip-rule="evenodd" d="M0.666748 7.99935C0.666748 12.0494 3.94999 15.3327 8.00008 15.3327C12.0502 15.3327 15.3334 12.0494 15.3334 7.99935C15.3334 3.94926 12.0502 0.666016 8.00008 0.666016C3.94999 0.666016 0.666748 3.94926 0.666748 7.99935ZM14.0001 7.99935C14.0001 11.3131 11.3138 13.9993 8.00008 13.9993C4.68637 13.9993 2.00008 11.3131 2.00008 7.99935C2.00008 4.68564 4.68637 1.99935 8.00008 1.99935C11.3138 1.99935 14.0001 4.68564 14.0001 7.99935ZM8.0003 11.9982C8.36861 11.9982 8.66719 11.6998 8.66719 11.3316C8.66719 10.9634 8.36861 10.6649 8.0003 10.6649C7.63199 10.6649 7.33342 10.9634 7.33342 11.3316C7.33342 11.6998 7.63199 11.9982 8.0003 11.9982ZM8.66916 3.99825H7.33538V9.33158H8.66916V3.99825Z" fill="#FCC836"/>
</svg>
