<svg width="16" height="16" viewBox="0 0 16 16" fill="none" xmlns="http://www.w3.org/2000/svg">
<path fill-rule="evenodd" clip-rule="evenodd" d="M13.3334 0.666656V5.99999H13.3334L13.3334 6.66667L13.3334 7.33332L13.3333 8.66282C13.3392 9.67764 12.773 9.99887 11.1943 10.4719C10.2689 10.7492 10 10.9015 10 11C10 11.5117 10.0469 11.8553 10.1468 12.255C10.1275 12.1777 10.2413 12.618 10.2665 12.7353C10.3107 12.9416 10.3334 13.1294 10.3334 13.3333C10.3334 14.4406 9.2918 15.3333 8.00002 15.3333C6.70824 15.3333 5.66669 14.4406 5.66669 13.3333C5.66669 13.1294 5.68935 12.9416 5.73357 12.7353C5.75871 12.618 5.87258 12.1777 5.85326 12.255C5.95316 11.8553 6.00002 11.5117 6.00002 11C6.00002 10.9009 5.73183 10.7489 4.80845 10.4719C3.23183 9.99889 2.66669 9.67864 2.66669 8.66666V7.33332V5.99999V0.666656H13.3334ZM8.61764 7.33332H12L12 8.66666C12.0006 8.76696 11.7337 8.91839 10.8115 9.19471L10.8087 9.19557C9.23289 9.66776 8.66669 9.98845 8.66669 11C8.66669 11.6271 8.72816 12.078 8.85326 12.5783C8.84133 12.5306 8.94447 12.9295 8.96274 13.0147C8.98842 13.1345 9.00002 13.2306 9.00002 13.3333C9.00002 13.6547 8.59713 14 8.00002 14C7.40292 14 7.00002 13.6547 7.00002 13.3333C7.00002 13.2306 7.01162 13.1345 7.0373 13.0147C7.05557 12.9295 7.15871 12.5306 7.14678 12.5783C7.27188 12.078 7.33335 11.6271 7.33335 11C7.33335 9.98801 6.76821 9.66776 5.19159 9.19477C4.26821 8.91776 4.00002 8.76579 4.00002 8.66666V7.33332H8.61764ZM4.00002 5.99999V1.99999H5.33335V4.66666H6.66669V1.99999H8.00002V3.99999H9.33335V1.99999H12V5.99999H4.00002Z" fill="currentColor"/>
</svg>
