<svg width="28" height="28" viewBox="0 0 28 28" fill="none" xmlns="http://www.w3.org/2000/svg">
<path d="M14.5745 14.1062C14.4294 14.59 14.26 15.0738 14.0786 15.5334C14.1754 15.6544 14.26 15.7753 14.3447 15.9205C14.4657 16.1503 14.5745 16.3196 14.6834 16.4163C14.7801 16.5131 14.9374 16.5615 15.1309 16.5615C15.3123 16.5615 15.4695 16.4889 15.5905 16.3559C15.7114 16.2228 15.784 16.0535 15.784 15.8842C15.784 15.5576 15.651 15.2068 15.397 14.8319C15.2035 14.5537 14.9132 14.3118 14.5745 14.1062Z" fill="#7B7B7B"/>
<path d="M15.131 18.2912C14.9133 18.2912 14.7561 18.3517 14.6593 18.4847C14.5626 18.6178 14.4779 18.775 14.4053 18.9806C14.2481 19.416 14.0062 19.7426 13.7038 19.9724C13.3894 20.2022 13.0144 20.3111 12.5548 20.3111C12.1436 20.3111 11.7686 20.2143 11.4662 20.0087C11.2485 19.8756 11.0792 19.67 10.9341 19.4281C10.4986 19.67 10.0511 19.8515 9.57942 19.9966C9.67618 20.1417 9.74875 20.299 9.85761 20.432C10.0874 20.6981 10.3414 20.9158 10.6075 21.0851C10.8857 21.2545 11.1881 21.3754 11.5267 21.448C11.8654 21.5206 12.2403 21.5689 12.6395 21.5689C13.1837 21.5689 13.6554 21.4843 14.0546 21.3149C14.4658 21.1456 14.7924 20.9158 15.0585 20.6376C15.3246 20.3594 15.506 20.0813 15.639 19.791C15.76 19.5007 15.8205 19.2346 15.8205 18.9927C15.8205 18.7992 15.7479 18.6299 15.6148 18.5089C15.4818 18.3759 15.3246 18.3154 15.131 18.3154V18.2912Z" fill="#7B7B7B"/>
<path d="M22.2306 14.0094C21.6501 13.6829 20.9607 13.5135 20.1503 13.5135C19.5576 13.5135 19.0254 13.6103 18.5658 13.7917C18.0941 13.9732 17.7071 14.2393 17.3805 14.59C17.054 14.9408 16.8121 15.3641 16.6306 15.86C16.4613 16.3559 16.3766 16.9002 16.3766 17.5049C16.3766 18.1097 16.4613 18.6297 16.6185 19.1377C16.7879 19.6336 17.0298 20.069 17.3442 20.4198C17.6708 20.7827 18.0699 21.0487 18.5416 21.2544C19.0254 21.4479 19.5697 21.5446 20.1745 21.5446C20.7792 21.5446 21.3235 21.4479 21.8073 21.2544C22.279 21.0608 22.6781 20.7827 23.0047 20.4319C23.3313 20.069 23.5732 19.6457 23.7304 19.1498C23.8877 18.6539 23.9723 18.1097 23.9723 17.517C23.9723 16.7066 23.8272 15.993 23.5248 15.4004C23.2224 14.8077 22.787 14.336 22.2185 14.0094H22.2306ZM22.0976 19.0652C21.892 19.4885 21.6259 19.7909 21.2872 19.9965C20.9486 20.2021 20.5857 20.2989 20.1745 20.2989C19.86 20.2989 19.5697 20.2384 19.3036 20.1295C19.0375 20.0086 18.8077 19.8392 18.6021 19.5973C18.3965 19.3675 18.2393 19.0652 18.1304 18.7144C18.0216 18.3636 17.9611 17.9524 17.9611 17.517C17.9611 17.0816 18.0216 16.6824 18.1304 16.3317C18.2393 15.9809 18.3965 15.6907 18.59 15.4608C18.7835 15.231 19.0134 15.0617 19.2794 14.9408C19.5455 14.8198 19.8358 14.7593 20.1503 14.7593C20.5978 14.7593 20.9848 14.8682 21.3235 15.0859C21.6622 15.3036 21.9283 15.6181 22.1097 16.0293C22.2911 16.4405 22.3879 16.9364 22.3879 17.5049C22.3879 18.1217 22.2911 18.6418 22.0855 19.0531L22.0976 19.0652Z" fill="#7B7B7B"/>
<path d="M27.8426 20.7949C27.7459 20.7223 27.6128 20.6861 27.4314 20.6861H25.8953C25.8953 20.6861 25.9558 20.6135 25.98 20.5772C26.1009 20.4321 26.3065 20.2385 26.621 19.9845C26.9355 19.7305 27.1653 19.537 27.2983 19.4161C27.4435 19.2951 27.5765 19.1137 27.7096 18.896C27.8426 18.6783 27.9152 18.4243 27.9152 18.1461C27.9152 17.9768 27.8789 17.8074 27.8184 17.6381C27.758 17.4688 27.6612 17.3357 27.5402 17.2148C27.4193 17.0938 27.2862 16.9971 27.129 16.9245C26.8992 16.8157 26.6089 16.7673 26.2824 16.7673C26.0042 16.7673 25.7623 16.8036 25.5567 16.8882C25.351 16.9729 25.1817 17.0817 25.0487 17.2148C24.9156 17.3478 24.8068 17.5051 24.7463 17.6623C24.6737 17.8316 24.6495 17.9889 24.6495 18.1461C24.6495 18.2791 24.6858 18.388 24.7705 18.4727C24.8551 18.5573 24.9519 18.5936 25.0729 18.5936C25.2059 18.5936 25.3148 18.5452 25.3994 18.4606C25.472 18.3759 25.5204 18.2671 25.5808 18.1219C25.6413 17.9405 25.6655 17.8921 25.6776 17.88C25.8227 17.6502 26.0163 17.5414 26.2824 17.5414C26.4033 17.5414 26.5122 17.5655 26.621 17.626C26.7178 17.6744 26.8024 17.7591 26.8629 17.8558C26.9234 17.9526 26.9476 18.0614 26.9476 18.1824C26.9476 18.2912 26.9234 18.4122 26.8629 18.5331C26.8024 18.6541 26.7178 18.775 26.6089 18.896C26.5001 19.0169 26.3549 19.1379 26.1856 19.2588C26.0888 19.3314 25.9195 19.4645 25.6897 19.6701C25.4599 19.8757 25.2059 20.1297 24.9277 20.42C24.8551 20.4925 24.7947 20.6014 24.7342 20.7344C24.6737 20.8675 24.6374 20.9763 24.6374 21.061C24.6374 21.194 24.6858 21.315 24.7826 21.4118C24.8793 21.5085 25.0245 21.5569 25.1938 21.5569H27.5161C27.6733 21.5569 27.7942 21.5085 27.8668 21.4359C27.9515 21.3513 27.9878 21.2545 27.9878 21.1336C27.9878 21.0005 27.9394 20.8917 27.8305 20.807L27.8426 20.7949Z" fill="#7B7B7B"/>
<path d="M2.76976 17.8677L0.181425 20.444C0.0604752 20.5649 0 20.7343 0 20.9036C0 21.0729 0.0725702 21.2422 0.19352 21.3632C0.314471 21.4841 0.483801 21.5567 0.653132 21.5567C0.822462 21.5567 0.991793 21.4962 1.11274 21.3753L3.68898 18.787C3.51965 18.6539 3.36242 18.5088 3.20518 18.3515C3.04795 18.1943 2.90281 18.025 2.76976 17.8677Z" fill="#7B7B7B"/>
<path d="M14.0908 15.5335C13.9456 15.34 13.8005 15.1828 13.6312 15.0618C13.353 14.8683 13.0143 14.7715 12.6031 14.7715C11.9621 14.7715 11.442 15.0134 11.0549 15.5093C10.6679 16.0052 10.4744 16.6947 10.4744 17.6018C10.4744 18.2065 10.559 18.7145 10.7284 19.1137C10.7767 19.2346 10.8493 19.3314 10.9098 19.4281C11.442 19.1378 11.95 18.7871 12.3854 18.3517C13.0748 17.6623 13.6312 16.6463 14.0787 15.5335H14.0908Z" fill="#7B7B7B"/>
<path d="M8.98658 18.642C8.91401 18.3033 8.87773 17.9405 8.87773 17.5534C8.87773 16.9245 8.97449 16.3681 9.15592 15.8722C9.33734 15.3763 9.60343 14.953 9.94209 14.6022C10.2808 14.2515 10.6799 13.9854 11.1395 13.804C11.5991 13.6225 12.0829 13.5258 12.5909 13.5258C13.2198 13.5258 13.7762 13.6467 14.2721 13.9007C14.3931 13.9612 14.4777 14.0338 14.5866 14.1063C15.3123 11.6632 15.6268 9.06273 15.7235 7.98627C15.7477 7.69599 15.7235 7.40571 15.6147 7.13962C15.5179 6.86143 15.3607 6.61953 15.1551 6.41392C14.9494 6.2083 14.7075 6.05107 14.4293 5.95431C14.1512 5.85755 13.8609 5.82126 13.5827 5.84545C11.7563 6.02688 5.59998 6.78886 3.21725 9.15949C2.08032 10.2964 1.403 11.8204 1.33043 13.429C1.25786 15.0377 1.76585 16.6221 2.78183 17.8679L10.0147 10.6109C10.1356 10.4899 10.3049 10.4295 10.4743 10.4295C10.6436 10.4295 10.8129 10.502 10.9339 10.623C11.0548 10.7439 11.1274 10.9133 11.1274 11.0826C11.1274 11.2519 11.0669 11.4213 10.946 11.5422L3.68896 18.7871C4.93475 19.8031 6.5192 20.3232 8.12784 20.2385C8.62373 20.2143 9.09544 20.1176 9.55505 19.9845C9.47039 19.8515 9.37363 19.7426 9.31315 19.6096C9.16801 19.3072 9.05915 18.9806 8.98658 18.642Z" fill="#7B7B7B"/>
</svg>
