<svg width="24" height="24" viewBox="0 0 24 24" fill="none" xmlns="http://www.w3.org/2000/svg">
<path d="M12 2.07031C6.52001 2.07031 2.07001 6.52031 2.07001 12.0003C2.07001 17.4803 6.52001 21.9303 12 21.9303C17.48 21.9303 21.93 17.4803 21.93 12.0003C21.93 6.52031 17.48 2.07031 12 2.07031ZM12 20.0703C7.54001 20.0703 3.93001 16.4603 3.93001 12.0003C3.93001 7.54031 7.54001 3.93031 12 3.93031C16.46 3.93031 20.07 7.54031 20.07 12.0003C20.07 16.4603 16.46 20.0703 12 20.0703Z" fill="#303030"/>
<path d="M14.27 11.9698C13.8 11.7298 13.22 11.5098 12.54 11.3398C12 11.1898 11.57 11.0398 11.26 10.8898C10.98 10.7498 10.79 10.5898 10.68 10.4298C10.57 10.2698 10.52 10.0798 10.52 9.85977C10.52 9.61977 10.57 9.39977 10.66 9.24977L10.68 9.21977C10.79 9.03977 10.95 8.89977 11.18 8.79977C11.43 8.68977 11.75 8.63977 12.15 8.63977C12.42 8.63977 12.66 8.67977 12.87 8.76977C13.07 8.84977 13.24 8.95976 13.38 9.10977C13.52 9.25977 13.62 9.42977 13.69 9.62977C13.76 9.83977 13.8 10.0698 13.8 10.3298V10.5798H15.71V10.3298C15.71 9.81977 15.63 9.35977 15.46 8.96977C15.3 8.56977 15.06 8.22977 14.74 7.94977C14.43 7.66977 14.05 7.46977 13.61 7.32977C13.41 7.26977 13.2 7.21977 12.98 7.17977V5.75977H11.33V7.16977C10.96 7.21977 10.61 7.30977 10.3 7.43977C9.75999 7.65977 9.33999 7.97977 9.03999 8.38977C8.73999 8.80977 8.58999 9.30977 8.58999 9.87977C8.58999 10.4498 8.72999 10.8998 9.00999 11.2998C9.28999 11.6798 9.66999 11.9898 10.16 12.2398H10.18C10.66 12.4898 11.24 12.6998 11.9 12.8698C12.41 13.0098 12.82 13.1598 13.12 13.3198C13.4 13.4698 13.6 13.6298 13.71 13.7998C13.82 13.9598 13.87 14.1398 13.87 14.3398C13.87 14.5898 13.8 14.7898 13.67 14.9698C13.53 15.1498 13.32 15.2998 13.05 15.3998C12.76 15.5098 12.4 15.5598 11.97 15.5598C11.74 15.5598 11.5 15.5298 11.27 15.4798C11.05 15.4298 10.84 15.3398 10.66 15.2198C10.49 15.0998 10.34 14.9498 10.24 14.7598C10.14 14.5598 10.08 14.2998 10.08 13.9898V13.7398H8.14999V13.9898C8.14999 14.5598 8.25999 15.0498 8.48999 15.4598V15.4798C8.71999 15.8698 9.01999 16.1898 9.38999 16.4298C9.74999 16.6598 10.17 16.8298 10.62 16.9398C10.81 16.9798 11 17.0198 11.19 17.0398V18.2698H12.83V17.0398C13.23 16.9898 13.6 16.9098 13.93 16.7898C14.51 16.5798 14.96 16.2698 15.29 15.8598C15.62 15.4398 15.79 14.9298 15.79 14.3298C15.79 13.7798 15.65 13.3098 15.38 12.9298C15.12 12.5598 14.73 12.2398 14.24 11.9898L14.27 11.9698Z" fill="#303030"/>
</svg>
