<svg width="32" height="32" viewBox="0 0 32 32" fill="none" xmlns="http://www.w3.org/2000/svg">
<path d="M30.2719 4.60472C30.0741 4.55871 29.8663 4.61845 29.7235 4.76265L27.2943 7.211H26.1297L24.8477 5.8828V4.70199L27.2421 2.27195C27.3838 2.12822 27.4415 1.92153 27.3945 1.72493C27.3479 1.52854 27.2032 1.37016 27.0118 1.30561C26.4103 1.10282 25.7809 1.00006 25.1407 1.00006C23.2322 1.00006 21.4984 1.88995 20.3837 3.44154C19.3404 4.89403 19.0188 6.67404 19.4796 8.37761L15.1634 12.6936L7.97264 5.4866V4.07211C7.97264 3.86635 7.8646 3.67546 7.68813 3.56971L3.54501 1.0836C3.31429 0.945124 3.01926 0.981516 2.82928 1.17172L1.17212 2.82859C0.982147 3.0188 0.945753 3.31382 1.084 3.54454L3.56973 7.68753C3.67548 7.864 3.86615 7.9718 4.07192 7.97203L5.48599 7.97249L12.6775 15.1795L8.37777 19.4791C6.67415 19.0186 4.89317 19.3406 3.43995 20.3845C1.88923 21.4985 1 23.2318 1 25.1402C1 25.7802 1.10277 26.4099 1.30557 27.0111C1.37034 27.2036 1.53034 27.349 1.7281 27.3947C1.92608 27.4407 2.13369 27.381 2.27674 27.2368L4.70571 24.7887H5.87671L7.2109 26.1228V27.2938L4.7627 29.7227C4.6185 29.8657 4.55876 30.0733 4.60477 30.2713C4.65055 30.4691 4.79589 30.6291 4.98839 30.6938C5.58968 30.8966 6.21935 30.9994 6.85933 30.9994C8.7678 30.9994 10.5009 30.11 11.6152 28.5593C12.6591 27.1061 12.9812 25.3254 12.5207 23.6218L15.9739 20.1687L16.7649 21.0279L16.4019 21.3907C16.173 21.6196 16.173 21.9906 16.4019 22.2195C16.6308 22.4481 17.0016 22.4481 17.2307 22.2195L17.5594 21.8908L24.9814 29.9525C24.9869 29.9584 24.9926 29.9642 24.9983 29.9699C26.3716 31.3432 28.5967 31.3436 29.9707 29.9697C31.3408 28.5989 31.3408 26.3684 29.9707 24.9977C29.9647 24.9917 29.9586 24.986 29.9524 24.9803L21.8779 17.5727L22.2029 17.2477C22.4318 17.0191 22.4318 16.648 22.2029 16.4192C21.974 16.1903 21.6032 16.1903 21.3741 16.4192L21.0136 16.7799L20.1527 15.9898L23.6227 12.5199C24.1159 12.6518 24.625 12.7186 25.1407 12.7186C28.3717 12.7186 31 10.0901 31 6.85944C31 6.21925 30.8972 5.58983 30.6944 4.98833C30.6297 4.79584 30.4697 4.6505 30.2719 4.60472ZM6.14382 6.97273C6.03395 6.86264 5.88495 6.80656 5.7293 6.80656L4.40403 6.80611L2.32435 3.33397L3.33444 2.32391L6.80073 4.40399V5.72922C6.80073 5.8844 6.8623 6.03317 6.97194 6.14304L14.3348 13.5224L13.506 14.351L6.14382 6.97273ZM21.0484 18.4022L29.1503 25.8347C30.0554 26.7493 30.0526 28.2302 29.1419 29.1413C28.2291 30.0541 26.7514 30.0569 25.8349 29.1493L18.3887 21.0613L21.0484 18.4022ZM20.1841 17.6091L17.5942 20.1985L16.8032 19.3392L19.3232 16.819L20.1841 17.6091ZM25.1407 11.5467C24.6282 11.5467 24.1242 11.4645 23.6431 11.3025C23.4323 11.2318 23.1992 11.2862 23.0418 11.4435C20.1042 14.381 13.7745 20.7102 11.4437 23.0412C11.2863 23.1986 11.2316 23.4316 11.3027 23.6427C11.7898 25.089 11.5568 26.6316 10.6632 27.8756C9.77216 29.1159 8.38556 29.8275 6.85933 29.8275C6.68789 29.8275 6.51737 29.8181 6.34845 29.8001L8.20954 27.9534C8.32032 27.8436 8.38281 27.6939 8.38281 27.5376V25.88C8.38281 25.7246 8.32101 25.5756 8.21114 25.4657L6.53362 23.7882C6.42375 23.6784 6.27474 23.6166 6.11933 23.6166H4.46171C4.30538 23.6166 4.15569 23.6791 4.04559 23.7898L2.19915 25.6509C2.18084 25.482 2.17168 25.3115 2.17168 25.14C2.17168 23.6136 2.88307 22.2273 4.12365 21.3362C5.36743 20.4427 6.91037 20.2094 8.35694 20.6967C8.56775 20.7679 8.80076 20.7132 8.95824 20.5557C8.99051 20.5237 20.548 8.9663 20.5563 8.95806C20.7137 8.80059 20.7682 8.56781 20.6973 8.35678C20.21 6.91048 20.4425 5.36827 21.3354 4.12521C22.2272 2.88376 23.614 2.17193 25.1404 2.17193C25.3171 2.17193 25.4927 2.18177 25.6667 2.201L23.8442 4.0506C23.7362 4.16023 23.6758 4.30786 23.6758 4.46167V6.11923C23.6758 6.27121 23.7346 6.41701 23.8401 6.52618L25.4591 8.20366C25.5694 8.3181 25.7216 8.38265 25.8807 8.38265H27.5383C27.6944 8.38265 27.8441 8.32039 27.9542 8.20938L29.8006 6.34857C29.8189 6.51749 29.8281 6.688 29.8281 6.85944C29.8281 9.44397 27.7253 11.5467 25.1407 11.5467Z" fill="currentColor" stroke="currentColor"/>
</svg>
