<svg width="16" height="16" viewBox="0 0 16 16" fill="none" xmlns="http://www.w3.org/2000/svg">
<path fill-rule="evenodd" clip-rule="evenodd" d="M6.66659 1.33331H13.3333C14.1014 1.33331 14.6666 1.89846 14.6666 2.66665V9.33331C14.6666 10.1015 14.1014 10.6666 13.3333 10.6666H10.6666V13.3333C10.6666 14.1015 10.1014 14.6666 9.33325 14.6666H2.66659C1.8984 14.6666 1.33325 14.1015 1.33325 13.3333V6.66665C1.33325 5.89846 1.8984 5.33331 2.66659 5.33331H5.33325V2.66665C5.33325 1.89846 5.8984 1.33331 6.66659 1.33331ZM5.33325 6.66665H2.66659V13.3333H9.33325V10.6666H6.66659C5.8984 10.6666 5.33325 10.1015 5.33325 9.33331V6.66665ZM6.66658 2.66665V9.33331H13.3333V2.66665H6.66658Z" fill="#3F51B5"/>
</svg>
