<svg width="16" height="16" viewBox="0 0 16 16" fill="none" xmlns="http://www.w3.org/2000/svg">
    <g id="Outline / Commodity / corn">
        <g id="Layer 2">
            <path id="Vector"
                d="M12.6628 5.45617C12.43 5.45801 12.1976 5.47635 11.9675 5.51105C11.4088 3.23193 10.2882 0.666626 8.45355 0.666626C5.90223 0.666626 4.74373 6.28924 4.62025 7.0098C4.62025 7.01748 4.61202 7.05809 4.61093 7.06468C4.60434 7.0987 4.5983 7.13273 4.59775 7.14206C4.54288 7.45871 4.49239 7.82146 4.44848 8.19902H3.88213C3.73658 8.19902 3.33328 8.19902 3.33328 8.19902C3.33328 8.19902 3.33334 8.60227 3.33334 8.74781V10.3942C3.33334 11.7041 3.85371 12.9604 4.77997 13.8867C5.70624 14.8129 6.96252 15.3333 8.27245 15.3333C9.58238 15.3333 10.8387 14.8129 11.7649 13.8867C12.6912 12.9604 13.2116 11.7041 13.2116 10.3942V6.00496C13.2116 5.85942 13.2116 5.45617 13.2116 5.45617C13.2116 5.45617 12.8083 5.45617 12.6628 5.45617ZM8.45355 1.7143C8.95405 1.7143 9.55827 1.90605 10.1071 3.26101H8.82124C8.82124 3.26101 8.82124 3.61198 8.82124 3.75752C8.82124 3.90307 8.82124 4.35859 8.82124 4.35859H10.4676C10.4786 4.35859 10.4879 4.35311 10.4994 4.35201C10.6427 4.79872 10.7793 5.27727 10.9044 5.78545C10.1203 6.08565 9.4254 6.58031 8.88502 7.22294C8.34463 7.86556 7.97653 8.63504 7.81531 9.45905C7.22133 8.80564 6.41993 8.37741 5.54661 8.24677C5.58667 7.92134 5.63277 7.60578 5.67997 7.3259C5.67997 7.31767 5.68875 7.27651 5.6893 7.26773C5.69533 7.2359 5.70082 7.20407 5.70137 7.19529C5.73814 6.98291 5.77985 6.76833 5.82375 6.55375H7.72366C7.86921 6.55375 7.71404 6.55375 7.71404 6.55375C7.71404 6.55375 7.71404 6.14551 7.71404 5.99996C7.71404 5.85441 7.71404 5.45617 7.71404 5.45617H6.08058C6.68809 3.14028 7.65067 1.7143 8.45355 1.7143ZM4.43092 10.3953V9.2977H4.97971C5.70719 9.29857 6.40461 9.58795 6.91901 10.1023C7.43342 10.6167 7.72279 11.3142 7.72366 12.0416V14.1978C6.80983 14.0647 5.97438 13.6073 5.36986 12.9092C4.76533 12.211 4.43207 11.3188 4.43092 10.3953ZM12.114 10.3953C12.1128 11.3188 11.7796 12.211 11.175 12.9092C10.5705 13.6073 9.73507 14.0647 8.82124 14.1978V10.3953C8.82239 9.4718 9.15565 8.57954 9.76017 7.88141C10.3647 7.18329 11.2001 6.72589 12.114 6.59272V10.3953Z"
                fill="currentColor" />
        </g>
    </g>
</svg>