<svg width="32" height="32" viewBox="0 0 32 32" fill="currentColor" xmlns="http://www.w3.org/2000/svg">
<path d="M18.576 5.33333C19.6606 5.33439 20.7004 5.76571 21.4674 6.53263C22.2343 7.29955 22.6656 8.33941 22.6667 9.424C22.6667 9.77762 22.8071 10.1168 23.0572 10.3668C23.3072 10.6169 23.6464 10.7573 24 10.7573C24.3536 10.7573 24.6928 10.6169 24.9428 10.3668C25.1929 10.1168 25.3333 9.77762 25.3333 9.424V9.33333C25.3333 9.308 25.3333 9.28533 25.3333 9.26C25.2888 7.49697 24.5575 5.82104 23.2952 4.58941C22.033 3.35777 20.3396 2.66784 18.576 2.66667H17.3333V1.33333C17.3333 0.979711 17.1929 0.640573 16.9428 0.390524C16.6928 0.140476 16.3536 0 16 0C15.6464 0 15.3072 0.140476 15.0572 0.390524C14.8071 0.640573 14.6667 0.979711 14.6667 1.33333V2.66667H13.424C11.8204 2.66838 10.2697 3.24031 9.04905 4.28024C7.82839 5.32016 7.01734 6.7603 6.76086 8.34323C6.50439 9.92616 6.8192 11.5487 7.64905 12.9209C8.47889 14.293 9.76967 15.3254 11.2907 15.8333L14.6667 16.96V26.6667H13.424C12.3394 26.6656 11.2995 26.2343 10.5326 25.4674C9.7657 24.7004 9.33438 23.6606 9.33332 22.576C9.33332 22.2224 9.19285 21.8832 8.9428 21.6332C8.69275 21.3831 8.35361 21.2427 7.99999 21.2427C7.64637 21.2427 7.30723 21.3831 7.05718 21.6332C6.80713 21.8832 6.66666 22.2224 6.66666 22.576V22.6667C6.66666 22.692 6.66666 22.7147 6.66666 22.74C6.71115 24.503 7.44247 26.179 8.70474 27.4106C9.96701 28.6422 11.6604 29.3321 13.424 29.3333H14.6667V30.6667C14.6667 31.0203 14.8071 31.3594 15.0572 31.6095C15.3072 31.8595 15.6464 32 16 32C16.3536 32 16.6928 31.8595 16.9428 31.6095C17.1929 31.3594 17.3333 31.0203 17.3333 30.6667V29.3333H18.576C20.1796 29.3316 21.7303 28.7597 22.9509 27.7198C24.1716 26.6798 24.9827 25.2397 25.2391 23.6568C25.4956 22.0738 25.1808 20.4513 24.3509 19.0791C23.5211 17.707 22.2303 16.6746 20.7093 16.1667L17.3333 15.04V5.33333H18.576ZM19.8693 18.6947C20.7912 19.0015 21.5738 19.6265 22.077 20.4577C22.5801 21.2888 22.771 22.272 22.6154 23.2311C22.4598 24.1902 21.9679 25.0625 21.2278 25.692C20.4876 26.3215 19.5476 26.667 18.576 26.6667H17.3333V17.8493L19.8693 18.6947ZM14.6667 14.1507L12.1333 13.3053C11.2116 12.9986 10.4292 12.3738 9.92604 11.5429C9.42287 10.712 9.23181 9.72914 9.38706 8.77023C9.54231 7.81133 10.0337 6.93896 10.7734 6.30926C11.513 5.67955 12.4526 5.33361 13.424 5.33333H14.6667V14.1507Z" fill="currentColor"/>
</svg>
