<svg width="48" height="48" viewBox="0 0 48 48" fill="none" xmlns="http://www.w3.org/2000/svg">
<path d="M15.2503 25.9443C13.5197 25.9443 11.828 25.4311 10.3891 24.4696C8.95016 23.5082 7.82865 22.1416 7.16638 20.5428C6.50411 18.9439 6.33083 17.1846 6.66845 15.4872C7.00607 13.7899 7.83943 12.2308 9.06314 11.0071C10.2868 9.78339 11.846 8.95003 13.5433 8.61241C15.2406 8.27479 17 8.44807 18.5988 9.11034C20.1977 9.7726 21.5642 10.8941 22.5257 12.333C23.4871 13.772 24.0003 15.4637 24.0003 17.1943C23.9978 19.5141 23.0751 21.7382 21.4347 23.3786C19.7943 25.019 17.5702 25.9417 15.2503 25.9443ZM15.2503 12.3332C14.2889 12.3332 13.349 12.6183 12.5496 13.1524C11.7502 13.6866 11.1272 14.4458 10.7592 15.334C10.3913 16.2223 10.2951 17.1997 10.4826 18.1426C10.6702 19.0856 11.1332 19.9518 11.813 20.6316C12.4928 21.3114 13.359 21.7744 14.302 21.962C15.2449 22.1496 16.2223 22.0533 17.1106 21.6854C17.9988 21.3174 18.758 20.6944 19.2922 19.895C19.8263 19.0956 20.1114 18.1557 20.1114 17.1943C20.1114 15.905 19.5993 14.6686 18.6876 13.757C17.776 12.8453 16.5396 12.3332 15.2503 12.3332ZM29.8337 45.3887V44.4165C29.8337 40.5488 28.2972 36.8394 25.5623 34.1045C22.8274 31.3696 19.1181 29.8332 15.2503 29.8332C11.3826 29.8332 7.67326 31.3696 4.93835 34.1045C2.20345 36.8394 0.666992 40.5488 0.666992 44.4165L0.666992 45.3887C0.666992 45.9044 0.871853 46.399 1.23651 46.7637C1.60116 47.1283 2.09574 47.3332 2.61144 47.3332C3.12714 47.3332 3.62171 47.1283 3.98637 46.7637C4.35102 46.399 4.55588 45.9044 4.55588 45.3887V44.4165C4.55588 41.5802 5.68261 38.86 7.68821 36.8544C9.69381 34.8488 12.414 33.7221 15.2503 33.7221C18.0867 33.7221 20.8068 34.8488 22.8124 36.8544C24.818 38.86 25.9448 41.5802 25.9448 44.4165V45.3887C25.9448 45.9044 26.1496 46.399 26.5143 46.7637C26.8789 47.1283 27.3735 47.3332 27.8892 47.3332C28.4049 47.3332 28.8995 47.1283 29.2641 46.7637C29.6288 46.399 29.8337 45.9044 29.8337 45.3887ZM47.3337 35.6665C47.3336 33.0389 46.573 30.4676 45.1436 28.2628C43.7143 26.058 41.6774 24.314 39.2787 23.2414C36.88 22.1688 34.2222 21.8135 31.6259 22.2182C29.0297 22.623 26.6062 23.7705 24.6478 25.5223C24.4549 25.6919 24.2974 25.898 24.1846 26.1287C24.0717 26.3595 24.0057 26.6103 23.9904 26.8667C23.975 27.1231 24.0106 27.38 24.0951 27.6226C24.1796 27.8652 24.3113 28.0886 24.4827 28.28C24.654 28.4713 24.8616 28.6269 25.0933 28.7376C25.3251 28.8483 25.5766 28.912 25.8331 28.9249C26.0896 28.9379 26.3462 28.8999 26.588 28.8132C26.8297 28.7264 27.0519 28.5927 27.2417 28.4196C28.6406 27.1685 30.3718 26.3492 32.2261 26.0603C34.0805 25.7714 35.9788 26.0254 37.692 26.7917C39.4051 27.5579 40.8599 28.8036 41.8807 30.3784C42.9015 31.9532 43.4447 33.7898 43.4448 35.6665C43.4448 36.1822 43.6496 36.6768 44.0143 37.0414C44.3789 37.4061 44.8735 37.6109 45.3892 37.6109C45.9049 37.6109 46.3995 37.4061 46.7641 37.0414C47.1288 36.6768 47.3337 36.1822 47.3337 35.6665ZM34.6948 18.1665C32.9642 18.1665 31.2725 17.6533 29.8335 16.6919C28.3946 15.7304 27.2731 14.3638 26.6108 12.765C25.9486 11.1661 25.7753 9.4068 26.1129 7.70947C26.4505 6.01213 27.2839 4.45303 28.5076 3.22932C29.7313 2.00561 31.2904 1.17226 32.9877 0.834637C34.6851 0.497016 36.4444 0.670295 38.0432 1.33256C39.6421 1.99483 41.0087 3.11634 41.9701 4.55527C42.9316 5.9942 43.4448 7.68592 43.4448 9.41651C43.4422 11.7364 42.5195 13.9605 40.8791 15.6008C39.2387 17.2412 37.0146 18.1639 34.6948 18.1665ZM34.6948 4.5554C33.7333 4.5554 32.7935 4.8405 31.9941 5.37464C31.1947 5.90879 30.5716 6.66799 30.2037 7.55624C29.8358 8.44449 29.7395 9.4219 29.9271 10.3649C30.1146 11.3078 30.5776 12.174 31.2574 12.8538C31.9373 13.5337 32.8034 13.9966 33.7464 14.1842C34.6894 14.3718 35.6668 14.2755 36.555 13.9076C37.4433 13.5397 38.2025 12.9166 38.7366 12.1172C39.2708 11.3178 39.5559 10.3779 39.5559 9.41651C39.5559 8.12726 39.0437 6.89082 38.1321 5.97918C37.2205 5.06755 35.984 4.5554 34.6948 4.5554Z" fill="currentColor"/>
</svg>
