<svg width="16" height="16" viewBox="0 0 16 16" fill="none" xmlns="http://www.w3.org/2000/svg">
<path fill-rule="evenodd" clip-rule="evenodd" d="M10.2761 0.666504H3.33333C2.59695 0.666504 2 1.26346 2 1.99984V13.9998C2 14.7362 2.59695 15.3332 3.33333 15.3332H12.6667C13.403 15.3332 14 14.7362 14 13.9998V4.39036L10.2761 0.666504ZM3.33333 1.99984H8.66667V4.6665C8.66667 5.40288 9.26362 5.99984 10 5.99984H12.6667V13.9998H3.33333V1.99984ZM10 4.6665V2.27598L12.3905 4.6665H10ZM7.33333 6.6665V9.72369L6.4714 8.86177L5.5286 9.80457L8 12.276L10.4714 9.80457L9.5286 8.86177L8.66667 9.72369V6.6665H7.33333Z" fill="currentColor"/>
</svg>
