<svg width="24" height="24" viewBox="0 0 24 24" fill="none" xmlns="http://www.w3.org/2000/svg">
<path d="M10.95 12.5325C10.8797 12.4628 10.8239 12.3798 10.7858 12.2884C10.7478 12.197 10.7282 12.099 10.7282 12C10.7282 11.901 10.7478 11.8029 10.7858 11.7116C10.8239 11.6202 10.8797 11.5372 10.95 11.4675L14.3925 8.0325C14.4628 7.96277 14.5186 7.87982 14.5567 7.78843C14.5948 7.69704 14.6144 7.59901 14.6144 7.5C14.6144 7.40099 14.5948 7.30296 14.5567 7.21157C14.5186 7.12017 14.4628 7.03722 14.3925 6.9675C14.252 6.82781 14.0619 6.7494 13.8638 6.7494C13.6656 6.7494 13.4755 6.82781 13.335 6.9675L9.89252 10.41C9.47117 10.8319 9.2345 11.4037 9.2345 12C9.2345 12.5962 9.47117 13.1681 9.89252 13.59L13.335 17.0325C13.4747 17.171 13.6633 17.2491 13.86 17.25C13.9587 17.2505 14.0566 17.2316 14.1479 17.1943C14.2393 17.157 14.3224 17.102 14.3925 17.0325C14.4628 16.9628 14.5186 16.8798 14.5567 16.7884C14.5948 16.697 14.6144 16.599 14.6144 16.5C14.6144 16.401 14.5948 16.3029 14.5567 16.2115C14.5186 16.1202 14.4628 16.0372 14.3925 15.9675L10.95 12.5325Z" fill="#605444"/>
</svg>
