<svg width="32" height="32" viewBox="0 0 32 32" fill="none" xmlns="http://www.w3.org/2000/svg">
<g clip-path="url(#clip0_1_1247)">
<path d="M14.6667 22.6666H14.5333C14.3636 21.8307 14.0335 21.0356 13.5613 20.3253L13.6587 20.228C13.9015 19.9765 14.0359 19.6397 14.0329 19.2901C14.0299 18.9405 13.8896 18.6061 13.6424 18.3589C13.3952 18.1117 13.0608 17.9714 12.7112 17.9684C12.3616 17.9654 12.0248 18.0998 11.7733 18.3426L11.676 18.44C10.9654 17.9671 10.1698 17.6366 9.33333 17.4666V17.3333C9.33333 16.9797 9.19286 16.6405 8.94281 16.3905C8.69276 16.1404 8.35362 16 8 16C7.64638 16 7.30724 16.1404 7.05719 16.3905C6.80714 16.6405 6.66667 16.9797 6.66667 17.3333V17.4666C5.83076 17.6364 5.03567 17.9664 4.32533 18.4386L4.228 18.3413C3.97653 18.0984 3.63973 17.964 3.29013 17.9671C2.94054 17.9701 2.60612 18.1103 2.35891 18.3575C2.1117 18.6048 1.97147 18.9392 1.96843 19.2888C1.9654 19.6384 2.09979 19.9752 2.34267 20.2266L2.44 20.324C1.96718 21.0346 1.63664 21.8302 1.46667 22.6666H1.33333C0.979711 22.6666 0.640573 22.8071 0.390524 23.0572C0.140476 23.3072 0 23.6463 0 24C0 24.3536 0.140476 24.6927 0.390524 24.9428C0.640573 25.1928 0.979711 25.3333 1.33333 25.3333H1.46667C1.63639 26.1692 1.96648 26.9643 2.43867 27.6746L2.34133 27.772C2.09846 28.0234 1.96406 28.3602 1.9671 28.7098C1.97014 29.0594 2.11036 29.3938 2.35757 29.6411C2.60479 29.8883 2.9392 30.0285 3.2888 30.0315C3.63839 30.0346 3.9752 29.9002 4.22667 29.6573L4.324 29.56C5.03463 30.0328 5.8302 30.3633 6.66667 30.5333V30.6666C6.66667 31.0203 6.80714 31.3594 7.05719 31.6094C7.30724 31.8595 7.64638 32 8 32C8.35362 32 8.69276 31.8595 8.94281 31.6094C9.19286 31.3594 9.33333 31.0203 9.33333 30.6666V30.5333C10.1692 30.3636 10.9643 30.0335 11.6747 29.5613L11.772 29.6586C12.0235 29.9015 12.3603 30.0359 12.7099 30.0329C13.0595 30.0298 13.3939 29.8896 13.6411 29.6424C13.8883 29.3952 14.0285 29.0608 14.0316 28.7112C14.0346 28.3616 13.9002 28.0248 13.6573 27.7733L13.56 27.676C14.0328 26.9653 14.3634 26.1698 14.5333 25.3333H14.6667C15.0203 25.3333 15.3594 25.1928 15.6095 24.9428C15.8595 24.6927 16 24.3536 16 24C16 23.6463 15.8595 23.3072 15.6095 23.0572C15.3594 22.8071 15.0203 22.6666 14.6667 22.6666ZM8 28C6.93913 28 5.92172 27.5785 5.17157 26.8284C4.42143 26.0782 4 25.0608 4 24C4 22.9391 4.42143 21.9217 5.17157 21.1715C5.92172 20.4214 6.93913 20 8 20C9.06086 20 10.0783 20.4214 10.8284 21.1715C11.5786 21.9217 12 22.9391 12 24C12 25.0608 11.5786 26.0782 10.8284 26.8284C10.0783 27.5785 9.06086 28 8 28ZM32 16C32 14.5855 31.4381 13.2289 30.4379 12.2287C29.4377 11.2285 28.0811 10.6666 26.6667 10.6666V7.99997C26.6667 7.64635 26.5262 7.30721 26.2761 7.05716C26.0261 6.80711 25.6869 6.66664 25.3333 6.66664C24.9797 6.66664 24.6406 6.80711 24.3905 7.05716C24.1405 7.30721 24 7.64635 24 7.99997V10.6666H20.7387L16.0307 3.13331C15.4341 2.17193 14.6014 1.37927 13.6118 0.830802C12.6222 0.282331 11.5087 -0.00369052 10.3773 -2.62662e-05H8C6.93913 -2.62662e-05 5.92172 0.421401 5.17157 1.17155C4.42143 1.92169 4 2.93911 4 3.99997V10.6666C2.93913 10.6666 1.92172 11.0881 1.17157 11.8382C0.421427 12.5884 0 13.6058 0 14.6666C0 15.0203 0.140476 15.3594 0.390524 15.6094C0.640573 15.8595 0.979711 16 1.33333 16C1.68695 16 2.02609 15.8595 2.27614 15.6094C2.52619 15.3594 2.66667 15.0203 2.66667 14.6666C2.66667 14.313 2.80714 13.9739 3.05719 13.7238C3.30724 13.4738 3.64638 13.3333 4 13.3333H26.6667C27.1595 13.3391 27.6411 13.4806 28.0588 13.7421C28.4765 14.0037 28.8141 14.3753 29.0345 14.8161C29.2549 15.2569 29.3496 15.7499 29.3082 16.2409C29.2669 16.732 29.091 17.2022 28.8 17.6L26.7267 20.364C17.7547 17.6973 15.3147 31.4306 24.6667 32C25.8394 31.9858 26.9825 31.63 27.956 30.976C28.9296 30.322 29.6912 29.3983 30.1478 28.318C30.6043 27.2377 30.7358 26.0477 30.5263 24.8938C30.3167 23.7399 29.7752 22.6721 28.968 21.8213L30.9333 19.2C31.6238 18.2758 31.9979 17.1536 32 16ZM6.66667 3.99997C6.66667 3.64635 6.80714 3.30721 7.05719 3.05716C7.30724 2.80711 7.64638 2.66664 8 2.66664H10.3773C11.0562 2.66449 11.7243 2.83613 12.318 3.1652C12.9117 3.49428 13.4114 3.96985 13.7693 4.54664L17.6 10.6666H6.66667V3.99997ZM24.6667 29.3333C23.7826 29.3333 22.9348 28.9821 22.3096 28.357C21.6845 27.7319 21.3333 26.884 21.3333 26C21.3333 25.1159 21.6845 24.2681 22.3096 23.6429C22.9348 23.0178 23.7826 22.6666 24.6667 22.6666C25.5507 22.6666 26.3986 23.0178 27.0237 23.6429C27.6488 24.2681 28 25.1159 28 26C28 26.884 27.6488 27.7319 27.0237 28.357C26.3986 28.9821 25.5507 29.3333 24.6667 29.3333Z" fill="currentColor"/>
</g>
<defs>
<clipPath id="clip0_1_1247">
<rect width="32" height="32" fill="currentColor"/>
</clipPath>
</defs>
</svg>
