<svg width="32" height="32" viewBox="0 0 32 32" fill="none" xmlns="http://www.w3.org/2000/svg">
<g clip-path="url(#clip0_1_1323)">
<path d="M20.0742 17.9146C18.8682 18.679 17.4504 19.087 16 19.087C14.0557 19.0851 12.1915 18.3516 10.8167 17.0474C9.65972 15.9499 8.92878 14.5236 8.72502 13H11.1978C11.32 13.6072 11.5696 14.1881 11.935 14.707C12.4722 15.4697 13.2358 16.0641 14.1291 16.4151C15.0224 16.7661 16.0054 16.8579 16.9538 16.679C17.9021 16.5001 18.7732 16.0584 19.457 15.4098C20.1407 14.7612 20.6063 13.9348 20.795 13.0352C20.7974 13.0235 20.7998 13.0117 20.8022 13H23.2758C23.1944 13.6128 23.027 14.2158 22.7751 14.7926C22.2201 16.0637 21.2801 17.1502 20.0742 17.9146ZM8.2254 24.4655C10.2876 22.5092 13.0836 21.4089 16 21.4058C18.9164 21.4089 21.7124 22.5092 23.7746 24.4655C25.8368 26.4217 26.9968 29.074 27 31.8406C27 32.1481 26.8712 32.443 26.642 32.6604C26.4128 32.8778 26.1019 33 25.7778 33C25.4536 33 25.1427 32.8778 24.9135 32.6604C24.6843 32.443 24.5555 32.1481 24.5555 31.8406C24.5555 29.6881 23.6542 27.6238 22.0497 26.1017C20.4452 24.5797 18.2691 23.7246 16 23.7246C13.7309 23.7246 11.5548 24.5797 9.95031 26.1017C8.34583 27.6238 7.44444 29.6881 7.44444 31.8406C7.44444 32.1481 7.31567 32.443 7.08646 32.6604C6.85725 32.8778 6.54638 33 6.22222 33C5.89807 33 5.58719 32.8778 5.35798 32.6604C5.12877 32.443 5 32.1481 5 31.8406C5.00324 29.074 6.1632 26.4217 8.2254 24.4655Z" fill="currentColor"/>
<path d="M15.9979 1C14.9615 1 13.9308 1.27698 13.003 1.83227C11.4253 2.77636 10.3679 4.40796 10.0842 6.23964C7.90133 6.68915 6.22739 7.33663 5.15516 8.22159C4.59869 8.68087 4.17843 9.23189 4.04158 9.89675C3.90473 10.5616 4.1136 11.2704 4.55148 11.8316C5.42725 12.954 7.00799 13.6581 9.02631 14.1857C11.0446 14.7132 13.518 15.0107 16.143 14.9997C18.7679 14.9887 21.2137 14.6733 23.1981 14.128C25.1824 13.5827 26.7242 12.8672 27.5395 11.7116C27.9472 11.1339 28.1068 10.4008 27.9264 9.74792C27.7459 9.09508 27.2993 8.57104 26.719 8.12287C25.6442 7.29285 24.0066 6.67589 21.9189 6.24571C21.6367 4.41151 20.5795 2.77742 19.0002 1.83227C18.0723 1.27699 17.0343 1 15.9979 1ZM16.0008 2.55519C16.778 2.55519 17.556 2.76386 18.2529 3.1809C19.4103 3.87353 20.1868 5.05495 20.42 6.38999C20.3696 6.43118 20.3303 6.47045 20.2178 6.5282C19.8708 6.70615 19.27 6.89578 18.5064 7.02634C16.9792 7.28746 15.0225 7.28746 13.4953 7.02634C12.7317 6.89578 12.1308 6.70615 11.7839 6.5282C11.6705 6.47006 11.632 6.42974 11.5817 6.38847C11.8152 5.05403 12.5933 3.87327 13.7502 3.1809C14.4471 2.76386 15.2237 2.55519 16.0008 2.55519ZM10.0007 7.85405V8.77745C10.0007 9.15826 10.1808 9.49099 10.389 9.71906C10.5972 9.94714 10.8388 10.1101 11.1187 10.2537C11.6784 10.5408 12.3908 10.7428 13.252 10.89C14.9744 11.1845 17.0287 11.1845 18.7511 10.89C19.6123 10.7428 20.3232 10.5408 20.883 10.2537C21.1629 10.1101 21.4059 9.94714 21.6141 9.71906C21.8223 9.49099 22.001 9.15826 22.001 8.77745V7.85709C23.7647 8.26172 25.1067 8.81709 25.8223 9.36975C26.2359 9.68921 26.428 9.98374 26.4816 10.1777C26.5353 10.3717 26.527 10.5083 26.3263 10.7928C25.9249 11.3617 24.6411 12.1228 22.8156 12.6244C20.9902 13.126 18.6492 13.434 16.1371 13.4445C13.625 13.455 11.2608 13.1678 9.39701 12.6806C7.53324 12.1934 6.18078 11.4465 5.71927 10.8551C5.48852 10.5593 5.47194 10.4024 5.50975 10.2187C5.54755 10.0351 5.70218 9.75453 6.08558 9.4381C6.77584 8.8684 8.1576 8.27697 10.0007 7.85405ZM11.5011 8.08794C11.9923 8.28813 12.5744 8.4444 13.252 8.56027C14.9744 8.85477 17.0287 8.85477 18.7511 8.56027C19.4287 8.4444 20.0094 8.28813 20.5006 8.08794V8.6681C20.4609 8.70662 20.376 8.77675 20.2178 8.85794C19.8708 9.03589 19.27 9.22704 18.5064 9.3576C16.9792 9.61873 15.0225 9.61873 13.4953 9.3576C12.7317 9.22704 12.1308 9.03589 11.7839 8.85794C11.6256 8.77675 11.5407 8.70662 11.5011 8.6681V8.08794Z" fill="currentColor" stroke="currentColor"/>
</g>
<defs>
<clipPath id="clip0_1_1323">
<rect width="32" height="32" fill="currentColor"/>
</clipPath>
</defs>
</svg>
