<svg width="32" height="32" viewBox="0 0 32 32" fill="none" xmlns="http://www.w3.org/2000/svg">
<path d="M14.8328 18.5214C13.0252 18.5214 11.7998 17.434 11.7998 14.1381C11.7998 10.9091 13.2086 9.75503 14.8017 9.75503C16.5186 9.75503 17.6831 10.8425 17.6831 14.0729C17.6831 17.4668 16.3956 18.5214 14.8328 18.5214V18.5214ZM15.3541 25.5742C18.2034 25.5742 19.7354 25.7714 19.7354 27.5508C19.7354 29.66 17.9584 30.3194 14.9553 30.3194C11.0946 30.3194 10.3898 29.3631 10.3898 27.8146C10.3898 26.892 10.727 26.2004 11.1559 25.5742H15.3541ZM22.9998 6.10647C22.9866 4.44507 21.8845 3.60682 21.4954 3.37618C21.1522 3.17275 20.1395 2.79364 19.0369 3.92234C18.11 4.87025 18.4868 6.05743 18.9182 6.6653C19.1888 6.60413 19.9536 6.43115 19.9536 6.43115C19.9536 6.43115 20.1796 6.76634 20.0328 7.18129C19.8356 7.73877 18.6436 8.83191 18.2172 9.17033C18.1921 9.18946 18.1673 9.20779 18.1418 9.22826C17.3764 8.66755 16.2425 8.30568 14.8636 8.30568C10.8187 8.30568 8.82701 11.2381 8.82701 14.501C8.82701 16.7752 9.8384 18.7192 11.7685 19.4443C10.2676 20.8282 9.04221 21.7516 9.04221 23.2349C9.04221 23.992 9.37893 24.6837 10.114 25.0466C9.07228 25.7054 8 26.5959 8 28.4408C8 30.5829 9.56257 31.9999 14.2197 31.9999C20.0413 31.9999 21.9724 30.0887 21.9724 26.7929C21.9724 23.0697 19.3373 22.509 15.8136 22.509H12.9332C12.0749 22.509 11.6761 22.4438 11.6761 21.8173C11.6761 21.3563 12.1363 20.8282 13.1169 19.873C13.7299 20.0045 14.0974 20.0702 14.8636 20.0702C18.0496 20.0702 20.5932 17.8958 20.5932 14.1381C20.5932 12.2269 19.8885 11.0411 19.0309 10.1177C19.7026 9.9237 20.3164 9.83425 21.3779 9.22288C22.2347 8.72925 23.0129 7.66737 22.9998 6.10647V6.10647Z" fill="#605444"/>
<path d="M19.3691 8.09172C19.3691 8.09172 17.669 5.44792 18.3342 3.53917C19.087 1.38064 21.1075 0 21.1075 0C21.1075 0 22.2101 2.94073 21.7917 4.62315C21.2924 6.63294 19.3691 8.09172 19.3691 8.09172Z" fill="#8CC63F"/>
</svg>
