<svg width="32" height="32" viewBox="0 0 32 32" fill="none" xmlns="http://www.w3.org/2000/svg">
<g clip-path="url(#clip0_211_8696)">
<path d="M30.4265 20.53C30.0866 20.1906 29.6259 20 29.1455 20C28.6652 20 28.2044 20.1906 27.8645 20.53L19.7325 28.662C19.4996 28.8936 19.315 29.169 19.1893 29.4724C19.0635 29.7758 18.9992 30.1011 19 30.4295V31.456C19 31.5886 19.0527 31.7158 19.1465 31.8096C19.2402 31.9034 19.3674 31.956 19.5 31.956H20.5265C20.8549 31.957 21.1802 31.8927 21.4836 31.7671C21.787 31.6414 22.0624 31.4569 22.294 31.224L30.4265 23.0915C30.7658 22.7516 30.9563 22.291 30.9563 21.8108C30.9563 21.3305 30.7658 20.8699 30.4265 20.53ZM21.587 30.517C21.305 30.7972 20.924 30.9549 20.5265 30.956H20V30.4295C19.9995 30.2325 20.0381 30.0373 20.1135 29.8553C20.189 29.6732 20.2998 29.508 20.4395 29.369L26.611 23.1975L27.761 24.3475L21.587 30.517ZM29.719 22.3845L28.466 23.638L27.316 22.4905L28.5695 21.237C28.645 21.1617 28.7346 21.102 28.8332 21.0612C28.9318 21.0205 29.0375 20.9996 29.1441 20.9997C29.2508 20.9999 29.3564 21.021 29.4549 21.0619C29.5534 21.1028 29.6429 21.1628 29.7183 21.2383C29.7936 21.3138 29.8533 21.4034 29.8941 21.502C29.9348 21.6006 29.9557 21.7062 29.9556 21.8129C29.9554 21.9196 29.9343 22.0252 29.8934 22.1237C29.8525 22.2222 29.7925 22.3117 29.717 22.387L29.719 22.3845Z" fill="currentColor" stroke="currentColor" stroke-width="0.5"/>
<path fill-rule="evenodd" clip-rule="evenodd" d="M16 16C17.5823 16 19.129 15.5308 20.4446 14.6518C21.7602 13.7727 22.7855 12.5233 23.391 11.0615C23.9965 9.59966 24.155 7.99113 23.8463 6.43928C23.5376 4.88743 22.7757 3.46197 21.6569 2.34315C20.538 1.22433 19.1126 0.462403 17.5607 0.153721C16.0089 -0.15496 14.4003 0.00346625 12.9385 0.608967C11.4767 1.21447 10.2273 2.23985 9.34824 3.55544C8.46919 4.87103 8 6.41775 8 8C8.00212 10.1211 8.84565 12.1547 10.3455 13.6545C11.8453 15.1543 13.8789 15.9979 16 16ZM16 2.66667C17.0548 2.66667 18.086 2.97946 18.963 3.5655C19.8401 4.15153 20.5237 4.98449 20.9274 5.95902C21.331 6.93356 21.4366 8.00592 21.2309 9.04048C21.0251 10.075 20.5171 11.0254 19.7712 11.7712C19.0254 12.5171 18.075 13.0251 17.0405 13.2309C16.0059 13.4366 14.9336 13.331 13.959 12.9274C12.9845 12.5237 12.1515 11.8401 11.5655 10.963C10.9795 10.086 10.6667 9.05484 10.6667 8C10.6667 6.58551 11.2286 5.22896 12.2288 4.22877C13.229 3.22857 14.5855 2.66667 16 2.66667ZM16 18.6667C12.8185 18.6702 9.76829 19.9356 7.51862 22.1853C5.26894 24.435 4.00353 27.4852 4 30.6667C4 31.0203 4.14048 31.3594 4.39052 31.6095C4.64057 31.8595 4.97971 32 5.33333 32C5.68696 32 6.02609 31.8595 6.27614 31.6095C6.52619 31.3594 6.66667 31.0203 6.66667 30.6667C6.66667 28.1913 7.65 25.8173 9.40034 24.067C11.1507 22.3167 13.5246 21.3333 16 21.3333C18.2947 21.3333 20.5022 22.1783 22.2066 23.696C22.5493 23.5128 22.8462 23.2581 23.0745 22.9331C23.4064 22.4609 23.5498 21.9028 23.5242 21.3255C21.4025 19.6158 18.7503 18.6697 16 18.6667Z" fill="currentColor"/>
</g>
<defs>
<clipPath id="clip0_211_8696">
<rect width="32" height="32" fill="currentColor"/>
</clipPath>
</defs>
</svg>
