<svg width="16" height="16" viewBox="0 0 16 16" fill="none" xmlns="http://www.w3.org/2000/svg">
<path fill-rule="evenodd" clip-rule="evenodd" d="M5.33366 3.99984H3.40972C4.69676 2.52742 6.10647 1.99984 8.00033 1.99984C11.314 1.99984 14.0003 4.68613 14.0003 7.99984C14.0003 11.3135 11.314 13.9998 8.00033 13.9998C4.68662 13.9998 2.00033 11.3135 2.00033 7.99984H0.666992C0.666992 12.0499 3.95024 15.3332 8.00033 15.3332C12.0504 15.3332 15.3337 12.0499 15.3337 7.99984C15.3337 3.94975 12.0504 0.666504 8.00033 0.666504C5.85808 0.666504 4.15838 1.27354 2.66699 2.83747V1.32731H1.33366V5.33317H5.33366V3.99984ZM11.3337 7.33317H8.66699V3.99984H7.33366V8.6665H11.3337V7.33317Z" fill="currentColor"/>
</svg>
