<svg width="32" height="32" viewBox="0 0 32 32" fill="none" xmlns="http://www.w3.org/2000/svg">
<g clip-path="url(#clip0_1_1169)">
<path d="M32 21.3333V28C32 29.0608 31.5786 30.0783 30.8284 30.8284C30.0783 31.5786 29.0609 32 28 32H21.3333C19.4628 31.9981 17.6256 31.5043 16.0062 30.5682C14.3867 29.6321 13.0419 28.2866 12.1067 26.6667C13.1118 26.6595 14.1136 26.5487 15.096 26.336C15.8442 27.2715 16.7933 28.0267 17.873 28.5455C18.9528 29.0644 20.1354 29.3336 21.3333 29.3333H28C28.3536 29.3333 28.6928 29.1928 28.9428 28.9428C29.1929 28.6927 29.3333 28.3536 29.3333 28V21.3333C29.333 20.135 29.0629 18.9521 28.5431 17.8723C28.0234 16.7926 27.2672 15.8437 26.3307 15.096C26.5451 14.1137 26.6577 13.112 26.6667 12.1067C28.2866 13.0419 29.6321 14.3867 30.5682 16.0062C31.5043 17.6256 31.9981 19.4628 32 21.3333ZM23.9693 12.868C24.094 11.1502 23.8475 9.42565 23.2465 7.81159C22.6454 6.19753 21.704 4.73176 20.4861 3.51389C19.2682 2.29601 17.8025 1.35457 16.1884 0.753539C14.5743 0.152506 12.8498 -0.0940374 11.132 0.0306635C8.08788 0.378306 5.2759 1.8269 3.22557 4.10365C1.17524 6.38041 0.0280362 9.32822 0 12.392L0 19.112C0 22.488 2.00933 24 4 24H11.6C14.6651 23.9736 17.6147 22.8272 19.893 20.7767C22.1714 18.7263 23.6212 15.9133 23.9693 12.868ZM18.6 5.40133C19.5466 6.35 20.2783 7.49093 20.7458 8.74691C21.2132 10.0029 21.4054 11.3446 21.3093 12.6813C21.0247 15.0596 19.8807 17.2517 18.0924 18.8452C16.3042 20.4387 13.9952 21.3236 11.6 21.3333H4C2.76267 21.3333 2.66667 19.6333 2.66667 19.112V12.392C2.67778 9.99783 3.56353 7.69027 5.15722 5.90356C6.75091 4.11686 8.94266 2.97422 11.32 2.69066C11.5413 2.67466 11.7627 2.66666 11.984 2.66666C13.2124 2.66552 14.4289 2.90644 15.5641 3.37567C16.6993 3.8449 17.7309 4.53323 18.6 5.40133Z" fill="currentColor"/>
<path d="M12.966 8.0625C13.3727 8.0629 13.7627 8.22464 14.0503 8.51224C14.3379 8.79983 14.4996 9.18978 14.5 9.5965C14.5 9.72911 14.5527 9.85628 14.6465 9.95005C14.7402 10.0438 14.8674 10.0965 15 10.0965C15.1326 10.0965 15.2598 10.0438 15.3536 9.95005C15.4473 9.85628 15.5 9.72911 15.5 9.5965V9.5625C15.5 9.553 15.5 9.5445 15.5 9.535C15.4833 8.87386 15.2091 8.24539 14.7357 7.78353C14.2624 7.32166 13.6273 7.06294 12.966 7.0625H12.5V6.5625C12.5 6.42989 12.4473 6.30271 12.3536 6.20895C12.2598 6.11518 12.1326 6.0625 12 6.0625C11.8674 6.0625 11.7402 6.11518 11.6464 6.20895C11.5527 6.30271 11.5 6.42989 11.5 6.5625V7.0625H11.034C10.4327 7.06314 9.85115 7.27762 9.3934 7.66759C8.93565 8.05756 8.6315 8.59761 8.53533 9.19121C8.43915 9.78481 8.55721 10.3933 8.8684 10.9078C9.17959 11.4224 9.66363 11.8095 10.234 12L11.5 12.4225V16.0625H11.034C10.6273 16.0621 10.2373 15.9004 9.94974 15.6128C9.66214 15.3252 9.5004 14.9352 9.5 14.5285C9.5 14.3959 9.44732 14.2687 9.35355 14.1749C9.25979 14.0812 9.13261 14.0285 9 14.0285C8.86739 14.0285 8.74021 14.0812 8.64645 14.1749C8.55268 14.2687 8.5 14.3959 8.5 14.5285V14.5625C8.5 14.572 8.5 14.5805 8.5 14.59C8.51669 15.2511 8.79093 15.8796 9.26428 16.3415C9.73763 16.8033 10.3727 17.0621 11.034 17.0625H11.5V17.5625C11.5 17.6951 11.5527 17.8223 11.6464 17.916C11.7402 18.0098 11.8674 18.0625 12 18.0625C12.1326 18.0625 12.2598 18.0098 12.3536 17.916C12.4473 17.8223 12.5 17.6951 12.5 17.5625V17.0625H12.966C13.5673 17.0619 14.1489 16.8474 14.6066 16.4574C15.0644 16.0674 15.3685 15.5274 15.4647 14.9338C15.5609 14.3402 15.4428 13.7317 15.1316 13.2172C14.8204 12.7026 14.3364 12.3155 13.766 12.125L12.5 11.7025V8.0625H12.966ZM13.451 13.073C13.7967 13.1881 14.0902 13.4224 14.2789 13.7341C14.4675 14.0458 14.5391 14.4145 14.4808 14.7742C14.4224 15.1338 14.238 15.461 13.9604 15.697C13.6829 15.9331 13.3304 16.0626 12.966 16.0625H12.5V12.756L13.451 13.073ZM11.5 11.369L10.55 11.052C10.2044 10.937 9.91096 10.7027 9.72227 10.3911C9.53358 10.0795 9.46193 9.71093 9.52015 9.35134C9.57837 8.99175 9.76265 8.66461 10.04 8.42847C10.3174 8.19233 10.6697 8.0626 11.034 8.0625H11.5V11.369Z" fill="currentColor" stroke="currentColor"/>
<path d="M19.75 25.5C19.75 26.3284 19.1344 27 18.375 27C17.6156 27 17 26.3284 17 25.5C17 24.6716 17.6156 24 18.375 24C19.1344 24 19.75 24.6716 19.75 25.5Z" fill="currentColor"/>
<path d="M23.875 25.5C23.875 26.3284 23.2594 27 22.5 27C21.7406 27 21.125 26.3284 21.125 25.5C21.125 24.6716 21.7406 24 22.5 24C23.2594 24 23.875 24.6716 23.875 25.5Z" fill="currentColor"/>
<path d="M28 25.5C28 26.3284 27.3844 27 26.625 27C25.8656 27 25.25 26.3284 25.25 25.5C25.25 24.6716 25.8656 24 26.625 24C27.3844 24 28 24.6716 28 25.5Z" fill="currentColor"/>
</g>
<defs>
<clipPath id="clip0_1_1169">
<rect width="32" height="32" fill="currentColor"/>
</clipPath>
</defs>
</svg>
