<svg width="32" height="32" viewBox="0 0 32 32" fill="none" xmlns="http://www.w3.org/2000/svg">
<path d="M16.7305 11.9336V22.5H14.3672V11.9336H16.7305ZM14.2109 9.16016C14.2109 8.80208 14.3281 8.50586 14.5625 8.27148C14.8034 8.0306 15.1354 7.91016 15.5586 7.91016C15.9753 7.91016 16.304 8.0306 16.5449 8.27148C16.7858 8.50586 16.9062 8.80208 16.9062 9.16016C16.9062 9.51172 16.7858 9.80469 16.5449 10.0391C16.304 10.2734 15.9753 10.3906 15.5586 10.3906C15.1354 10.3906 14.8034 10.2734 14.5625 10.0391C14.3281 9.80469 14.2109 9.51172 14.2109 9.16016Z" fill="currentColor"/>
<rect x="0.5" y="0.5" width="31" height="31" rx="15.5" stroke="currentColor"/>
</svg>
