<svg width="24" height="24" viewBox="0 0 24 24" fill="currentColor" xmlns="http://www.w3.org/2000/svg">
    <path fill-rule="evenodd" clip-rule="evenodd"
        d="M2 6C2 7.1 2.9 8 4 8C5.1 8 6 7.1 6 6C6 4.9 5.1 4 4 4C2.9 4 2 4.9 2 6ZM9 5H21C21.55 5 22 5.45 22 6C22 6.55 21.55 7 21 7H9C8.45 7 8 6.55 8 6C8 5.45 8.45 5 9 5ZM21 11H9C8.45 11 8 11.45 8 12C8 12.55 8.45 13 9 13H21C21.55 13 22 12.55 22 12C22 11.45 21.55 11 21 11ZM9 19H21C21.55 19 22 18.55 22 18C22 17.45 21.55 17 21 17H9C8.45 17 8 17.45 8 18C8 18.55 8.45 19 9 19ZM2 18C2 19.1 2.9 20 4 20C5.1 20 6 19.1 6 18C6 16.9 5.1 16 4 16C2.9 16 2 16.9 2 18ZM4 14C2.9 14 2 13.1 2 12C2 10.9 2.9 10 4 10C5.1 10 6 10.9 6 12C6 13.1 5.1 14 4 14Z"
        fill="currentColor" />
</svg>