<svg width="33" height="32" viewBox="0 0 33 32" fill="none" xmlns="http://www.w3.org/2000/svg">
<path d="M30.283 2.63225C29.4251 1.91742 28.4195 1.40144 27.3386 1.12139C26.2576 0.84133 25.128 0.804146 24.0309 1.0125L19.5168 1.9585C18.3951 2.15914 17.3509 2.66647 16.5 3.42425C15.6669 2.67205 14.6409 2.16646 13.5369 1.964L8.91551 1.0015C7.82604 0.80339 6.70635 0.846948 5.63557 1.1291C4.56478 1.41125 3.56902 1.92511 2.71864 2.63437C1.86827 3.34363 1.18402 4.23098 0.714256 5.23374C0.244489 6.23649 0.000663764 7.33017 7.28044e-06 8.4375V21.9015C-0.00244432 23.6678 0.614335 25.3791 1.74306 26.7377C2.87179 28.0963 4.44105 29.0162 6.17788 29.3375L14.1625 30.9146C14.931 31.0548 15.7106 31.1252 16.4918 31.125C17.2886 31.1245 18.0838 31.0522 18.8678 30.9091L26.7905 29.3375C28.532 29.0208 30.1072 28.1034 31.2418 26.7449C32.3765 25.3863 32.9986 23.6729 33 21.9029V8.4375C33.0011 7.32974 32.7582 6.23532 32.2886 5.23201C31.8191 4.22869 31.1343 3.34109 30.283 2.63225ZM14.4375 26.7649L6.94788 25.2854C6.15571 25.1414 5.43921 24.724 4.92333 24.1058C4.40745 23.4876 4.12492 22.708 4.12501 21.9029V8.4375C4.12753 7.52803 4.48938 6.6564 5.13171 6.01253C5.77403 5.36865 6.64479 5.00472 7.55426 5C7.74516 4.99963 7.9357 5.01666 8.12351 5.05088L12.7449 6.01338C13.2197 6.09994 13.6492 6.35031 13.9585 6.7209C14.2678 7.09149 14.4373 7.55881 14.4375 8.0415V26.7649ZM28.875 21.9029C28.8735 22.7129 28.5867 23.4965 28.0649 24.116C27.5432 24.7356 26.8198 25.1516 26.0219 25.2909L18.5625 26.7649V8.0415C18.5654 7.54977 18.7426 7.075 19.0626 6.70162C19.3826 6.32825 19.8246 6.08048 20.3101 6.00238L24.8229 5.05775C25.318 4.96777 25.8269 4.98761 26.3136 5.11587C26.8002 5.24414 27.2528 5.4777 27.6393 5.80005C28.0258 6.12241 28.3368 6.5257 28.5503 6.98143C28.7638 7.43717 28.8747 7.93423 28.875 8.4375V21.9029Z" fill="black"/>
</svg>
