<svg width="36" height="36" viewBox="0 0 36 36" fill="none" xmlns="http://www.w3.org/2000/svg">
<path fill-rule="evenodd" clip-rule="evenodd" d="M27 5.99999C27 7.65685 28.3432 8.99999 30 8.99999C31.6569 8.99999 33 7.65685 33 5.99999C33 4.34314 31.6569 2.99999 30 2.99999C28.3432 2.99999 27 4.34314 27 5.99999ZM30 21C28.3432 21 27 19.6569 27 18C27 16.3431 28.3432 15 30 15C31.6569 15 33 16.3431 33 18C33 19.6569 31.6569 21 30 21ZM30 33C28.3432 33 27 31.6568 27 30C27 28.3431 28.3432 27 30 27C31.6569 27 33 28.3431 33 30C33 31.6568 31.6569 33 30 33ZM18 33C16.3431 33 15 31.6568 15 30C15 28.3431 16.3431 27 18 27C19.6569 27 21 28.3431 21 30C21 31.6568 19.6569 33 18 33ZM15 18C15 19.6569 16.3431 21 18 21C19.6569 21 21 19.6569 21 18C21 16.3431 19.6569 15 18 15C16.3431 15 15 16.3431 15 18ZM18 8.99999C16.3431 8.99999 15 7.65685 15 5.99999C15 4.34314 16.3431 2.99999 18 2.99999C19.6569 2.99999 21 4.34314 21 5.99999C21 7.65685 19.6569 8.99999 18 8.99999ZM3.00003 30C3.00003 31.6568 4.34318 33 6.00003 33C7.65688 33 9.00003 31.6568 9.00003 30C9.00003 28.3431 7.65688 27 6.00003 27C4.34318 27 3.00003 28.3431 3.00003 30ZM6.00003 21C4.34318 21 3.00003 19.6569 3.00003 18C3.00003 16.3431 4.34318 15 6.00003 15C7.65688 15 9.00003 16.3431 9.00003 18C9.00003 19.6569 7.65688 21 6.00003 21ZM3 6C3 7.65685 4.34315 9 6 9C7.65685 9 9 7.65685 9 6C9 4.34315 7.65685 3 6 3C4.34315 3 3 4.34315 3 6Z" fill="currentColor"/>
</svg>
