<svg width="32" height="32" viewBox="0 0 32 32" fill="none" xmlns="http://www.w3.org/2000/svg">
<path d="M1.77778 9H30.2222C30.6937 9 31.1459 8.84196 31.4793 8.56066C31.8127 8.27936 32 7.89782 32 7.5C32 7.10218 31.8127 6.72064 31.4793 6.43934C31.1459 6.15804 30.6937 6 30.2222 6H1.77778C1.30628 6 0.854097 6.15804 0.520699 6.43934C0.187301 6.72064 0 7.10218 0 7.5C0 7.89782 0.187301 8.27936 0.520699 8.56066C0.854097 8.84196 1.30628 9 1.77778 9Z" fill="#605444"/>
<path d="M30.2222 15H1.77778C1.30628 15 0.854097 15.158 0.520699 15.4393C0.187301 15.7206 0 16.1022 0 16.5C0 16.8978 0.187301 17.2794 0.520699 17.5607C0.854097 17.842 1.30628 18 1.77778 18H30.2222C30.6937 18 31.1459 17.842 31.4793 17.5607C31.8127 17.2794 32 16.8978 32 16.5C32 16.1022 31.8127 15.7206 31.4793 15.4393C31.1459 15.158 30.6937 15 30.2222 15Z" fill="#605444"/>
<path d="M30.2222 25H1.77778C1.30628 25 0.854097 25.158 0.520699 25.4393C0.187301 25.7206 0 26.1022 0 26.5C0 26.8978 0.187301 27.2794 0.520699 27.5607C0.854097 27.842 1.30628 28 1.77778 28H30.2222C30.6937 28 31.1459 27.842 31.4793 27.5607C31.8127 27.2794 32 26.8978 32 26.5C32 26.1022 31.8127 25.7206 31.4793 25.4393C31.1459 25.158 30.6937 25 30.2222 25Z" fill="#605444"/>
</svg>
