<svg width="12" height="12" viewBox="0 0 12 12" fill="none" xmlns="http://www.w3.org/2000/svg">
    <path fill-rule="evenodd" clip-rule="evenodd"
        d="M0.5 6C0.5 9.03757 2.96243 11.5 6 11.5C9.03757 11.5 11.5 9.03757 11.5 6C11.5 2.96243 9.03757 0.5 6 0.5C2.96243 0.5 0.5 2.96243 0.5 6ZM10.5 6C10.5 8.48528 8.48528 10.5 6 10.5C3.51472 10.5 1.5 8.48528 1.5 6C1.5 3.51472 3.51472 1.5 6 1.5C8.48528 1.5 10.5 3.51472 10.5 6ZM6.50181 6.99917H7.00148V7.99917H5.00148V6.99917H5.50148V5.99917H5.00148V4.99917H6.50181V6.99917ZM6.50033 3.99917C6.50033 4.27532 6.2764 4.49917 6.00016 4.49917C5.72393 4.49917 5.5 4.27532 5.5 3.99917C5.5 3.72303 5.72393 3.49917 6.00016 3.49917C6.2764 3.49917 6.50033 3.72303 6.50033 3.99917Z"
        fill="currentColor" />
</svg>