<svg width="25" height="25" viewBox="0 0 25 25" fill="none" xmlns="http://www.w3.org/2000/svg">
<path fill-rule="evenodd" clip-rule="evenodd" d="M19.5 10.5C19.5 6.44082 17.2616 3.6235 14.3654 2.77771C14.2605 2.50636 14.0948 2.2541 13.8695 2.04243C13.0997 1.31919 11.9003 1.31919 11.1305 2.04243C10.9057 2.25364 10.7402 2.50525 10.6353 2.77592C7.73535 3.61803 5.5 6.42919 5.5 10.5C5.5 13.1339 4.96898 14.6098 3.98596 15.6793C3.82161 15.8582 3.37632 16.2678 3.07468 16.5453L3.07465 16.5453L3.07465 16.5453L3.0745 16.5454C2.93187 16.6766 2.82138 16.7783 2.78796 16.8119L2.5 17.104V20.5141H8.58798C8.79384 21.5761 9.37009 22.2867 10.4122 22.9226C11.6941 23.7049 13.3059 23.7049 14.5878 22.9226C15.5075 22.3614 16.1241 21.4989 16.3743 20.5141H22.5V17.104L22.212 16.8119C22.1817 16.7812 22.0757 16.6834 21.937 16.5555C21.6363 16.2781 21.1823 15.8592 21.0154 15.6769C20.0317 14.6024 19.5 13.1246 19.5 10.5ZM14.2367 20.5141H10.6786C10.8199 20.7769 11.0607 20.9754 11.454 21.2154C12.0963 21.6073 12.9037 21.6073 13.546 21.2154C13.8434 21.0339 14.0758 20.7937 14.2367 20.5141ZM19.5402 17.0274C19.7506 17.2573 20.2016 17.6774 20.5 17.9519V18.5141H4.5V17.9524C4.79607 17.6811 5.24843 17.2613 5.45849 17.0327C6.79422 15.5794 7.5 13.6178 7.5 10.5C7.5 6.71989 9.83277 4.51238 12.5 4.51238C15.1597 4.51238 17.5 6.73129 17.5 10.5C17.5 13.6078 18.206 15.57 19.5402 17.0274Z" fill="currentColor"/>
</svg>
