<svg width="93" height="84" viewBox="0 0 93 84" fill="none" xmlns="http://www.w3.org/2000/svg">
<path fill-rule="evenodd" clip-rule="evenodd" d="M90.0949 58.6254L60.906 8.7272C57.9756 3.64711 52.5138 0.494047 46.6071 0.487133C40.6997 0.480218 35.236 3.62027 32.2692 8.72741L3.06942 58.6439C0.0416105 63.7349 -0.0268877 70.1144 2.90588 75.3171C5.84109 80.5242 11.3371 83.7647 17.3151 83.8133L75.8063 83.8136C81.8465 83.7548 87.332 80.5243 90.2667 75.3218C93.198 70.1255 93.1325 63.7603 90.0949 58.6254ZM10.2472 62.8775L39.4685 12.9242C40.9484 10.3769 43.6625 8.81703 46.5973 8.82046C49.5318 8.8239 52.245 10.3902 53.7003 12.9131L82.9122 62.8507C84.4434 65.4392 84.4762 68.6258 83.0086 71.2274C81.5389 73.8328 78.7913 75.4509 75.7656 75.4804L17.349 75.4801C14.3882 75.4559 11.6353 73.8327 10.1653 71.225C8.69696 68.6202 8.73125 65.4265 10.2472 62.8775ZM46.5899 67.1469C48.8918 67.1469 50.7579 65.2814 50.7579 62.9802C50.7579 60.679 48.8918 58.8136 46.5899 58.8136C44.2879 58.8136 42.4218 60.679 42.4218 62.9802C42.4218 65.2814 44.2879 67.1469 46.5899 67.1469ZM50.7702 25.4802H42.4341V54.6469H50.7702V25.4802Z" fill="#FF9800"/>
</svg>
