<svg width="16" height="16" viewBox="0 0 16 16" fill="none" xmlns="http://www.w3.org/2000/svg">
<path fill-rule="evenodd" clip-rule="evenodd" d="M10.9608 1.33398C11.3973 1.33398 11.8158 1.50826 12.1213 1.81627L14.1886 3.88353C14.4964 4.19132 14.6693 4.60876 14.6693 5.04404C14.6693 5.47931 14.4964 5.89676 14.1886 6.20454L6.64094 13.7498C6.17529 14.287 5.5152 14.617 4.759 14.6689H1.33594V14.0022L1.3381 11.1922C1.3949 10.4892 1.72172 9.83554 2.22027 9.39627L9.79953 1.81707C10.1069 1.50787 10.5248 1.33398 10.9608 1.33398ZM4.71193 13.3372C5.06808 13.312 5.3996 13.1462 5.6658 12.8417L10.7071 7.80046L8.20415 5.29745L3.13334 10.367C2.86324 10.6059 2.69614 10.9401 2.66927 11.2459V13.3359L4.71193 13.3372ZM9.14708 4.35475L11.6499 6.85765L13.2458 5.26173C13.3035 5.204 13.336 5.12569 13.336 5.04404C13.336 4.96239 13.3035 4.88408 13.2458 4.82634L11.1767 2.75722C11.1196 2.69968 11.0419 2.66732 10.9608 2.66732C10.8798 2.66732 10.8021 2.69968 10.745 2.75722L9.14708 4.35475Z" fill="#67A22D"/>
</svg>
