<svg width="16" height="17" viewBox="0 0 16 17" fill="none" xmlns="http://www.w3.org/2000/svg">
<path fill-rule="evenodd" clip-rule="evenodd" d="M14.6663 13.833V9.16634H13.333V13.833H2.66634V3.16634H7.33301V1.83301H2.66634C1.92996 1.83301 1.33301 2.42996 1.33301 3.16634V13.833C1.33301 14.5694 1.92996 15.1663 2.66634 15.1663H13.333C14.0694 15.1663 14.6663 14.5694 14.6663 13.833ZM12.7851 2.31529C12.4795 2.00729 12.0611 1.83301 11.6246 1.83301C11.1886 1.83301 10.7706 2.00689 10.4633 2.31609L4.88401 7.89529C4.38545 8.33456 4.05863 8.98823 4.00184 9.69121L3.99967 11.8346V12.5012H6.75607C7.51227 12.4494 8.17236 12.1193 8.63801 11.5822L14.1857 6.0369C14.4935 5.72911 14.6664 5.31167 14.6664 4.87639C14.6664 4.44112 14.4935 4.02367 14.1857 3.71589L12.7851 2.31529ZM6.709 11.1696C7.06515 11.1443 7.39667 10.9786 7.66287 10.6741L11.7041 6.63282L9.86795 4.79652L5.79708 8.86607C5.52698 9.10496 5.35988 9.43916 5.33301 9.74489V11.1683L6.709 11.1696ZM10.8109 3.85386L12.6469 5.69001L13.2429 5.09409C13.3006 5.03635 13.333 4.95805 13.333 4.87639C13.333 4.79474 13.3006 4.71644 13.2429 4.6587L11.8404 3.25625C11.7833 3.19871 11.7056 3.16634 11.6246 3.16634C11.5435 3.16634 11.4658 3.19871 11.4087 3.25625L10.8109 3.85386Z" fill="currentColor"/>
</svg>
