<svg width="32" height="32" viewBox="0 0 32 32" fill="currentColor" xmlns="http://www.w3.org/2000/svg">
<mask id="path-1-outside-1_1_1124" maskUnits="userSpaceOnUse" x="-0.323914" y="2.34" width="32" height="25" fill="currentColor">
<rect fill="currentColor" x="-0.323914" y="2.34" width="32" height="25"/>
<path d="M28.76 12.3134L23.7467 6.80406C22.7547 5.81206 21.1387 5.81075 20.1374 6.81206C19.8201 7.12938 19.6041 7.50938 19.4921 7.91475C18.4948 7.15075 17.0561 7.22675 16.1374 8.14544C15.8214 8.46275 15.6054 8.84275 15.4907 9.24675C14.4934 8.48544 13.0547 8.56006 12.1374 9.47875C11.8267 9.78944 11.6134 10.1601 11.4974 10.5548L9.13473 8.19206C8.14272 7.20006 6.52672 7.19875 5.52541 8.20006C4.5321 9.19207 4.5321 10.8081 5.52541 11.8014L14.6027 20.8787L9.21873 21.724C7.76404 21.932 6.66672 23.196 6.66672 24.6667C6.66672 25.7694 7.56404 26.6667 8.66673 26.6667H21.2387C23.1974 26.6667 25.0387 25.904 26.424 24.5187L28.5214 22.4214C29.9054 21.0387 30.6667 19.1987 30.6667 17.2427C30.6667 15.416 29.9894 13.6654 28.76 12.3134ZM27.5787 21.4787L25.4814 23.576C24.348 24.7093 22.8414 25.3333 21.2387 25.3333H8.66666C8.29866 25.3333 7.99997 25.0346 7.99997 24.6666C7.99997 23.8559 8.60529 23.1586 9.41729 23.0426L16.104 21.9919C16.352 21.9533 16.556 21.7786 16.6347 21.5399C16.712 21.3026 16.6494 21.0399 16.472 20.8626L6.46804 10.8587C5.99472 10.3854 5.99472 9.61469 6.47472 9.13338C6.71204 8.89738 7.02272 8.77869 7.33341 8.77869C7.6441 8.77869 7.95472 8.89738 8.1921 9.13469L14.8628 15.8054C15.1228 16.0654 15.5455 16.0654 15.8055 15.8054C15.9348 15.6747 16.0002 15.5041 16.0002 15.3334C16.0002 15.1627 15.9349 14.9921 15.8042 14.8614L13.0802 12.1374C12.6069 11.6641 12.6069 10.8947 13.0882 10.4134C13.5602 9.94138 14.3322 9.94138 14.8042 10.4134L17.5295 13.1387C17.7895 13.3987 18.2122 13.3987 18.4722 13.1387C18.6015 13.008 18.6669 12.8374 18.6669 12.6667C18.6669 12.496 18.6015 12.3254 18.4709 12.1947L17.0802 10.804C16.6069 10.3307 16.6069 9.56132 17.0882 9.08C17.5602 8.608 18.3322 8.608 18.8042 9.08L20.2015 10.4773C20.2042 10.4786 20.2028 10.4786 20.2028 10.4786L20.2041 10.4799L20.2054 10.4813L20.2067 10.4826L20.2094 10.4839C20.4707 10.7319 20.884 10.7266 21.1387 10.4706C21.3987 10.2106 21.3987 9.78788 21.1387 9.52788L21.0814 9.47057C20.852 9.24125 20.7254 8.93588 20.7254 8.61188C20.7254 8.28788 20.8507 7.98388 21.088 7.74656C21.5627 7.27456 22.3307 7.27588 22.7827 7.72388L27.7747 13.2106C28.7787 14.316 29.3334 15.748 29.3334 17.2427C29.3334 18.8427 28.7107 20.3467 27.5787 21.4787Z"/>
<path d="M12.1374 6.87738C11.1668 4.72938 9.02278 3.34 6.67609 3.34C3.36809 3.34 0.676084 6.032 0.676084 9.34001C0.676084 11.6867 2.0654 13.8307 4.2134 14.8027C4.30271 14.8427 4.39609 14.8614 4.48809 14.8614C4.7414 14.8614 4.98409 14.7147 5.09609 14.4694C5.24678 14.1334 5.0974 13.7387 4.76278 13.5867C3.09077 12.8307 2.00946 11.164 2.00946 9.34001C2.00946 6.76669 4.10277 4.67332 6.67615 4.67332C8.50015 4.67332 10.1668 5.75463 10.9228 7.42663C11.0735 7.76263 11.4695 7.91332 11.8042 7.75994C12.1401 7.60801 12.2894 7.21338 12.1374 6.87738Z"/>
</mask>
<path d="M28.76 12.3134L23.7467 6.80406C22.7547 5.81206 21.1387 5.81075 20.1374 6.81206C19.8201 7.12938 19.6041 7.50938 19.4921 7.91475C18.4948 7.15075 17.0561 7.22675 16.1374 8.14544C15.8214 8.46275 15.6054 8.84275 15.4907 9.24675C14.4934 8.48544 13.0547 8.56006 12.1374 9.47875C11.8267 9.78944 11.6134 10.1601 11.4974 10.5548L9.13473 8.19206C8.14272 7.20006 6.52672 7.19875 5.52541 8.20006C4.5321 9.19207 4.5321 10.8081 5.52541 11.8014L14.6027 20.8787L9.21873 21.724C7.76404 21.932 6.66672 23.196 6.66672 24.6667C6.66672 25.7694 7.56404 26.6667 8.66673 26.6667H21.2387C23.1974 26.6667 25.0387 25.904 26.424 24.5187L28.5214 22.4214C29.9054 21.0387 30.6667 19.1987 30.6667 17.2427C30.6667 15.416 29.9894 13.6654 28.76 12.3134ZM27.5787 21.4787L25.4814 23.576C24.348 24.7093 22.8414 25.3333 21.2387 25.3333H8.66666C8.29866 25.3333 7.99997 25.0346 7.99997 24.6666C7.99997 23.8559 8.60529 23.1586 9.41729 23.0426L16.104 21.9919C16.352 21.9533 16.556 21.7786 16.6347 21.5399C16.712 21.3026 16.6494 21.0399 16.472 20.8626L6.46804 10.8587C5.99472 10.3854 5.99472 9.61469 6.47472 9.13338C6.71204 8.89738 7.02272 8.77869 7.33341 8.77869C7.6441 8.77869 7.95472 8.89738 8.1921 9.13469L14.8628 15.8054C15.1228 16.0654 15.5455 16.0654 15.8055 15.8054C15.9348 15.6747 16.0002 15.5041 16.0002 15.3334C16.0002 15.1627 15.9349 14.9921 15.8042 14.8614L13.0802 12.1374C12.6069 11.6641 12.6069 10.8947 13.0882 10.4134C13.5602 9.94138 14.3322 9.94138 14.8042 10.4134L17.5295 13.1387C17.7895 13.3987 18.2122 13.3987 18.4722 13.1387C18.6015 13.008 18.6669 12.8374 18.6669 12.6667C18.6669 12.496 18.6015 12.3254 18.4709 12.1947L17.0802 10.804C16.6069 10.3307 16.6069 9.56132 17.0882 9.08C17.5602 8.608 18.3322 8.608 18.8042 9.08L20.2015 10.4773C20.2042 10.4786 20.2028 10.4786 20.2028 10.4786L20.2041 10.4799L20.2054 10.4813L20.2067 10.4826L20.2094 10.4839C20.4707 10.7319 20.884 10.7266 21.1387 10.4706C21.3987 10.2106 21.3987 9.78788 21.1387 9.52788L21.0814 9.47057C20.852 9.24125 20.7254 8.93588 20.7254 8.61188C20.7254 8.28788 20.8507 7.98388 21.088 7.74656C21.5627 7.27456 22.3307 7.27588 22.7827 7.72388L27.7747 13.2106C28.7787 14.316 29.3334 15.748 29.3334 17.2427C29.3334 18.8427 28.7107 20.3467 27.5787 21.4787Z" fill="currentColor"/>
<path d="M12.1374 6.87738C11.1668 4.72938 9.02278 3.34 6.67609 3.34C3.36809 3.34 0.676084 6.032 0.676084 9.34001C0.676084 11.6867 2.0654 13.8307 4.2134 14.8027C4.30271 14.8427 4.39609 14.8614 4.48809 14.8614C4.7414 14.8614 4.98409 14.7147 5.09609 14.4694C5.24678 14.1334 5.0974 13.7387 4.76278 13.5867C3.09077 12.8307 2.00946 11.164 2.00946 9.34001C2.00946 6.76669 4.10277 4.67332 6.67615 4.67332C8.50015 4.67332 10.1668 5.75463 10.9228 7.42663C11.0735 7.76263 11.4695 7.91332 11.8042 7.75994C12.1401 7.60801 12.2894 7.21338 12.1374 6.87738Z" fill="currentColor"/>
<path d="M28.76 12.3134L28.982 12.1116L28.9819 12.1115L28.76 12.3134ZM23.7467 6.80406L23.9689 6.60193L23.9589 6.59193L23.7467 6.80406ZM20.1374 6.81206L19.9253 6.59993L20.1374 6.81206ZM19.4921 7.91475L19.3097 8.1529L19.6628 8.42343L19.7813 7.99465L19.4921 7.91475ZM16.1374 8.14544L15.9253 7.93331L15.9248 7.93375L16.1374 8.14544ZM15.4907 9.24675L15.3087 9.48521L15.659 9.75261L15.7793 9.32868L15.4907 9.24675ZM12.1374 9.47875L12.3495 9.69088L12.3497 9.69073L12.1374 9.47875ZM11.4974 10.5548L11.2853 10.7669L11.6427 11.1243L11.7852 10.6393L11.4974 10.5548ZM9.13473 8.19206L8.92259 8.4042V8.4042L9.13473 8.19206ZM5.52541 8.20006L5.7374 8.41234L5.73754 8.4122L5.52541 8.20006ZM5.52541 11.8014L5.31328 12.0135V12.0135L5.52541 11.8014ZM14.6027 20.8787L14.6493 21.1751L15.2319 21.0836L14.8149 20.6666L14.6027 20.8787ZM9.21873 21.724L9.26119 22.021L9.26526 22.0204L9.21873 21.724ZM26.424 24.5187L26.6362 24.7308L26.424 24.5187ZM28.5214 22.4214L28.3093 22.2092L28.3092 22.2093L28.5214 22.4214ZM27.5787 21.4787L27.3665 21.2666L27.5787 21.4787ZM25.4814 23.576L25.6935 23.7881L25.4814 23.576ZM9.41729 23.0426L9.45972 23.3396L9.46386 23.339L9.41729 23.0426ZM16.104 21.9919L16.0577 21.6955L16.0574 21.6956L16.104 21.9919ZM16.6347 21.5399L16.9196 21.6339L16.9199 21.6329L16.6347 21.5399ZM16.472 20.8626L16.2598 21.0748L16.2599 21.0748L16.472 20.8626ZM6.46804 10.8587L6.2559 11.0708L6.46804 10.8587ZM6.47472 9.13338L6.26318 8.92066L6.2623 8.92154L6.47472 9.13338ZM8.1921 9.13469L8.40423 8.92256L8.4042 8.92253L8.1921 9.13469ZM14.8628 15.8054L15.0749 15.5932L14.8628 15.8054ZM15.8055 15.8054L16.0176 16.0175L16.0187 16.0164L15.8055 15.8054ZM15.8042 14.8614L16.0163 14.6492L15.8042 14.8614ZM13.0802 12.1374L12.868 12.3495L13.0802 12.1374ZM13.0882 10.4134L13.3003 10.6255L13.0882 10.4134ZM14.8042 10.4134L14.592 10.6255L14.8042 10.4134ZM17.5295 13.1387L17.7416 12.9266L17.5295 13.1387ZM18.4722 13.1387L18.6843 13.3508L18.6854 13.3497L18.4722 13.1387ZM18.4709 12.1947L18.683 11.9826L18.4709 12.1947ZM17.0802 10.804L16.868 11.0161L17.0802 10.804ZM17.0882 9.08L17.3003 9.29214L17.0882 9.08ZM18.8042 9.08L18.592 9.29214L18.8042 9.08ZM20.2015 10.4773L19.9894 10.6894L20.0248 10.7249L20.0698 10.7469L20.2015 10.4773ZM20.2028 10.4786L20.2028 10.1786L19.4786 10.1785L19.9906 10.6907L20.2028 10.4786ZM20.2041 10.4799L19.9919 10.692L19.9921 10.6922L20.2041 10.4799ZM20.2054 10.4813L20.4177 10.2693L20.4174 10.269L20.2054 10.4813ZM20.2067 10.4826L19.9944 10.6945L20.0289 10.7291L20.0725 10.7509L20.2067 10.4826ZM20.2094 10.4839L20.4159 10.2663L20.3835 10.2355L20.3436 10.2156L20.2094 10.4839ZM21.1387 10.4706L20.9265 10.2584L20.926 10.259L21.1387 10.4706ZM21.1387 9.52788L21.3508 9.31575L21.3508 9.31574L21.1387 9.52788ZM21.0814 9.47057L20.8692 9.6827L20.8692 9.6827L21.0814 9.47057ZM21.088 7.74656L20.8765 7.53383L20.8759 7.5344L21.088 7.74656ZM22.7827 7.72388L23.0046 7.52198L22.9994 7.51626L22.9939 7.5108L22.7827 7.72388ZM27.7747 13.2106L27.9968 13.0089L27.9966 13.0087L27.7747 13.2106ZM12.1374 6.87738L11.864 7.00092L11.8641 7.00103L12.1374 6.87738ZM4.2134 14.8027L4.08972 15.076L4.09078 15.0765L4.2134 14.8027ZM5.09609 14.4694L5.369 14.594L5.36982 14.5921L5.09609 14.4694ZM4.76278 13.5867L4.88685 13.3136L4.88637 13.3133L4.76278 13.5867ZM10.9228 7.42663L11.1966 7.30387L11.1962 7.30303L10.9228 7.42663ZM11.8042 7.75994L11.6805 7.4866L11.6792 7.48723L11.8042 7.75994ZM28.9819 12.1115L23.9686 6.60215L23.5249 7.00597L28.5382 12.5153L28.9819 12.1115ZM23.9589 6.59193C22.8492 5.48226 21.0432 5.48197 19.9253 6.59993L20.3496 7.0242C21.2342 6.13953 22.6603 6.14186 23.5346 7.0162L23.9589 6.59193ZM19.9253 6.59993C19.5709 6.95428 19.3286 7.37997 19.2029 7.83486L19.7813 7.99465C19.8796 7.63878 20.0693 7.30447 20.3496 7.0242L19.9253 6.59993ZM19.6745 7.6766C18.5586 6.82174 16.9511 6.9075 15.9253 7.93331L16.3496 8.35757C17.1611 7.54601 18.431 7.47977 19.3097 8.1529L19.6745 7.6766ZM15.9248 7.93375C15.5721 8.28792 15.3304 8.71286 15.2021 9.16483L15.7793 9.32868C15.8804 8.97265 16.0707 8.63759 16.35 8.35713L15.9248 7.93375ZM15.6728 9.00829C14.5573 8.15677 12.9499 8.24051 11.9251 9.26678L12.3497 9.69073C13.1596 8.87962 14.4295 8.8141 15.3087 9.48521L15.6728 9.00829ZM11.9253 9.26662C11.5783 9.6136 11.3394 10.0284 11.2096 10.4702L11.7852 10.6393C11.8874 10.2918 12.0752 9.96528 12.3495 9.69088L11.9253 9.26662ZM11.7095 10.3426L9.34686 7.97993L8.92259 8.4042L11.2853 10.7669L11.7095 10.3426ZM9.34686 7.97993C8.23719 6.87026 6.43124 6.86997 5.31328 7.98793L5.73754 8.4122C6.62221 7.52753 8.04826 7.52986 8.92259 8.4042L9.34686 7.97993ZM5.31342 7.98779C4.20268 9.09706 4.20289 10.9031 5.31328 12.0135L5.73754 11.5892C4.86131 10.713 4.86151 9.28707 5.7374 8.41234L5.31342 7.98779ZM5.31328 12.0135L14.3906 21.0908L14.8149 20.6666L5.73754 11.5892L5.31328 12.0135ZM14.5562 20.5823L9.17219 21.4276L9.26526 22.0204L14.6493 21.1751L14.5562 20.5823ZM9.17626 21.427C7.57389 21.6561 6.36672 23.0466 6.36672 24.6667H6.96672C6.96672 23.3454 7.95418 22.2079 9.26119 22.021L9.17626 21.427ZM6.36672 24.6667C6.36672 25.9351 7.39835 26.9667 8.66673 26.9667V26.3667C7.72972 26.3667 6.96672 25.6037 6.96672 24.6667H6.36672ZM8.66673 26.9667H21.2387V26.3667H8.66673V26.9667ZM21.2387 26.9667C23.277 26.9667 25.1946 26.1724 26.6362 24.7308L26.2119 24.3066C24.8829 25.6356 23.1178 26.3667 21.2387 26.3667V26.9667ZM26.6362 24.7308L28.7335 22.6335L28.3092 22.2093L26.2119 24.3066L26.6362 24.7308ZM28.7334 22.6336C30.1738 21.1946 30.9667 19.2782 30.9667 17.2427H30.3667C30.3667 19.1192 29.6369 20.8828 28.3093 22.2092L28.7334 22.6336ZM30.9667 17.2427C30.9667 15.3413 30.2615 13.5187 28.982 12.1116L28.5381 12.5152C29.7172 13.812 30.3667 15.4907 30.3667 17.2427H30.9667ZM27.3665 21.2666L25.2692 23.3639L25.6935 23.7881L27.7908 21.6908L27.3665 21.2666ZM25.2692 23.3639C24.1922 24.4409 22.7618 25.0333 21.2387 25.0333V25.6333C22.9209 25.6333 24.5039 24.9777 25.6935 23.7881L25.2692 23.3639ZM21.2387 25.0333H8.66666V25.6333H21.2387V25.0333ZM8.66666 25.0333C8.46435 25.0333 8.29997 24.869 8.29997 24.6666H7.69997C7.69997 25.2003 8.13298 25.6333 8.66666 25.6333V25.0333ZM8.29997 24.6666C8.29997 24.0065 8.7943 23.4347 9.45971 23.3396L9.37486 22.7457C8.41627 22.8826 7.69997 23.7054 7.69997 24.6666H8.29997ZM9.46386 23.339L16.1505 22.2883L16.0574 21.6956L9.37072 22.7463L9.46386 23.339ZM16.1502 22.2884C16.5107 22.2321 16.806 21.9783 16.9196 21.6339L16.3498 21.446C16.3059 21.5789 16.1933 21.6744 16.0577 21.6955L16.1502 22.2884ZM16.9199 21.6329C17.0322 21.2882 16.9413 20.9076 16.6841 20.6505L16.2599 21.0748C16.3574 21.1723 16.3918 21.317 16.3494 21.447L16.9199 21.6329ZM16.6841 20.6505L6.68017 10.6466L6.2559 11.0708L16.2598 21.0748L16.6841 20.6505ZM6.68017 10.6466C6.32524 10.2916 6.32269 9.71068 6.68715 9.34522L6.2623 8.92154C5.66676 9.5187 5.66421 10.4791 6.2559 11.0708L6.68017 10.6466ZM6.68627 9.3461C6.86534 9.16802 7.09909 9.07869 7.33341 9.07869V8.47869C6.94636 8.47869 6.55874 8.62674 6.26318 8.92066L6.68627 9.3461ZM7.33341 9.07869C7.56761 9.07869 7.80101 9.16791 7.98 9.34685L8.4042 8.92253C8.10844 8.62685 7.72059 8.47869 7.33341 8.47869V9.07869ZM7.97997 9.34682L14.6507 16.0175L15.0749 15.5932L8.40423 8.92256L7.97997 9.34682ZM14.6507 16.0175C15.0278 16.3947 15.6405 16.3947 16.0176 16.0175L15.5933 15.5932C15.4505 15.7361 15.2178 15.7361 15.0749 15.5932L14.6507 16.0175ZM16.0187 16.0164C16.2053 15.8278 16.3002 15.5807 16.3002 15.3334H15.7002C15.7002 15.4275 15.6643 15.5215 15.5922 15.5944L16.0187 16.0164ZM16.3002 15.3334C16.3002 15.086 16.2052 14.8382 16.0163 14.6492L15.592 15.0735C15.6645 15.146 15.7002 15.2394 15.7002 15.3334H16.3002ZM16.0163 14.6492L13.2923 11.9252L12.868 12.3495L15.592 15.0735L16.0163 14.6492ZM13.2923 11.9252C12.9374 11.5704 12.9349 10.991 13.3003 10.6255L12.876 10.2012C12.2788 10.7984 12.2763 11.7578 12.868 12.3495L13.2923 11.9252ZM13.3003 10.6255C13.6551 10.2707 14.2372 10.2707 14.592 10.6255L15.0163 10.2012C14.4271 9.61209 13.4652 9.61209 12.876 10.2012L13.3003 10.6255ZM14.592 10.6255L17.3173 13.3508L17.7416 12.9266L15.0163 10.2012L14.592 10.6255ZM17.3173 13.3508C17.6945 13.728 18.3071 13.728 18.6843 13.3508L18.26 12.9266C18.1172 13.0694 17.8845 13.0694 17.7416 12.9266L17.3173 13.3508ZM18.6854 13.3497C18.872 13.1612 18.9669 12.914 18.9669 12.6667H18.3669C18.3669 12.7608 18.331 12.8548 18.2589 12.9277L18.6854 13.3497ZM18.9669 12.6667C18.9669 12.4193 18.8719 12.1715 18.683 11.9826L18.2587 12.4068C18.3312 12.4793 18.3669 12.5727 18.3669 12.6667H18.9669ZM18.683 11.9826L17.2923 10.5919L16.868 11.0161L18.2587 12.4068L18.683 11.9826ZM17.2923 10.5919C16.9374 10.237 16.9349 9.65758 17.3003 9.29214L16.876 8.86787C16.2789 9.46506 16.2763 10.4244 16.868 11.0161L17.2923 10.5919ZM17.3003 9.29214C17.6551 8.93729 18.2372 8.93729 18.592 9.29214L19.0163 8.86787C18.4271 8.27871 17.4652 8.27871 16.876 8.86787L17.3003 9.29214ZM18.592 9.29214L19.9894 10.6894L20.4136 10.2652L19.0163 8.86787L18.592 9.29214ZM20.0698 10.7469C20.0649 10.7445 20.046 10.7353 20.0242 10.7191C20.0138 10.7114 19.9907 10.6934 19.9677 10.6643C19.948 10.6394 19.8985 10.5686 19.9035 10.4641C19.9093 10.3428 19.9821 10.2667 20.0324 10.2318C20.0769 10.2011 20.1184 10.1903 20.1342 10.1866C20.154 10.1819 20.1702 10.1803 20.1792 10.1796C20.1843 10.1792 20.1889 10.1789 20.1927 10.1788C20.1946 10.1787 20.1964 10.1787 20.1981 10.1787C20.1989 10.1787 20.1997 10.1786 20.2005 10.1786C20.2009 10.1786 20.2013 10.1786 20.2017 10.1786C20.2019 10.1786 20.2021 10.1786 20.2023 10.1786C20.2024 10.1786 20.2025 10.1786 20.2026 10.1786C20.2027 10.1786 20.2028 10.1786 20.2028 10.4786C20.2027 10.7786 20.2029 10.7786 20.203 10.7786C20.2031 10.7786 20.2032 10.7786 20.2033 10.7786C20.2035 10.7786 20.2037 10.7786 20.2039 10.7786C20.2043 10.7786 20.2047 10.7786 20.205 10.7786C20.2058 10.7786 20.2067 10.7786 20.2075 10.7786C20.2092 10.7786 20.211 10.7785 20.213 10.7785C20.2168 10.7783 20.2213 10.7781 20.2265 10.7777C20.2356 10.777 20.2519 10.7753 20.2718 10.7706C20.2876 10.7669 20.3292 10.7561 20.3737 10.7253C20.4242 10.6904 20.497 10.6142 20.5028 10.4929C20.5078 10.3882 20.4583 10.3174 20.4384 10.2923C20.4153 10.2631 20.392 10.2449 20.3815 10.2371C20.3591 10.2205 20.3394 10.2108 20.3331 10.2077L20.0698 10.7469ZM19.9906 10.6907L19.9919 10.692L20.4163 10.2679L20.415 10.2665L19.9906 10.6907ZM19.9921 10.6922L19.9934 10.6935L20.4174 10.269L20.4161 10.2677L19.9921 10.6922ZM19.9931 10.6932L19.9944 10.6945L20.419 10.2706L20.4177 10.2693L19.9931 10.6932ZM20.0725 10.7509L20.0751 10.7522L20.3436 10.2156L20.3409 10.2143L20.0725 10.7509ZM20.0028 10.7015C20.3821 11.0614 20.9816 11.0539 21.3514 10.6821L20.926 10.259C20.7865 10.3993 20.5592 10.4023 20.4159 10.2663L20.0028 10.7015ZM21.3508 10.6827C21.728 10.3055 21.728 9.6929 21.3508 9.31575L20.9265 9.74001C21.0694 9.88285 21.0694 10.1156 20.9265 10.2584L21.3508 10.6827ZM21.3508 9.31574L21.2935 9.25843L20.8692 9.6827L20.9265 9.74001L21.3508 9.31574ZM21.2935 9.25843C21.1203 9.08527 21.0254 8.85615 21.0254 8.61188H20.4254C20.4254 9.01561 20.5838 9.39724 20.8692 9.6827L21.2935 9.25843ZM21.0254 8.61188C21.0254 8.36858 21.1183 8.14057 21.3001 7.95872L20.8759 7.5344C20.5831 7.82718 20.4254 8.20718 20.4254 8.61188H21.0254ZM21.2996 7.9593C21.6605 7.60038 22.2398 7.6081 22.5715 7.93695L22.9939 7.5108C22.4217 6.94366 21.4649 6.94875 20.8765 7.53383L21.2996 7.9593ZM22.5608 7.92577L27.5528 13.4125L27.9966 13.0087L23.0046 7.52198L22.5608 7.92577ZM27.5527 13.4123C28.5066 14.4626 29.0334 15.8227 29.0334 17.2427H29.6334C29.6334 15.6733 29.0508 14.1694 27.9968 13.0089L27.5527 13.4123ZM29.0334 17.2427C29.0334 18.7631 28.4423 20.1908 27.3665 21.2666L27.7908 21.6908C28.9791 20.5026 29.6334 18.9222 29.6334 17.2427H29.0334ZM12.4108 6.75384C11.3919 4.49913 9.14144 3.04 6.67609 3.04V3.64C8.90412 3.64 10.9416 4.95963 11.864 7.00092L12.4108 6.75384ZM6.67609 3.04C3.2024 3.04 0.376084 5.86632 0.376084 9.34001H0.976084C0.976084 6.19769 3.53377 3.64 6.67609 3.64V3.04ZM0.376084 9.34001C0.376084 11.8054 1.83516 14.0558 4.08972 15.076L4.33708 14.5294C2.29564 13.6056 0.976084 11.568 0.976084 9.34001H0.376084ZM4.09078 15.0765C4.21989 15.1343 4.35519 15.1614 4.48809 15.1614V14.5614C4.43698 14.5614 4.38553 14.5511 4.33602 14.5289L4.09078 15.0765ZM4.48809 15.1614C4.85564 15.1614 5.20688 14.949 5.36899 14.594L4.82319 14.3448C4.7613 14.4803 4.62717 14.5614 4.48809 14.5614V15.1614ZM5.36982 14.5921C5.58805 14.1055 5.37188 13.5339 4.88685 13.3136L4.6387 13.8598C4.82292 13.9435 4.9055 14.1612 4.82236 14.3466L5.36982 14.5921ZM4.88637 13.3133C3.3208 12.6055 2.30946 11.0451 2.30946 9.34001H1.70946C1.70946 11.2829 2.86075 13.0559 4.63918 13.86L4.88637 13.3133ZM2.30946 9.34001C2.30946 6.93238 4.26846 4.97332 6.67615 4.97332V4.37332C3.93709 4.37332 1.70946 6.60101 1.70946 9.34001H2.30946ZM6.67615 4.97332C8.38124 4.97332 9.94161 5.98466 10.6495 7.55023L11.1962 7.30303C10.3921 5.5246 8.61907 4.37332 6.67615 4.37332V4.97332ZM10.6491 7.54939C10.8674 8.03616 11.4418 8.25606 11.9292 8.03266L11.6792 7.48723C11.4973 7.57058 11.2797 7.4891 11.1966 7.30387L10.6491 7.54939ZM11.9278 8.03329C12.4144 7.81322 12.6312 7.24103 12.4107 6.75373L11.8641 7.00103C11.9476 7.18573 11.8658 7.40279 11.6805 7.4866L11.9278 8.03329Z" fill="currentColor" mask="url(#path-1-outside-1_1_1124)"/>
</svg>
