<svg width="32" height="32" viewBox="0 0 32 32" fill="currentColor" xmlns="http://www.w3.org/2000/svg">
<g clip-path="url(#clip0_1_1191)">
<path d="M32 25.3333V16.4533C32.0498 12.3433 30.5428 8.36653 27.7818 5.32156C25.0207 2.2766 21.21 0.388848 17.1147 0.0373317C14.8289 -0.122591 12.5354 0.210318 10.3894 1.01354C8.2434 1.81675 6.29495 3.07154 4.6759 4.693C3.05684 6.31446 1.80495 8.26476 1.00491 10.4119C0.204874 12.5591 -0.124635 14.8531 0.0386766 17.1387C0.62801 25.6107 8.10935 32 17.444 32H25.3334C27.1008 31.9979 28.7953 31.2948 30.0451 30.0451C31.2949 28.7953 31.9979 27.1008 32 25.3333ZM16.9334 2.69867C20.3553 3.00138 23.5359 4.58788 25.8361 7.13941C28.1364 9.69093 29.3858 13.0184 29.3334 16.4533V25.3333C29.3334 26.3942 28.9119 27.4116 28.1618 28.1618C27.4116 28.9119 26.3942 29.3333 25.3334 29.3333H17.444C9.39868 29.3333 3.20001 24.1333 2.70001 16.9547C2.56875 15.1261 2.81598 13.2901 3.42626 11.5614C4.03654 9.83272 4.99675 8.24844 6.24691 6.90756C7.49707 5.56668 9.01032 4.49802 10.6921 3.76833C12.3739 3.03864 14.1881 2.66361 16.0214 2.66667C16.324 2.66667 16.6294 2.67867 16.9334 2.69867Z" fill="currentColor"/>
<path d="M17.9076 10.7725C18.4498 10.773 18.9698 10.9886 19.3532 11.3721C19.7367 11.7556 19.9524 12.2755 19.9529 12.8178C19.9529 12.9946 20.0231 13.1642 20.1481 13.2892C20.2732 13.4142 20.4427 13.4845 20.6196 13.4845C20.7964 13.4845 20.9659 13.4142 21.091 13.2892C21.216 13.1642 21.2862 12.9946 21.2862 12.8178V12.7725C21.2862 12.7598 21.2862 12.7485 21.2862 12.7358C21.264 11.8543 20.8983 11.0163 20.2672 10.4005C19.636 9.78467 18.7893 9.43971 17.9076 9.43912H17.2862V8.77246C17.2862 8.59564 17.216 8.42607 17.091 8.30105C16.9659 8.17603 16.7964 8.10579 16.6195 8.10579C16.4427 8.10579 16.2732 8.17603 16.1481 8.30105C16.0231 8.42607 15.9529 8.59564 15.9529 8.77246V9.43912H15.3315C14.5298 9.43998 13.7544 9.72594 13.1441 10.2459C12.5337 10.7659 12.1282 11.4859 12 12.2774C11.8717 13.0689 12.0292 13.8801 12.4441 14.5662C12.859 15.2523 13.5044 15.7685 14.2649 16.0225L15.9529 16.5858V21.4391H15.3315C14.7893 21.4386 14.2693 21.2229 13.8859 20.8395C13.5024 20.456 13.2867 19.9361 13.2862 19.3938C13.2862 19.217 13.216 19.0474 13.091 18.9224C12.9659 18.7974 12.7964 18.7271 12.6195 18.7271C12.4427 18.7271 12.2732 18.7974 12.1481 18.9224C12.0231 19.0474 11.9529 19.217 11.9529 19.3938V19.4391C11.9529 19.4518 11.9529 19.4631 11.9529 19.4758C11.9751 20.3573 12.3408 21.1953 12.9719 21.8111C13.6031 22.4269 14.4498 22.7719 15.3315 22.7725H15.9529V23.4391C15.9529 23.6159 16.0231 23.7855 16.1481 23.9105C16.2732 24.0355 16.4427 24.1058 16.6195 24.1058C16.7964 24.1058 16.9659 24.0355 17.091 23.9105C17.216 23.7855 17.2862 23.6159 17.2862 23.4391V22.7725H17.9076C18.7093 22.7716 19.4847 22.4856 20.095 21.9657C20.7054 21.4457 21.1109 20.7256 21.2391 19.9342C21.3674 19.1427 21.2099 18.3314 20.795 17.6453C20.3801 16.9593 19.7347 16.4431 18.9742 16.1891L17.2862 15.6258V10.7725H17.9076ZM18.5542 17.4531C19.0152 17.6065 19.4065 17.919 19.658 18.3346C19.9096 18.7502 20.005 19.2418 19.9272 19.7213C19.8494 20.2009 19.6035 20.6371 19.2334 20.9518C18.8634 21.2665 18.3934 21.4393 17.9076 21.4391H17.2862V17.0305L18.5542 17.4531ZM15.9529 15.1811L14.6862 14.7585C14.2254 14.6051 13.8342 14.2927 13.5826 13.8772C13.331 13.4618 13.2355 12.9704 13.3131 12.4909C13.3907 12.0115 13.6364 11.5753 14.0062 11.2604C14.3761 10.9456 14.8459 10.7726 15.3315 10.7725H15.9529V15.1811Z" fill="currentColor" stroke="currentColor"/>
</g>
<defs>
<clipPath id="clip0_1_1191">
<rect width="32" height="32" fill="currentColor"/>
</clipPath>
</defs>
</svg>
