<svg width="250" height="250" viewBox="0 0 250 250" fill="none" xmlns="http://www.w3.org/2000/svg">
	<path d="M125 230.6C174.813 230.6 215.195 226.669 215.195 221.82C215.195 216.971 174.813 213.04 125 213.04C75.1867 213.04 34.805 216.971 34.805 221.82C34.805 226.669 75.1867 230.6 125 230.6Z" fill="#EBEBEB" />
	<path d="M107 162.065C107 154.065 108.307 146.877 110.92 140.5C113.533 134.123 118.923 128.568 127.09 123.835C129.543 122.365 132.567 120.698 136.16 118.835C139.858 116.893 143.382 114.638 146.695 112.095C150.082 109.534 153.021 106.43 155.395 102.91C157.788 99.3213 159.028 95.0876 158.95 90.7749C159.022 87.634 158.354 84.5202 157 81.6849C155.751 79.1538 154.001 76.9031 151.855 75.0699C149.651 73.2332 147.101 71.8576 144.355 71.025C141.54 70.1365 138.607 69.6829 135.655 69.6799C132.31 69.6342 128.989 70.2528 125.885 71.4999C123.029 72.6766 120.351 74.2432 117.925 76.1549C115.561 78.0266 113.422 80.1658 111.55 82.5299C109.827 84.6789 108.233 86.9278 106.775 89.2649H103.085L85.45 74.565C87.4898 69.6218 90.3482 65.0579 93.905 61.0649C97.3829 57.1717 101.428 53.8257 105.905 51.1399C110.459 48.4326 115.372 46.3823 120.5 45.0499C125.778 43.6558 131.216 42.9549 136.675 42.965C142.9 42.9684 149.091 43.8763 155.055 45.66C161.002 47.4103 166.542 50.3269 171.35 54.24C176.317 58.3516 180.332 63.4936 183.115 69.3099C186.135 75.4366 187.645 82.7483 187.645 91.2449C187.721 95.9253 187.102 100.591 185.81 105.09C184.637 108.982 182.857 112.664 180.535 116C178.236 119.28 175.518 122.245 172.45 124.82C169.119 127.595 165.597 130.133 161.91 132.415C158.64 134.382 155.373 136.262 152.11 138.055C148.952 139.778 145.957 141.786 143.165 144.055C140.535 146.186 138.295 148.758 136.545 151.655C134.832 154.515 133.975 157.987 133.975 162.07L107 162.065ZM107.5 219.16V185.345H134.7V219.16H107.5Z" fill="#3f51b5" />
	<g opacity="0.2">
		<path d="M107 162.065C107 154.065 108.307 146.877 110.92 140.5C113.533 134.123 118.923 128.568 127.09 123.835C129.543 122.365 132.567 120.698 136.16 118.835C139.858 116.893 143.382 114.638 146.695 112.095C150.082 109.534 153.021 106.43 155.395 102.91C157.788 99.3213 159.028 95.0876 158.95 90.7749C159.022 87.634 158.354 84.5202 157 81.6849C155.751 79.1538 154.001 76.9031 151.855 75.0699C149.651 73.2332 147.101 71.8576 144.355 71.025C141.54 70.1365 138.607 69.6829 135.655 69.6799C132.31 69.6342 128.989 70.2528 125.885 71.4999C123.029 72.6766 120.351 74.2432 117.925 76.1549C115.561 78.0266 113.422 80.1658 111.55 82.5299C109.827 84.6789 108.233 86.9278 106.775 89.2649H103.085L85.45 74.565C87.4898 69.6218 90.3482 65.0579 93.905 61.0649C97.3829 57.1717 101.428 53.8257 105.905 51.1399C110.459 48.4326 115.372 46.3823 120.5 45.0499C125.778 43.6558 131.216 42.9549 136.675 42.965C142.9 42.9684 149.091 43.8763 155.055 45.66C161.002 47.4103 166.542 50.3269 171.35 54.24C176.317 58.3516 180.332 63.4936 183.115 69.3099C186.135 75.4366 187.645 82.7483 187.645 91.2449C187.721 95.9253 187.102 100.591 185.81 105.09C184.637 108.982 182.857 112.664 180.535 116C178.236 119.28 175.518 122.245 172.45 124.82C169.119 127.595 165.597 130.133 161.91 132.415C158.64 134.382 155.373 136.262 152.11 138.055C148.952 139.778 145.957 141.786 143.165 144.055C140.535 146.186 138.295 148.758 136.545 151.655C134.832 154.515 133.975 157.987 133.975 162.07L107 162.065ZM107.5 219.16V185.345H134.7V219.16H107.5Z" fill="black" />
	</g>
	<path d="M103.33 162.065C103.33 154.065 104.637 146.877 107.25 140.5C109.863 134.123 115.255 128.568 123.425 123.835C125.875 122.365 128.897 120.698 132.49 118.835C136.19 116.894 139.716 114.639 143.03 112.095C146.416 109.533 149.355 106.429 151.73 102.91C154.119 99.3198 155.358 95.0868 155.28 90.775C155.345 87.6416 154.673 84.5368 153.32 81.71C152.071 79.1788 150.321 76.9282 148.175 75.095C145.971 73.2582 143.421 71.8827 140.675 71.05C137.86 70.1615 134.927 69.708 131.975 69.705C128.63 69.6496 125.307 70.2597 122.2 71.5C119.343 72.6769 116.663 74.2434 114.235 76.155C111.872 78.0267 109.735 80.166 107.865 82.53C106.141 84.679 104.544 86.9279 103.085 89.265L81.765 74.565C83.8033 69.6211 86.6619 65.057 90.22 61.065C93.6965 57.1703 97.7423 53.8241 102.22 51.14C106.772 48.4334 111.684 46.3832 116.81 45.05C122.093 43.6541 127.536 42.9532 133 42.965C139.225 42.9681 145.416 43.876 151.38 45.66C157.328 47.4092 162.867 50.326 167.675 54.24C172.643 58.3505 176.658 63.4928 179.44 69.31C182.46 75.4367 183.972 82.7483 183.975 91.245C184.049 95.9256 183.429 100.591 182.135 105.09C180.959 108.983 179.174 112.666 176.845 116C174.546 119.28 171.828 122.245 168.76 124.82C165.431 127.598 161.908 130.136 158.22 132.415C154.957 134.382 151.69 136.262 148.42 138.055C145.262 139.778 142.268 141.786 139.475 144.055C136.847 146.186 134.609 148.758 132.86 151.655C131.147 154.515 130.288 157.987 130.285 162.07L103.33 162.065ZM103.83 219.16V185.345H131V219.16H103.83Z" fill="#3f51b5" />
	<path d="M92.12 221.865C91.055 222.205 60.69 221.815 59.545 221.065C59.105 220.785 58.905 216.36 58.815 211V210.835C58.815 209.73 58.78 208.59 58.775 207.44C58.775 207.28 58.775 207.12 58.775 206.965C58.735 199.235 58.855 191.21 58.855 191.21L79.17 191.415L78.555 207L78.53 207.62L78.405 210.85V211.18C78.405 211.18 89.95 216.55 91.125 217.5C92.3 218.45 93.185 221.525 92.12 221.865Z" fill="#AD6359" />
	<path d="M92.12 221.865C91.055 222.205 60.69 221.815 59.545 221.065C59.105 220.785 58.905 216.36 58.815 211V210.835C58.815 209.73 58.78 208.59 58.775 207.44C58.775 207.28 58.775 207.12 58.775 206.965L78.56 207.02L78.535 207.64L78.41 210.87V211.2C78.41 211.2 89.95 216.55 91.125 217.5C92.3 218.45 93.185 221.525 92.12 221.865Z" fill="#EBEBEB" />
	<path d="M92.12 221.865C91.465 222.075 79.7 222.005 70.49 221.745C64.74 221.59 59.99 221.35 59.545 221.065C59.1 220.78 58.91 216.485 58.82 211.225C58.82 211.15 58.82 211.075 58.82 211C58.82 210.925 58.82 210.885 58.82 210.83L78.415 210.87V211.2C78.415 211.2 89.975 216.55 91.145 217.505C92.315 218.46 93.185 221.525 92.12 221.865Z" fill="#3f51b5" />
	<path d="M91.795 220.68C86.675 220.49 66.02 220.18 60.945 220.395C60.905 220.395 60.905 220.425 60.945 220.43C66.015 220.73 86.67 220.855 91.79 220.765C91.9 220.765 91.9 220.685 91.795 220.68Z" fill="#263238" />
	<path d="M80.585 210.95C78.585 210.55 76.11 210.825 74.55 212.24C74.49 212.295 74.55 212.38 74.635 212.36C76.5685 211.766 78.5596 211.379 80.575 211.205C80.6048 211.2 80.632 211.186 80.6521 211.163C80.6722 211.14 80.6838 211.112 80.685 211.082C80.6862 211.051 80.6768 211.022 80.6586 210.998C80.6403 210.974 80.6143 210.957 80.585 210.95Z" fill="#263238" />
	<path d="M82.03 211.845C80.03 211.445 77.555 211.72 75.995 213.135C75.935 213.19 75.995 213.275 76.08 213.255C78.0069 212.662 79.9913 212.274 82 212.1C82.0309 212.099 82.0603 212.086 82.083 212.065C82.1057 212.044 82.1201 212.016 82.1237 211.985C82.1274 211.955 82.1199 211.924 82.1027 211.898C82.0855 211.872 82.0597 211.853 82.03 211.845Z" fill="#263238" />
	<path d="M83.47 212.74C81.47 212.34 78.995 212.615 77.435 214.03C77.375 214.085 77.435 214.17 77.52 214.15C79.4537 213.557 81.4448 213.172 83.46 213C83.4944 213.001 83.528 212.989 83.5534 212.965C83.5787 212.942 83.5936 212.909 83.595 212.875C83.5963 212.84 83.5839 212.807 83.5604 212.782C83.537 212.756 83.5044 212.741 83.47 212.74Z" fill="#263238" />
	<path d="M83.265 206.59C82.485 205.49 81.005 205.965 80.155 206.66C78.7178 207.881 77.6278 209.459 76.995 211.235C76.9917 211.243 76.9903 211.251 76.9909 211.259C76.9916 211.267 76.9943 211.275 76.9987 211.282C77.0032 211.289 77.0093 211.295 77.0165 211.299C77.0237 211.303 77.0317 211.305 77.04 211.305C77.04 211.46 77.18 211.625 77.355 211.56C79.025 210.965 80.885 210.56 82.325 209.45C83.165 208.815 84 207.635 83.265 206.59ZM79.7 210.14C78.885 210.455 78.06 210.725 77.26 211.065C77.88 210.175 78.455 209.265 79.165 208.435C79.5015 208.034 79.8622 207.653 80.245 207.295C80.855 206.76 83.245 205.63 82.855 207.835C82.645 209.05 80.675 209.77 79.7 210.14Z" fill="#263238" />
	<path d="M71.88 210.64C73.53 211.37 75.44 211.36 77.205 211.555C77.385 211.555 77.48 211.38 77.45 211.23C77.4577 211.227 77.4648 211.223 77.4707 211.218C77.4766 211.212 77.4812 211.205 77.484 211.197C77.4869 211.19 77.488 211.181 77.4873 211.173C77.4866 211.165 77.4841 211.157 77.48 211.15C76.4518 209.569 75.028 208.285 73.35 207.425C72.35 206.925 70.81 206.825 70.31 208.075C69.81 209.325 70.915 210.215 71.88 210.64ZM70.99 209.19C70.11 207.135 72.695 207.69 73.405 208.07C73.8636 208.324 74.3031 208.612 74.72 208.93C75.5764 209.593 76.3975 210.301 77.18 211.05C76.32 210.9 75.455 210.83 74.59 210.71C73.56 210.575 71.5 210.325 71 209.19H70.99Z" fill="#263238" />
	<path d="M70.5 221.745C64.75 221.59 60 221.35 59.555 221.065C59.11 220.78 58.92 216.485 58.83 211.225C61.18 213.33 67.04 218.555 70.5 221.745Z" fill="#263238" />
	<path d="M52.62 103.74C52.62 103.74 57.18 155.05 57.92 158.965C58.095 159.86 58.2 164.71 58.27 170.94C58.425 184.545 58.335 209.075 58.335 209.075H79.74C79.74 209.075 79.105 166.575 78.155 158.75C77.205 150.925 71.155 103.75 71.155 103.75L52.62 103.74Z" fill="#37474F" />
	<path d="M78.77 205.345C75.43 205.275 76.39 205.25 73.05 205.215C71.415 205.215 60.675 205.11 59.145 205.36C59.1357 205.36 59.1268 205.364 59.1202 205.37C59.1137 205.377 59.11 205.386 59.11 205.395C59.11 205.404 59.1137 205.413 59.1202 205.42C59.1268 205.426 59.1357 205.43 59.145 205.43C60.675 205.68 71.415 205.59 73.05 205.57C76.39 205.54 75.43 205.515 78.77 205.445C78.7832 205.445 78.796 205.44 78.8053 205.43C78.8147 205.421 78.82 205.408 78.82 205.395C78.82 205.382 78.8147 205.369 78.8053 205.36C78.796 205.35 78.7832 205.345 78.77 205.345Z" fill="#263238" />
	<path d="M62.4 181.05C62.3733 177.943 62.35 174.838 62.33 171.735C62.33 168.735 62.33 165.735 62.17 162.735C61.88 156.65 60.67 150.67 59.77 144.655C58.87 138.64 58.16 132.6 57.495 126.555C56.75 119.775 56.095 112.98 55.4 106.195C55.4 106.15 55.32 106.15 55.325 106.195C56.325 118.315 57.46 130.43 59.135 142.475C59.555 145.475 60.0117 148.465 60.505 151.445C61.005 154.445 61.505 157.485 61.74 160.54C61.975 163.595 62.01 166.54 62.04 169.54C62.0767 172.647 62.1083 175.75 62.135 178.85C62.2 185.74 62.265 196.35 62.335 203.24C62.3402 203.263 62.3532 203.284 62.3718 203.299C62.3904 203.314 62.4136 203.322 62.4375 203.322C62.4614 203.322 62.4846 203.314 62.5032 203.299C62.5218 203.284 62.5348 203.263 62.54 203.24C62.5 197.06 62.445 187.195 62.4 181.05Z" fill="#263238" />
	<path d="M48.105 103.74C48.105 103.74 57.18 155.05 57.92 158.965C58.095 159.86 58.2 164.71 58.27 170.94L68.5 103.74H48.105Z" fill="#263238" />
	<path d="M67.265 223.675C66.18 223.94 35.915 221.395 34.825 220.57C34.405 220.26 34.52 215.83 34.825 210.48C34.825 210.425 34.825 210.365 34.825 210.31C34.885 209.21 34.95 208.075 35.03 206.925L35.06 206.425C35.56 198.71 36.255 190.715 36.255 190.715L56.5 192.385L54.785 207.885L54.72 208.5L54.37 211.715L54.335 212.045C54.335 212.045 65.48 218.2 66.585 219.235C67.69 220.27 68.35 223.41 67.265 223.675Z" fill="#AD6359" />
	<path d="M67.265 223.675C66.18 223.94 35.915 221.395 34.825 220.57C34.405 220.26 34.52 215.83 34.825 210.48C34.825 210.425 34.825 210.365 34.825 210.31C34.885 209.21 34.95 208.075 35.03 206.925L35.06 206.425L54.785 207.88L54.72 208.495L54.37 211.71L54.335 212.04C54.335 212.04 65.48 218.195 66.585 219.23C67.69 220.265 68.35 223.41 67.265 223.675Z" fill="#EBEBEB" />
	<path d="M67.265 223.675C66.18 223.94 35.915 221.395 34.825 220.57C34.405 220.26 34.52 215.83 34.825 210.48C34.825 210.425 34.825 210.365 34.825 210.31L54.37 211.735L54.335 212.065C54.335 212.065 65.48 218.22 66.585 219.255C67.69 220.29 68.35 223.41 67.265 223.675Z" fill="#3f51b5" />
	<path d="M67 222.47C61.91 221.915 41.325 220.165 36.25 220C36.21 220 36.205 220.03 36.25 220.035C41.28 220.695 61.88 222.28 66.995 222.535C67.12 222.56 67.13 222.5 67 222.47Z" fill="#263238" />
	<path d="M56.53 211.97C54.53 211.43 52.075 211.53 50.42 212.83C50.355 212.88 50.42 212.975 50.495 212.96C52.4629 212.501 54.4744 212.255 56.495 212.225C56.5263 212.225 56.5565 212.214 56.58 212.193C56.6035 212.172 56.6188 212.144 56.6231 212.113C56.6273 212.082 56.6203 212.05 56.6032 212.024C56.5861 211.998 56.5601 211.979 56.53 211.97Z" fill="#263238" />
	<path d="M57.91 212.965C55.91 212.425 53.45 212.525 51.795 213.825C51.735 213.875 51.795 213.97 51.87 213.955C53.838 213.496 55.8495 213.25 57.87 213.22C57.9018 213.221 57.9328 213.211 57.9573 213.19C57.9818 213.17 57.9981 213.142 58.003 213.11C58.0079 213.079 58.0012 213.047 57.9841 213.02C57.9669 212.993 57.9406 212.974 57.91 212.965Z" fill="#263238" />
	<path d="M59.285 213.96C57.285 213.42 54.825 213.52 53.17 214.82C53.11 214.87 53.17 214.965 53.25 214.95C55.2179 214.491 57.2294 214.244 59.25 214.215C59.2813 214.215 59.3115 214.204 59.335 214.183C59.3585 214.162 59.3738 214.134 59.3781 214.103C59.3824 214.072 59.3753 214.04 59.3582 214.014C59.3411 213.988 59.3151 213.969 59.285 213.96Z" fill="#263238" />
	<path d="M59.5 207.815C58.805 206.66 57.295 207.025 56.395 207.66C54.8658 208.772 53.6582 210.27 52.895 212C52.895 212.04 52.895 212.065 52.935 212.075C52.9303 212.114 52.935 212.154 52.9485 212.19C52.962 212.227 52.984 212.26 53.0128 212.287C53.0415 212.314 53.0761 212.334 53.1139 212.345C53.1516 212.355 53.1914 212.357 53.23 212.35C54.935 211.875 56.825 211.58 58.335 210.595C59.255 210 60.17 208.905 59.5 207.815ZM55.695 211.1C54.86 211.355 54.02 211.565 53.195 211.85C53.8469 210.982 54.5428 210.147 55.28 209.35C55.6423 208.971 56.0298 208.617 56.44 208.29C57.085 207.79 59.545 206.835 59.005 209.01C58.72 210.22 56.7 210.8 55.705 211.1H55.695Z" fill="#263238" />
	<path d="M47.8699 211.045C49.4649 211.89 51.37 212.015 53.115 212.33C53.295 212.365 53.4049 212.18 53.3849 212.03C53.3927 212.028 53.3998 212.023 53.4057 212.018C53.4116 212.012 53.4161 212.005 53.419 211.997C53.4219 211.99 53.423 211.981 53.4223 211.973C53.4216 211.965 53.4191 211.957 53.415 211.95C52.5045 210.301 51.1747 208.921 49.56 207.95C48.61 207.395 47.0599 207.17 46.4849 208.38C45.9099 209.59 46.9399 210.55 47.8699 211.045ZM47.0849 209.545C46.3499 207.43 48.8899 208.165 49.5849 208.595C50.0227 208.885 50.4403 209.204 50.8349 209.55C51.6426 210.273 52.412 211.037 53.1399 211.84C52.2899 211.63 51.435 211.495 50.58 211.34C49.55 211.095 47.4999 210.705 47.0849 209.535V209.545Z" fill="#263238" />
	<path d="M55.235 210.23L33.85 209.325C33.85 209.325 39.69 162.395 39.795 159.5C40.075 152 45.05 103.705 45.05 103.705H71.17C71.17 103.705 69.52 114.86 66.705 121.93C64.8102 122.593 62.9807 123.43 61.24 124.43C61.24 124.43 58.79 156.375 58.7 160.36C58.5 168.25 55.235 210.23 55.235 210.23Z" fill="#37474F" />
	<path d="M54.665 206.31C51.335 206.1 52.295 206.115 48.955 205.94C47.325 205.855 36.595 205.31 35.06 205.495C35.025 205.495 35.025 205.555 35.06 205.565C36.56 205.88 47.315 206.245 48.945 206.295C52.285 206.405 51.33 206.34 54.67 206.41C54.6833 206.409 54.6957 206.404 54.7046 206.394C54.7135 206.384 54.7182 206.371 54.7175 206.358C54.7168 206.344 54.7109 206.332 54.7011 206.323C54.6912 206.314 54.6783 206.309 54.665 206.31Z" fill="#263238" />
	<path d="M46.965 106.585C45.995 118.75 45 130.92 43.885 143.085C42.77 155.25 41.465 167.465 39.885 179.61C39 186.385 38 195.94 36.945 202.7C36.945 202.745 37.005 202.765 37.015 202.7C39.17 190.7 40.755 175.78 42.1 163.655C43.445 151.53 44.55 139.37 45.535 127.21C46.09 120.33 46.59 113.445 47.12 106.565C47.125 106.5 47 106.5 46.965 106.585Z" fill="#263238" />
	<path d="M67.635 121.46C65.4197 122.271 63.2799 123.275 61.24 124.46C61.2227 124.468 61.2093 124.482 61.2028 124.5C61.1962 124.518 61.197 124.538 61.205 124.555C61.2129 124.572 61.2274 124.586 61.2452 124.592C61.263 124.599 61.2827 124.598 61.3 124.59C63.455 123.665 65.65 122.78 67.75 121.735C67.7864 121.72 67.8153 121.691 67.8303 121.654C67.8453 121.618 67.8452 121.576 67.83 121.54C67.8147 121.504 67.7856 121.475 67.749 121.46C67.7125 121.445 67.6714 121.445 67.635 121.46Z" fill="#263238" />
	<path d="M68.32 106.675C68.32 106.6 68.185 106.585 68.185 106.675C68.185 109.23 68.04 111.48 67.825 113.875C67.725 114.985 66.825 121.115 64.905 120.67C64.585 120.595 64.405 120.275 64.37 119.79C64.3736 119.155 64.4593 118.523 64.625 117.91C64.835 116.625 65.01 115.34 65.125 114.04C65.3484 111.625 65.3216 109.194 65.045 106.785C65.0411 106.771 65.0329 106.76 65.0216 106.751C65.0104 106.742 64.9966 106.738 64.9825 106.738C64.9684 106.738 64.9546 106.742 64.9434 106.751C64.9321 106.76 64.9239 106.771 64.92 106.785C64.9769 110.128 64.7814 113.471 64.335 116.785C64.095 118.38 63.29 120.785 64.96 121.025C66.63 121.265 67.76 117.255 67.96 116.155C68.4906 113.024 68.6117 109.837 68.32 106.675Z" fill="#263238" />
	<path d="M64.955 120.825C64.7819 121.238 64.6382 121.662 64.525 122.095C64.3987 122.429 64.3376 122.783 64.345 123.14C64.345 123.21 64.44 123.215 64.475 123.17C64.6738 122.861 64.8255 122.524 64.925 122.17C65.07 121.775 65.225 121.385 65.36 120.985C65.3812 120.931 65.3802 120.871 65.3572 120.818C65.3342 120.765 65.2912 120.724 65.2375 120.702C65.1837 120.681 65.1238 120.682 65.0708 120.705C65.0179 120.728 64.9762 120.771 64.955 120.825Z" fill="#263238" />
	<path d="M56.245 108.68C56.251 108.413 56.2242 108.146 56.165 107.885C56.1612 107.878 56.1554 107.871 56.1484 107.867C56.1413 107.863 56.1332 107.861 56.125 107.861C56.1167 107.861 56.1086 107.863 56.1015 107.867C56.0945 107.871 56.0887 107.878 56.085 107.885C56.0321 108.111 56.002 108.343 55.995 108.575C55.995 108.84 55.935 109.075 55.905 109.365C55.8494 109.906 55.7558 110.442 55.625 110.97C55.3816 111.966 54.8737 112.878 54.155 113.61C53.4382 114.315 52.5884 114.871 51.655 115.245C50.6219 115.611 49.5685 115.916 48.5 116.16C48.4894 116.16 48.4792 116.164 48.4717 116.172C48.4642 116.179 48.46 116.189 48.46 116.2C48.46 116.211 48.4642 116.221 48.4717 116.228C48.4792 116.236 48.4894 116.24 48.5 116.24C49.683 116.238 50.8545 116.007 51.95 115.56C52.9211 115.196 53.805 114.632 54.545 113.905C55.2836 113.154 55.8024 112.215 56.045 111.19C56.1674 110.661 56.2377 110.122 56.255 109.58C56.2691 109.28 56.2658 108.98 56.245 108.68Z" fill="#263238" />
	<path d="M81.81 59.7901C83.42 61.7351 85.17 66.9901 85.105 68.4251C85.04 69.8601 76.195 73.1201 74.945 72.3401C73.695 71.5601 68.775 64.6101 68.73 62.0351C68.685 59.4601 80.14 57.7801 81.81 59.7901Z" fill="#AD6359" />
	<path d="M68.5 56.22C67.69 55.375 65.07 52.85 63.905 53.99C63.175 54.7 64.935 56.645 65.675 57.415C67.2 58.995 68.38 61.79 68.93 63.155C69.48 64.52 72.055 61.825 72.055 61.825C72.055 61.825 70.615 58.415 68.5 56.22Z" fill="#AD6359" />
	<path d="M70.65 64.68C70.65 64.68 71.555 67.11 73.03 67.055C74.505 67 74.13 64.91 74.11 64.76C74.155 64.89 75.045 67.1 76.525 66.895C78.005 66.69 77.375 64.635 77.33 64.505C77.41 64.61 78.55 66.005 79.635 65.59C81.505 64.88 78.7 61.245 78.97 59.65C78.97 59.65 81.73 59.805 81.81 59.79C81.81 59.79 79.21 56.29 77.035 56.03C76.7185 55.9862 76.3965 56.0527 76.1233 56.2185C75.8501 56.3842 75.6423 56.639 75.535 56.94C75.535 56.94 74.82 55.715 73.65 55.84C73.05 55.905 72.62 56.925 72.62 56.925C72.4446 56.6558 72.198 56.4404 71.9077 56.3027C71.6173 56.165 71.2945 56.1104 70.975 56.145C70.15 56.28 69.74 57.31 69.695 57.71C69.345 60.77 70.65 64.68 70.65 64.68Z" fill="#AD6359" />
	<path d="M69.79 57.4299C69.79 57.4299 69.755 57.4299 69.75 57.4299C69.2991 59.915 69.6147 62.4784 70.655 64.7799C70.69 64.8499 70.82 64.8249 70.795 64.7399C70.1088 62.3646 69.7703 59.9023 69.79 57.4299Z" fill="#263238" />
	<path d="M72.615 56.8899C72.615 56.8599 72.57 56.8599 72.565 56.8899C72.0988 59.634 72.6309 62.4544 74.065 64.8399C74.12 64.9249 74.25 64.9449 74.195 64.8399C73.28 63.1799 72.565 59.2049 72.615 56.8899Z" fill="#263238" />
	<path d="M77.5 64.635C76.13 62.285 75.645 59.735 75.53 57.04C75.53 57.005 75.48 57.01 75.47 57.04C75.17 58.375 75.425 60.08 75.735 61.395C76.0005 62.6183 76.5814 63.7508 77.42 64.68C77.445 64.72 77.5 64.685 77.5 64.635Z" fill="#263238" />
	<path d="M70.65 64.68C70.8675 65.129 71.1252 65.5574 71.42 65.96C71.6906 66.3632 72.0633 66.6875 72.5 66.9C72.7076 66.9797 72.9373 66.9797 73.145 66.9C73.3573 66.8241 73.5467 66.695 73.695 66.525C73.8261 66.3429 73.9178 66.1355 73.9643 65.916C74.0108 65.6964 74.011 65.4696 73.965 65.25L73.78 64.17L74.33 65.12C74.5704 65.5448 74.8777 65.928 75.24 66.255C75.3982 66.4156 75.5889 66.5406 75.7992 66.6217C76.0096 66.7027 76.2349 66.738 76.46 66.725C76.6697 66.7123 76.8686 66.6279 77.0234 66.4859C77.1782 66.3438 77.2793 66.1529 77.31 65.945C77.368 65.4776 77.3078 65.0031 77.135 64.565L76.69 63.345L77.505 64.345C77.7317 64.6242 77.992 64.8744 78.28 65.09C78.5472 65.3015 78.8705 65.4301 79.21 65.46C79.3631 65.467 79.5151 65.4315 79.6493 65.3573C79.7834 65.2832 79.8944 65.1734 79.97 65.04C80.0879 64.7202 80.1138 64.3738 80.045 64.04C79.9016 63.3022 79.701 62.5767 79.445 61.87C79.325 61.51 79.205 61.145 79.105 60.775C78.9823 60.4118 78.938 60.0266 78.975 59.645C78.9817 60.0229 79.0597 60.3961 79.205 60.745C79.335 61.1 79.48 61.45 79.625 61.805C79.9352 62.5122 80.1779 63.2472 80.35 64C80.4528 64.4045 80.4355 64.8302 80.3 65.225C80.2023 65.4321 80.046 65.6059 79.8505 65.725C79.6549 65.8441 79.4288 65.9032 79.2 65.895C78.7774 65.8712 78.3717 65.7214 78.035 65.465C77.7095 65.232 77.4155 64.9581 77.16 64.65L77.53 64.43C77.7456 64.9427 77.8231 65.503 77.755 66.055C77.7092 66.3622 77.557 66.6436 77.325 66.85C77.0936 67.0426 76.8096 67.161 76.51 67.19C76.2241 67.2076 75.9377 67.1636 75.6703 67.061C75.4029 66.9583 75.1606 66.7994 74.96 66.595C74.5578 66.2345 74.2197 65.8085 73.96 65.335L74.325 65.205C74.3717 65.4792 74.3584 65.7602 74.2859 66.0287C74.2134 66.2972 74.0834 66.5467 73.905 66.76C73.7123 66.9609 73.4713 67.109 73.205 67.19C72.9338 67.2737 72.6411 67.2523 72.385 67.13C71.9251 66.8786 71.5456 66.5025 71.29 66.045C71.0257 65.6157 70.8109 65.1578 70.65 64.68Z" fill="#263238" />
	<path d="M73.9 71.3049C73.9 71.3049 64.365 66.4299 68.1 63.6399C69.205 62.8099 74.75 60.7249 75.19 61.8299C75.76 63.2549 73.605 64.5599 72.125 65.1599C72.125 65.1599 75.6 66.3649 75.485 69.0299C75.4561 69.5184 75.2927 69.9893 75.013 70.3908C74.7333 70.7922 74.3481 71.1086 73.9 71.3049Z" fill="#AD6359" />
	<path d="M67.805 63.8899C68.1985 63.5115 68.6469 63.1946 69.135 62.9499C69.62 62.6915 70.121 62.4644 70.635 62.2699C71.656 61.8689 72.7099 61.5577 73.785 61.3399C74.0709 61.28 74.3641 61.2631 74.655 61.2899C74.831 61.3008 75.0021 61.3521 75.155 61.4399C75.2344 61.486 75.3054 61.5451 75.365 61.6149C75.4239 61.6844 75.4696 61.7641 75.5 61.8499C75.615 62.1579 75.615 62.497 75.5 62.8049C75.3946 63.0859 75.2387 63.3451 75.04 63.5699C74.6633 63.9962 74.2148 64.3533 73.715 64.6249C73.2342 64.9001 72.7326 65.1375 72.215 65.3349V64.9799C72.6067 65.1329 72.9834 65.322 73.34 65.5449C73.6987 65.7612 74.0338 66.0142 74.34 66.2999C74.6417 66.5936 74.8978 66.9306 75.1 67.2999C75.3046 67.6596 75.4387 68.055 75.495 68.4649C75.3891 68.0751 75.2202 67.7052 74.995 67.3699C74.765 67.0451 74.4926 66.7525 74.185 66.4999C73.8762 66.2419 73.541 66.0174 73.185 65.8299C72.839 65.6393 72.4757 65.4819 72.1 65.3599L71.635 65.2149L72.085 65.0049C72.5725 64.7937 73.0453 64.5498 73.5 64.2749C73.9492 64.0157 74.3543 63.6866 74.7 63.2999C74.8656 63.1398 74.9874 62.9399 75.0539 62.7194C75.1204 62.4988 75.1294 62.2649 75.08 62.0399C74.97 61.6899 74.375 61.7049 73.87 61.7799C73.365 61.8549 72.83 61.9899 72.305 62.1199C71.78 62.2499 71.265 62.3949 70.75 62.5599C69.7053 62.848 68.7118 63.2967 67.805 63.8899Z" fill="#263238" />
	<path d="M62.925 78.2049C71.355 88.6099 83.61 95.3499 86.635 93.1549C89.66 90.9599 79.465 79.47 79.29 79.3C78.695 78.73 74.185 76.3849 65.995 72.9349C57.96 69.5499 59.16 73.5599 62.925 78.2049Z" fill="#AD6359" />
	<path d="M75.5 77L69.15 85.35C69.15 85.35 63.82 79.85 61 76.21C58.18 72.57 58.46 69.74 64.77 72.09C68.4638 73.4574 72.0504 75.0987 75.5 77Z" fill="#3f51b5" />
	<path d="M68.545 83.4349C69.32 82.2949 70.13 81.1749 70.96 80.0799C71.375 79.5399 71.775 78.9899 72.2 78.4549C72.625 77.9199 73.11 77.3849 73.545 76.8349C73.575 76.7949 73.635 76.8349 73.605 76.8749C73.205 77.4249 72.845 77.9999 72.445 78.5499C72.045 79.0999 71.605 79.6699 71.18 80.2299C70.3433 81.3299 69.4816 82.4099 68.595 83.4699C68.57 83.4999 68.5 83.4699 68.545 83.4349Z" fill="#263238" />
	<path d="M72.19 81.3401L69.15 85.3401C69.15 85.3401 63.82 79.8401 61 76.2001L60.7299 75.8452L60.615 75.6802L60.4399 75.4252C60.2899 75.2052 60.155 74.9902 60.035 74.7802C59.99 74.7052 59.95 74.6302 59.91 74.5552C59.7014 74.1757 59.5338 73.7751 59.41 73.3602C59.3731 73.2321 59.3447 73.1019 59.325 72.9702C59.325 72.9052 59.325 72.8452 59.325 72.7852C62.095 74.7052 68.595 78.9101 72.19 81.3401Z" fill="#263238" />
	<path d="M72.445 108.865C72.445 108.865 43.51 109.365 43.34 109.185C42.89 108.685 48.735 78.8901 54.78 72.7501C56.915 70.5801 61.32 71.4651 62.055 71.8201C63.75 72.6401 65.345 74.4101 66.68 77.6901C69.35 84.2501 72.81 108.395 72.445 108.865Z" fill="#3f51b5" />
	<path opacity="0.1" d="M63.5 72.8001H54.735L54.78 72.7501C54.9839 72.5438 55.2104 72.361 55.455 72.2051H62.73C63.0024 72.3822 63.2599 72.5812 63.5 72.8001ZM64.465 73.8001H53.91C53.77 73.9851 53.635 74.1851 53.5 74.3951H64.925C64.78 74.1851 64.63 74.0001 64.5 73.8001H64.465ZM65.555 75.3951H52.895C52.785 75.5901 52.675 75.7901 52.57 75.9951H65.895C65.79 75.7901 65.68 75.5851 65.565 75.3951H65.555ZM66.37 76.9951H52.065L51.78 77.5901H66.635C66.555 77.3851 66.47 77.1851 66.38 77.0001L66.37 76.9951ZM67.005 78.5901H51.34L51.085 79.1851H67.21C67.145 79.0001 67.08 78.7801 67 78.5901H67.005ZM67.505 80.1851H50.68C50.605 80.3851 50.525 80.5801 50.445 80.7851H67.68L67.505 80.1851ZM67.935 81.7801H50.075C50.005 81.9801 49.93 82.1751 49.86 82.3801H68.095C68.0317 82.1767 67.9817 81.9767 67.945 81.7801H67.935ZM68.325 83.3801H49.5C49.43 83.5751 49.365 83.7751 49.3 83.9751H68.46L68.325 83.3801ZM68.685 84.9751H49C48.935 85.1701 48.875 85.3701 48.81 85.5701H68.85C68.78 85.3701 68.74 85.1701 68.695 85.0001L68.685 84.9751ZM69.025 86.5701H48.5C48.435 86.7651 48.375 86.9651 48.315 87.1701H69.185C69.12 86.9701 69.08 86.7701 69.035 86.5701H69.025ZM69.35 88.1651H48C47.94 88.3651 47.88 88.5651 47.825 88.7651H69.5L69.35 88.1651ZM69.66 89.7651H47.53C47.47 89.9651 47.415 90.1601 47.36 90.3601H69.78C69.745 90.1601 69.71 89.9601 69.67 89.7651H69.66ZM69.955 91.3601H47.085C47.03 91.5601 46.975 91.7601 46.925 91.9551H70.075C70.04 91.7551 70 91.5601 69.965 91.3601H69.955ZM70.24 92.9551H46.66C46.605 93.1551 46.555 93.3551 46.505 93.5551H70.355C70.325 93.3551 70.29 93.1551 70.25 92.9551H70.24ZM70.525 94.5551H46.245C46.2 94.7551 46.15 94.9501 46.1 95.1501H70.63C70.6 94.9551 70.565 94.7551 70.535 94.5551H70.525ZM70.785 96.1501H45.85C45.805 96.3501 45.755 96.5501 45.71 96.7451H70.895C70.865 96.5501 70.83 96.3501 70.795 96.1501H70.785ZM71.045 97.7451H45.47C45.425 97.9501 45.38 98.1501 45.33 98.3451H71.15C71.12 98.1451 71.09 97.9501 71.055 97.7451H71.045ZM71.3 99.3401H45.105C45.06 99.5401 45.015 99.7451 44.97 99.9401H71.395C71.365 99.7451 71.335 99.5451 71.31 99.3401H71.3ZM71.535 100.94H44.75C44.71 101.14 44.665 101.34 44.625 101.535H71.625L71.535 100.94ZM71.765 102.535H44.41C44.37 102.74 44.33 102.935 44.29 103.13H71.86C71.83 102.935 71.805 102.735 71.775 102.535H71.765ZM71.985 104.13H44.095C44.0483 104.337 44.0083 104.537 43.975 104.73H72.075C72.05 104.535 72 104.335 72 104.13H71.985ZM72.185 105.725H43.79C43.75 105.935 43.715 106.135 43.68 106.325H72.27C72.25 106.135 72.225 105.935 72.195 105.725H72.185ZM72.37 107.325H43.5C43.465 107.54 43.44 107.74 43.41 107.92H72.41C72.42 107.745 72.4 107.545 72.38 107.325H72.37ZM43.31 108.92C43.2878 109.007 43.2878 109.098 43.31 109.185C43.445 109.32 61.39 109.045 69.035 108.92H43.31Z" fill="#030402" />
	<path d="M56.43 76.36C54.48 79.035 44.48 90.09 44.11 91.115C43.74 92.14 46.055 94.405 46.015 94.83C45.865 96.56 42.13 108.07 40.635 106.9C38.665 105.36 30.325 94.33 31.505 89.555C32.685 84.78 52.16 73.315 55.25 72.32C58.34 71.325 58.355 73.72 56.43 76.36Z" fill="#AD6359" />
	<path d="M48.575 86.425L42.895 78.45C42.895 78.45 49.25 74.28 53.5 72.5C57.75 70.72 59.845 71.71 55.96 77.205C53.6889 80.4263 51.2227 83.5054 48.575 86.425Z" fill="#3f51b5" />
	<path d="M44.575 77.9301C45.475 78.9734 46.35 80.0401 47.2 81.1301C47.62 81.6651 48.045 82.1951 48.45 82.7401C48.855 83.2851 49.255 83.8951 49.68 84.4551C49.71 84.4951 49.65 84.5451 49.62 84.5051C49.19 84.0051 48.73 83.5051 48.3 82.9551C47.87 82.4051 47.43 81.8551 47 81.3051C46.15 80.2151 45.325 79.1001 44.53 77.9701C44.5 77.9401 44.55 77.9001 44.575 77.9301Z" fill="#263238" />
	<path d="M48.565 86.4651C49.435 85.3101 50.46 84.2801 51.4 83.1851C52.34 82.0901 53.275 80.9601 54.17 79.8201C54.17 79.8201 54.235 79.8201 54.215 79.8501C53.8 80.4451 53.395 81.0451 52.96 81.6251C52.745 81.9101 52.52 82.1901 52.29 82.4701L52.625 82.1951C52.9677 81.9374 53.3231 81.6971 53.69 81.4751C53.69 81.4751 53.73 81.4751 53.69 81.5051C53.3718 81.7995 53.0379 82.0765 52.69 82.3351C52.44 82.5251 52.19 82.7001 51.925 82.8751L51.525 83.3751C50.6522 84.5017 49.68 85.5476 48.62 86.5001C48.59 86.5451 48.535 86.5001 48.565 86.4651Z" fill="#263238" />
	<path d="M45.525 111.27C46.86 110.365 45.025 109.305 45.025 109.305C45.025 109.305 48.025 110.195 49.025 108.73C50.025 107.265 47.7449 106.115 47.5849 106.025C47.7449 106.075 50.5249 106.815 51.3949 105.24C52.2649 103.665 49.8249 102.785 49.6649 102.74C49.8299 102.74 51.9949 102.645 52.3849 101.295C53.0499 98.9801 46.83 98.7101 45.49 97.2951C45.49 97.2951 46.0899 94.2351 46.1399 94.1501C45.7376 94.8368 45.1133 95.3659 44.3699 95.6501C43.0249 96.0301 41.8149 96.2501 41.2699 96.8951C41.0157 97.1774 40.8589 97.5339 40.8229 97.9121C40.7869 98.2903 40.8735 98.67 41.0699 98.9951C41.0699 98.9951 39.3699 98.8001 38.6449 100.02C38.2749 100.645 38.9499 101.8 38.9499 101.8C38.5653 101.773 38.1804 101.851 37.8374 102.028C37.4944 102.204 37.2064 102.471 37.005 102.8C36.54 103.7 37.2899 104.715 37.2899 104.715C37.2899 104.715 35.93 105.215 35.755 106.295C35.42 108.46 42.665 113.2 45.525 111.27Z" fill="#AD6359" />
	<path d="M37.41 104.9C37.41 104.9 37.355 104.9 37.375 104.935C39.4475 107.168 42.1507 108.716 45.125 109.375C45.22 109.375 45.29 109.245 45.19 109.205C42.4018 108.155 39.7811 106.704 37.41 104.9Z" fill="#263238" />
	<path d="M38.93 101.78C38.9267 101.777 38.923 101.775 38.9189 101.774C38.9149 101.773 38.9106 101.773 38.9065 101.773C38.9023 101.774 38.8982 101.775 38.8946 101.777C38.8909 101.779 38.8876 101.782 38.885 101.785C38.8824 101.788 38.8804 101.792 38.8793 101.796C38.8781 101.8 38.8777 101.804 38.8782 101.808C38.8787 101.813 38.8799 101.817 38.882 101.82C38.884 101.824 38.8867 101.827 38.89 101.83C41.2005 104.266 44.3055 105.797 47.645 106.145C47.76 106.145 47.875 106.045 47.74 106.025C45.5 105.685 41.13 103.5 38.93 101.78Z" fill="#263238" />
	<path d="M49.935 102.665C46.675 102.295 43.86 100.915 41.175 99.085C41.14 99.085 41.11 99.11 41.13 99.14C42.2 100.395 44.035 101.385 45.53 102.035C46.9028 102.663 48.4166 102.92 49.92 102.78C50 102.775 50 102.675 49.935 102.665Z" fill="#263238" />
	<path d="M37.225 104.715C36.9534 104.442 36.7629 104.098 36.6746 103.723C36.5864 103.348 36.6038 102.956 36.725 102.59C36.8816 102.246 37.1566 101.969 37.5 101.81C37.9093 101.669 38.3469 101.629 38.775 101.695C38.5363 101.359 38.4052 100.958 38.399 100.546C38.3927 100.133 38.5116 99.7286 38.74 99.3851C38.996 99.0914 39.3528 98.9041 39.74 98.8601C40.1819 98.8172 40.6275 98.8341 41.065 98.9101C40.8828 98.6956 40.7531 98.4416 40.6862 98.1681C40.6194 97.8947 40.6173 97.6095 40.68 97.3351C40.7627 97.0371 40.9145 96.7628 41.123 96.5343C41.3314 96.3059 41.5908 96.1297 41.88 96.0201C42.5603 95.7738 43.2665 95.6061 43.985 95.5201C44.3537 95.4648 44.7146 95.3658 45.06 95.2251C45.4321 95.0548 45.7441 94.7759 45.955 94.4251C45.995 94.3651 45.995 94.4251 45.955 94.4801C45.8149 94.7184 45.6358 94.9314 45.425 95.1101C45.2061 95.3008 44.9621 95.4606 44.7 95.5851C44.0491 95.8306 43.3805 96.0262 42.7 96.1701C42.1034 96.329 41.576 96.6805 41.2 97.1701C41.0281 97.4292 40.9315 97.7309 40.9209 98.0416C40.9103 98.3524 40.9861 98.6599 41.14 98.9301C41.14 98.9301 41.14 98.9951 41.095 98.9901C40.6957 98.9884 40.2978 99.0354 39.91 99.1301C39.5883 99.207 39.2983 99.3817 39.08 99.6301C38.8777 99.947 38.762 100.311 38.7444 100.687C38.7269 101.062 38.8081 101.436 38.98 101.77C38.5488 101.799 38.1266 101.908 37.735 102.09C37.4807 102.246 37.2761 102.472 37.145 102.74C36.9952 103.049 36.9341 103.394 36.9686 103.735C37.003 104.077 37.1316 104.402 37.34 104.675C37.3419 104.683 37.3419 104.692 37.34 104.7C37.34 104.7 36.905 104.88 36.885 104.88C36.865 104.88 36.885 104.88 36.885 104.88C36.9948 104.818 37.1083 104.763 37.225 104.715Z" fill="#263238" />
	<path d="M62.045 76.2551C60.455 76.8401 57.345 74.6751 55.99 72.7851C55.9 72.6551 55.81 67.0301 55.68 65.9201C55.65 65.6901 62.865 66.7801 62.865 66.7801C62.6343 68.2181 62.5806 69.679 62.705 71.1301C62.725 71.2901 63.58 75.6951 62.045 76.2551Z" fill="#AD6359" />
	<path d="M62.865 66.7801C62.865 66.7801 62.785 67.2451 62.72 67.9351C60.72 70.3901 57.51 70.6501 55.88 70.5951C55.825 68.8501 55.76 66.5951 55.68 65.9201C55.65 65.6951 62.865 66.7801 62.865 66.7801Z" fill="#263238" />
	<path d="M55.71 53.9351C55.71 53.9351 53.41 54.8251 52.94 57.1251C52.47 59.4251 52.94 61.8651 53.13 61.9901C53.32 62.1151 55.71 53.9351 55.71 53.9351Z" fill="#263238" />
	<path d="M65 56.9051C65.59 59.4401 63.8 66.5351 61.92 68.0151C59.2 70.1651 54.98 70.1051 53.21 66.8901C51.5 63.7751 54 54.5751 56.075 53.2501C59.125 51.3051 64.115 53.1551 65 56.9051Z" fill="#AD6359" />
	<path d="M57.865 60.8901C57.865 60.8901 57.9 60.9201 57.895 60.9401C57.795 61.4401 57.76 62.0051 58.18 62.2451C58.18 62.2451 58.18 62.2751 58.18 62.2701C57.64 62.1001 57.69 61.3351 57.865 60.8901Z" fill="#263238" />
	<path d="M58.39 60.4499C59.195 60.5249 58.98 62.1249 58.24 62.0549C57.5 61.9849 57.72 60.3849 58.39 60.4499Z" fill="#263238" />
	<path d="M55.075 60.395C55.075 60.395 55.035 60.395 55.03 60.435C54.985 60.935 54.85 61.49 54.38 61.6V61.63C54.94 61.62 55.11 60.87 55.075 60.395Z" fill="#263238" />
	<path d="M54.7 59.8201C53.91 59.6601 53.645 61.2501 54.38 61.4001C55.115 61.5501 55.36 59.9551 54.7 59.8201Z" fill="#263238" />
	<path d="M55.44 62.7451C55.44 62.7451 55.23 63.4651 55.18 63.8151C55.8597 63.9145 56.5215 64.1115 57.145 64.4001C57.29 64.4701 57.31 64.3451 57.145 64.2151C56.6798 63.8372 56.112 63.6073 55.515 63.5551C55.515 63.4551 55.86 62.4501 55.805 62.4351C55.5349 62.4196 55.264 62.4414 55 62.5001C55.39 61.0001 56 59.5401 56.39 58.0001C56.39 57.9451 56.325 57.9151 56.3 57.9601C55.5785 59.4871 55.0091 61.0815 54.6 62.7201C54.535 62.9401 55.29 62.7851 55.44 62.7451Z" fill="#263238" />
	<path d="M59 59.905C58.81 59.785 58.66 59.64 58.5 59.505C58.34 59.37 58.13 59.245 58.055 59.005C58.0389 58.9328 58.048 58.8572 58.0808 58.7909C58.1135 58.7245 58.1679 58.6713 58.235 58.64C58.3756 58.594 58.5261 58.5869 58.6705 58.6195C58.8148 58.652 58.9477 58.7231 59.055 58.825C59.3075 58.9946 59.4862 59.2537 59.555 59.55C59.5681 59.6197 59.5602 59.6916 59.5321 59.7567C59.504 59.8218 59.4571 59.8769 59.3974 59.9151C59.3377 59.9533 59.268 59.9727 59.1972 59.9709C59.1263 59.9691 59.0576 59.9462 59 59.905Z" fill="#263238" />
	<path d="M54.35 58.0601C54.57 58.0251 54.77 57.9651 54.985 57.9101C55.2166 57.8902 55.4348 57.7934 55.605 57.6351C55.6496 57.576 55.6737 57.504 55.6737 57.4301C55.6737 57.3561 55.6496 57.2841 55.605 57.2251C55.4954 57.1253 55.3612 57.0565 55.2162 57.0257C55.0712 56.995 54.9206 57.0034 54.78 57.0501C54.4795 57.1003 54.2085 57.2608 54.02 57.5001C53.9819 57.5564 53.9606 57.6224 53.9585 57.6904C53.9565 57.7584 53.9737 57.8256 54.0082 57.8842C54.0428 57.9428 54.0932 57.9904 54.1537 58.0216C54.2142 58.0527 54.2822 58.066 54.35 58.0601Z" fill="#263238" />
	<path d="M63.82 62.965C62.35 62.82 63.15 56.335 63.15 56.335C62.2426 56.6441 61.2933 56.8127 60.335 56.835C59.3668 56.801 58.4056 56.6567 57.47 56.405C57.27 56.33 59.925 55.58 59.925 55.58C59.925 55.58 53.395 56.15 53.175 54.92C53.095 54.495 54.31 50.625 59.73 50.87C63.73 51.05 65.595 55.23 65.595 55.23C65.595 55.23 67.54 57.395 67.205 58.375C66.635 60.095 65.38 63.12 63.82 62.965Z" fill="#263238" />
	<path d="M62.93 63.0001C62.93 63.0001 64.755 60.8201 65.76 61.5001C66.765 62.1801 65.26 65.4251 63.97 65.7801C63.8093 65.8359 63.6389 65.8588 63.4692 65.8473C63.2994 65.8358 63.1337 65.7902 62.982 65.7131C62.8303 65.6361 62.6957 65.5293 62.5862 65.399C62.4768 65.2688 62.3947 65.1178 62.345 64.9551L62.93 63.0001Z" fill="#AD6359" />
	<path d="M87.285 92.7801C91.345 89.6451 87.465 73.7301 85.105 67.8701C84.41 66.1451 73.385 69.3701 73.9 71.3051C76.845 82.2501 82.84 96.2151 87.285 92.7801Z" fill="#AD6359" />
	<path d="M75.725 77.3101L76.94 80.3101C77.355 81.3101 77.76 82.3101 78.21 83.3101C78.66 84.3101 79.095 85.2751 79.555 86.2501C80.015 87.2251 80.525 88.1801 81.025 89.1401C80.3924 88.2591 79.8162 87.3389 79.3 86.3851C78.8 85.4301 78.3 84.4501 77.865 83.4601C77.43 82.4701 77.03 81.4601 76.67 80.4301C76.31 79.4001 76 78.3651 75.725 77.3101Z" fill="#263238" />
</svg>
