<svg width="101" height="101" viewBox="0 0 101 101" fill="none" xmlns="http://www.w3.org/2000/svg">
<path fill-rule="evenodd" clip-rule="evenodd" d="M50.5544 100.154C22.9402 100.154 0.554443 77.7681 0.554443 50.1538C0.554443 22.5396 22.9402 0.153809 50.5544 0.153809C78.1687 0.153809 100.554 22.5396 100.554 50.1538C100.554 77.7681 78.1687 100.154 50.5544 100.154ZM50.5544 87.6538C71.2651 87.6538 88.0544 70.8645 88.0544 50.1538C88.0544 29.4431 71.2651 12.6538 50.5544 12.6538C29.8438 12.6538 13.0544 29.4431 13.0544 50.1538C13.0544 70.8645 29.8438 87.6538 50.5544 87.6538ZM36.2239 73.3232L50.5544 58.9926L64.885 73.3232L73.7239 64.4844L59.3933 50.1538L73.7239 35.8232L64.885 26.9844L50.5544 41.315L36.2239 26.9844L27.385 35.8232L41.7156 50.1538L27.385 64.4844L36.2239 73.3232Z" fill="#FF0000"/>
</svg>
