<svg width="32" height="32" viewBox="0 0 32 32" fill="none" xmlns="http://www.w3.org/2000/svg">
<g clip-path="url(#clip0_1_1050)">
<path d="M31.6093 29.724L23.6507 21.7653C25.8195 19.1128 26.8858 15.7281 26.6291 12.3114C26.3724 8.89471 24.8123 5.70738 22.2715 3.40869C19.7306 1.11001 16.4035 -0.124144 12.9782 -0.038502C9.55292 0.0471404 6.29161 1.44603 3.86882 3.86882C1.44603 6.29161 0.0471404 9.55292 -0.038502 12.9782C-0.124144 16.4035 1.11001 19.7306 3.40869 22.2715C5.70738 24.8123 8.89471 26.3724 12.3114 26.6291C15.7281 26.8858 19.1128 25.8195 21.7653 23.6507L29.724 31.6093C29.9755 31.8522 30.3123 31.9866 30.6619 31.9836C31.0115 31.9805 31.3459 31.8403 31.5931 31.5931C31.8403 31.3459 31.9805 31.0115 31.9836 30.6619C31.9866 30.3123 31.8522 29.9755 31.6093 29.724ZM13.3333 24C11.2237 24 9.16138 23.3744 7.40725 22.2024C5.65313 21.0303 4.28595 19.3644 3.47862 17.4153C2.67128 15.4662 2.46005 13.3215 2.87162 11.2524C3.2832 9.18324 4.2991 7.28262 5.79086 5.79086C7.28262 4.2991 9.18324 3.2832 11.2524 2.87162C13.3215 2.46005 15.4662 2.67128 17.4153 3.47862C19.3644 4.28595 21.0303 5.65313 22.2024 7.40725C23.3744 9.16138 24 11.2237 24 13.3333C23.9968 16.1613 22.872 18.8726 20.8723 20.8723C18.8726 22.872 16.1613 23.9968 13.3333 24Z" fill="#605444"/>
</g>
<defs>
<clipPath id="clip0_1_1050">
<rect width="32" height="32" fill="white"/>
</clipPath>
</defs>
</svg>
