<svg width="16" height="17" viewBox="0 0 16 17" fill="none" xmlns="http://www.w3.org/2000/svg">
	<path fill-rule="evenodd" clip-rule="evenodd" d="M6.66659 12.5002C3.72107 12.5002 1.33325 10.1123 1.33325 7.16683C1.33325 4.22131 3.72107 1.8335 6.66659 1.8335C9.6121 1.8335 11.9999 4.22131 11.9999 7.16683C11.9999 8.3993 11.5819 9.53414 10.8798 10.4373L14.4713 14.0288L13.5285 14.9716L9.93701 11.3801C9.03389 12.0821 7.89906 12.5002 6.66659 12.5002ZM10.6666 7.16683C10.6666 9.37597 8.87572 11.1668 6.66659 11.1668C4.45745 11.1668 2.66659 9.37597 2.66659 7.16683C2.66659 4.95769 4.45745 3.16683 6.66659 3.16683C8.87572 3.16683 10.6666 4.95769 10.6666 7.16683Z" fill="currentColor" />
</svg>
