<svg width="22" height="16" viewBox="0 0 22 16" fill="none" xmlns="http://www.w3.org/2000/svg">
<path d="M21.0702 6.59001C20.9102 6.10001 20.5302 5.68001 19.9302 5.30001C19.0802 4.76001 17.8102 4.34001 16.1402 4.03001C15.8202 2.77001 14.9102 1.70001 13.6102 1.06001C12.0302 0.280006 9.98024 0.280006 8.39024 1.06001C7.10024 1.70001 6.19024 2.77001 5.86024 4.02001C4.09024 4.34001 2.81024 4.78001 1.95024 5.36001C1.37024 5.75001 1.01024 6.21001 0.880241 6.71001C0.740241 7.27001 0.920241 7.88001 1.39024 8.37001C2.07024 9.09001 3.24024 9.61001 5.06024 10.02C5.30024 13.09 7.86024 15.51 10.9802 15.51C14.1002 15.51 16.6702 13.09 16.9002 10.02C16.9002 10.02 16.9102 10.02 16.9202 10.02C18.8502 9.58001 20.0002 9.05001 20.6602 8.28001C21.0902 7.78001 21.2402 7.14001 21.0502 6.59001H21.0702ZM9.34024 2.67001C10.3502 2.17001 11.6502 2.17001 12.6602 2.67001C13.3802 3.02001 13.9002 3.59001 14.1302 4.26001C13.8402 4.36001 13.4302 4.45001 12.9802 4.51001C11.7702 4.68001 10.2202 4.68001 9.01024 4.51001C8.56024 4.45001 8.15024 4.36001 7.86024 4.26001C8.09024 3.59001 8.62024 3.03001 9.33024 2.67001H9.34024ZM11.0002 13.52C9.10024 13.52 7.51024 12.17 7.14024 10.38C8.35024 10.54 9.65024 10.62 11.0102 10.62C11.0502 10.62 11.0902 10.62 11.1302 10.62C12.4402 10.62 13.7002 10.53 14.8802 10.38C14.5102 12.17 12.9202 13.52 11.0202 13.52H11.0002ZM19.1102 7.16001C18.9002 7.41001 18.0102 7.91001 16.4602 8.26001C14.9502 8.60001 13.0502 8.79001 11.1102 8.80001C9.15024 8.79001 7.25024 8.63001 5.71024 8.30001C4.21024 7.98001 3.21024 7.50001 2.92024 7.19001C2.88024 7.15001 2.86024 7.12001 2.85024 7.11001C2.88024 7.06001 2.96024 6.96001 3.15024 6.83001C3.63024 6.50001 4.57024 6.17001 5.73024 5.92001V6.06001C5.73024 6.39001 5.89024 6.72001 6.18024 6.98001C6.37024 7.15001 6.59024 7.28001 6.88024 7.41001C7.35024 7.61001 7.95024 7.75001 8.71024 7.86001C10.1402 8.06001 11.8602 8.06001 13.2902 7.86001C14.0602 7.75001 14.6602 7.60001 15.1202 7.41001C15.4202 7.29001 15.6402 7.15001 15.8202 6.98001C16.1102 6.72001 16.2602 6.39001 16.2602 6.06001V5.92001C17.3702 6.16001 18.2702 6.47001 18.7702 6.79001C19.0302 6.96001 19.1302 7.09001 19.1602 7.07001C19.1602 7.07001 19.1502 7.10001 19.1002 7.16001H19.1102Z" fill="currentColor"/>
</svg>
