<svg width="32" height="32" viewBox="0 0 32 32" fill="currentColor" xmlns="http://www.w3.org/2000/svg">
<path d="M29.7731 18.5333L29.1152 18.192C29.4114 16.7419 29.4114 15.2554 29.1152 13.8053L29.7731 13.464C30.2791 13.2014 30.7227 12.8516 31.0784 12.4347C31.4342 12.0179 31.6952 11.542 31.8466 11.0344C31.9979 10.5268 32.0367 9.99731 31.9606 9.47621C31.8846 8.9551 31.6952 8.45258 31.4033 7.99733C31.1113 7.54208 30.7226 7.14302 30.2593 6.82294C29.796 6.50285 29.2671 6.26801 28.7029 6.13181C28.1387 5.99562 27.5502 5.96075 26.971 6.02918C26.3918 6.09762 25.8333 6.26802 25.3273 6.53066L24.6679 6.87333C23.4223 5.91589 21.991 5.17366 20.4458 4.684V4C20.4458 2.93913 19.9774 1.92172 19.1437 1.17157C18.3099 0.421427 17.1791 0 16 0C14.8209 0 13.6901 0.421427 12.8563 1.17157C12.0226 1.92172 11.5542 2.93913 11.5542 4V4.684C10.0091 5.17542 8.57823 5.91946 7.33363 6.87866L6.6712 6.53333C5.64931 6.0029 4.43508 5.85943 3.29562 6.13448C2.15616 6.40953 1.18481 7.08058 0.595256 8C0.00570414 8.91941 -0.153757 10.0119 0.151952 11.0371C0.457661 12.0623 1.2035 12.9362 2.22539 13.4667L2.88337 13.808C2.58714 15.2581 2.58714 16.7446 2.88337 18.1947L2.22539 18.536C1.2035 19.0664 0.457661 19.9404 0.151952 20.9656C-0.153757 21.9908 0.00570414 23.0832 0.595256 24.0027C1.18481 24.9221 2.15616 25.5931 3.29562 25.8682C4.43508 26.1432 5.64931 25.9998 6.6712 25.4693L7.33066 25.1267C8.57663 26.0842 10.0085 26.8265 11.5542 27.316V28C11.5542 29.0609 12.0226 30.0783 12.8563 30.8284C13.6901 31.5786 14.8209 32 16 32C17.1791 32 18.3099 31.5786 19.1437 30.8284C19.9774 30.0783 20.4458 29.0609 20.4458 28V27.316C21.9909 26.8246 23.4218 26.0805 24.6664 25.1213L25.3288 25.4653C26.3507 25.9958 27.5649 26.1392 28.7044 25.8642C29.8438 25.5891 30.8152 24.9181 31.4047 23.9987C31.9943 23.0792 32.1538 21.9868 31.848 20.9616C31.5423 19.9364 30.7965 19.0624 29.7746 18.532L29.7731 18.5333ZM25.9972 13.4987C26.499 15.1347 26.499 16.8626 25.9972 18.4987C25.9095 18.7834 25.9295 19.0863 26.054 19.3597C26.1784 19.6332 26.4003 19.8617 26.6848 20.0093L28.2912 20.844C28.6318 21.0208 28.8803 21.3121 28.9822 21.6538C29.084 21.9955 29.0308 22.3596 28.8343 22.666C28.6378 22.9724 28.314 23.196 27.9343 23.2877C27.5545 23.3793 27.1498 23.3315 26.8093 23.1547L25.1999 22.3173C24.9152 22.169 24.5837 22.1101 24.2577 22.1499C23.9317 22.1897 23.6297 22.326 23.3993 22.5373C22.0803 23.7489 20.4185 24.6133 18.5934 25.0373C18.2748 25.111 17.9926 25.278 17.7911 25.5119C17.5896 25.7458 17.4803 26.0334 17.4805 26.3293V28C17.4805 28.3536 17.3243 28.6928 17.0464 28.9428C16.7685 29.1928 16.3916 29.3333 15.9985 29.3333C15.6055 29.3333 15.2285 29.1928 14.9506 28.9428C14.6727 28.6928 14.5166 28.3536 14.5166 28V26.3307C14.5167 26.0347 14.4075 25.7471 14.206 25.5132C14.0045 25.2793 13.7222 25.1123 13.4036 25.0387C11.5784 24.6129 9.91713 23.7466 8.5992 22.5333C8.3688 22.322 8.0668 22.1857 7.7408 22.1459C7.4148 22.1061 7.08334 22.165 6.79865 22.3133L5.19223 23.1493C5.02363 23.2383 4.83714 23.2963 4.6435 23.3201C4.44987 23.3439 4.2529 23.3331 4.06396 23.2881C3.87501 23.2432 3.69781 23.1651 3.54256 23.0582C3.38731 22.9514 3.25708 22.818 3.15936 22.6658C3.06164 22.5135 2.99836 22.3453 2.97317 22.1709C2.94798 21.9966 2.96137 21.8194 3.01258 21.6497C3.06378 21.48 3.15179 21.3211 3.27154 21.1822C3.39128 21.0432 3.54039 20.9269 3.71029 20.84L5.31671 20.0053C5.60117 19.8577 5.82305 19.6292 5.94751 19.3557C6.07197 19.0823 6.09196 18.7794 6.00433 18.4947C5.50248 16.8586 5.50248 15.1307 6.00433 13.4947C6.09038 13.2105 6.06944 12.9087 5.94478 12.6364C5.82011 12.3641 5.59875 12.1365 5.31523 11.9893L3.70881 11.1547C3.36824 10.9779 3.11969 10.6866 3.01784 10.3449C2.91598 10.0032 2.96916 9.63908 3.16568 9.33266C3.36219 9.02625 3.68595 8.80262 4.06572 8.71098C4.4455 8.61934 4.85018 8.66719 5.19074 8.844L6.80013 9.68133C7.08404 9.83002 7.41481 9.88961 7.74046 9.85075C8.06611 9.8119 8.36818 9.67679 8.5992 9.46666C9.91826 8.25512 11.58 7.39069 13.4051 6.96666C13.7247 6.89275 14.0077 6.725 14.2093 6.49C14.4109 6.255 14.5195 5.96619 14.5181 5.66933V4C14.5181 3.64638 14.6742 3.30724 14.9521 3.05719C15.23 2.80714 15.607 2.66667 16 2.66667C16.393 2.66667 16.77 2.80714 17.0479 3.05719C17.3258 3.30724 17.4819 3.64638 17.4819 4V5.66933C17.4818 5.96527 17.591 6.25286 17.7925 6.48677C17.994 6.72069 18.2763 6.88764 18.5949 6.96133C20.4206 7.38687 22.0825 8.25318 23.4008 9.46666C23.6312 9.67795 23.9332 9.81425 24.2592 9.85408C24.5852 9.89392 24.9167 9.83502 25.2014 9.68666L26.8078 8.85066C26.9764 8.76173 27.1629 8.70369 27.3565 8.67987C27.5501 8.65605 27.7471 8.66692 27.936 8.71187C28.125 8.75681 28.3022 8.83494 28.4574 8.94175C28.6127 9.04856 28.7429 9.18195 28.8406 9.33423C28.9384 9.48651 29.0016 9.65468 29.0268 9.82905C29.052 10.0034 29.0386 10.1806 28.9874 10.3503C28.9362 10.52 28.8482 10.6789 28.7285 10.8178C28.6087 10.9568 28.4596 11.0731 28.2897 11.16L26.6833 11.9947C26.4003 12.1423 26.1796 12.37 26.0554 12.6423C25.9313 12.9145 25.9108 13.2161 25.9972 13.5V13.4987Z" fill="currentColor"/>
<path d="M16 10.6667C14.8276 10.6667 13.6815 10.9795 12.7067 11.5655C11.7319 12.1515 10.9721 12.9845 10.5235 13.959C10.0748 14.9336 9.95741 16.0059 10.1861 17.0405C10.4149 18.075 10.9794 19.0254 11.8084 19.7712C12.6375 20.5171 13.6937 21.0251 14.8436 21.2309C15.9934 21.4366 17.1853 21.331 18.2685 20.9274C19.3516 20.5237 20.2774 19.8401 20.9288 18.963C21.5801 18.086 21.9278 17.0548 21.9278 16C21.9278 14.5855 21.3032 13.229 20.1916 12.2288C19.0799 11.2286 17.5721 10.6667 16 10.6667ZM16 18.6667C15.4138 18.6667 14.8408 18.5103 14.3534 18.2173C13.8659 17.9242 13.4861 17.5078 13.2617 17.0205C13.0374 16.5332 12.9787 15.997 13.0931 15.4798C13.2074 14.9625 13.4897 14.4873 13.9042 14.1144C14.3187 13.7414 14.8468 13.4875 15.4218 13.3846C15.9967 13.2817 16.5927 13.3345 17.1342 13.5363C17.6758 13.7382 18.1387 14.0799 18.4644 14.5185C18.7901 14.957 18.9639 15.4726 18.9639 16C18.9639 16.7072 18.6516 17.3855 18.0958 17.8856C17.5399 18.3857 16.7861 18.6667 16 18.6667Z" fill="currentColor"/>
</svg>
