<svg width="16" height="16" viewBox="0 0 16 16" fill="none" xmlns="http://www.w3.org/2000/svg">
    <g id="Outline / Commodity / soy" clip-path="url(#clip0_1882_374044)">
        <g id="Group">
            <g id="Group_2">
                <path id="Vector"
                    d="M4.64632 13.294C4.14739 13.294 3.67833 13.0997 3.32552 12.747C2.59722 12.0187 2.59722 10.8336 3.32552 10.1053C3.67833 9.75254 4.14739 9.55823 4.64632 9.55823C5.14525 9.55823 5.61434 9.75254 5.96712 10.1053C6.69542 10.8336 6.69542 12.0187 5.96712 12.7469C5.61434 13.0998 5.14525 13.294 4.64632 13.294ZM4.64632 10.4176C4.37696 10.4176 4.1237 10.5225 3.93317 10.713C3.53994 11.1063 3.53994 11.7461 3.93317 12.1393C4.12367 12.3298 4.37693 12.4347 4.64632 12.4347C4.91571 12.4347 5.16897 12.3298 5.35947 12.1393C5.7527 11.7461 5.7527 11.1062 5.35947 10.713C5.16897 10.5225 4.91574 10.4176 4.64632 10.4176Z"
                    fill="currentColor" />
            </g>
            <g id="Group_3">
                <path id="Vector_2"
                    d="M8.03621 9.90422C7.53728 9.90422 7.0682 9.70991 6.71542 9.3571C5.98711 8.62883 5.98711 7.44379 6.71542 6.71551C7.0682 6.3627 7.53728 6.1684 8.03621 6.1684C8.53515 6.1684 9.00423 6.3627 9.35701 6.71551C10.0853 7.44379 10.0853 8.62883 9.35701 9.3571C9.00423 9.70991 8.53515 9.90422 8.03621 9.90422ZM8.03621 7.02779C7.76682 7.02779 7.51356 7.13269 7.32306 7.32319C6.92984 7.71641 6.92984 8.35623 7.32306 8.74946C7.51353 8.93993 7.76679 9.04486 8.03621 9.04486C8.3056 9.04486 8.55886 8.93995 8.74936 8.74946C9.14259 8.35623 9.14259 7.71641 8.74936 7.32319C8.55886 7.13269 8.30563 7.02779 8.03621 7.02779Z"
                    fill="currentColor" />
            </g>
            <g id="Group_4">
                <path id="Vector_3"
                    d="M11.4262 6.51438C10.9273 6.51438 10.4582 6.32007 10.1054 5.96729C9.37713 5.23899 9.37713 4.05398 10.1054 3.32568C10.8338 2.5974 12.0188 2.59743 12.7471 3.32568C13.0999 3.67845 13.2942 4.14754 13.2942 4.64647C13.2942 5.1454 13.0999 5.61449 12.7471 5.96729C12.3942 6.32007 11.9252 6.51438 11.4262 6.51438ZM10.7131 3.93332C10.3199 4.32655 10.3199 4.96636 10.7131 5.35959C10.9036 5.55006 11.1569 5.65499 11.4263 5.65499C11.6956 5.65499 11.9489 5.55009 12.1394 5.35959C12.3299 5.16909 12.4348 4.91583 12.4348 4.64644C12.4348 4.37708 12.3299 4.12379 12.1394 3.93332C11.7461 3.54009 11.1063 3.54009 10.7131 3.93332Z"
                    fill="currentColor" />
            </g>
            <g id="Group_5">
                <path id="Vector_4"
                    d="M3.96342 15.3334C3.78473 15.3334 3.60236 15.3253 3.41653 15.3092C2.28713 15.2113 1.42834 14.8502 1.39233 14.8349L1.233 14.767L1.16522 14.6077C1.1499 14.5717 0.788752 13.7129 0.69081 12.5835C0.557634 11.0475 0.977703 9.74518 1.90561 8.81726C2.59828 8.1246 3.40866 7.73432 4.27077 7.67333C4.3525 6.79893 4.73103 5.99002 5.36053 5.36051C5.98998 4.73107 6.799 4.35251 7.67335 4.27075C7.73431 3.40864 8.12458 2.59826 8.81728 1.9056C9.74516 0.977715 11.0473 0.557674 12.5835 0.690793C13.7129 0.788706 14.5717 1.14982 14.6077 1.16518L14.767 1.23298L14.8348 1.39228C14.8501 1.42829 15.2113 2.28708 15.3092 3.41652C15.4424 4.9525 15.0223 6.25485 14.0944 7.18276C13.4017 7.87543 12.5914 8.26571 11.7293 8.3267C11.6475 9.2011 11.269 10.01 10.6395 10.6395C10.0101 11.269 9.20103 11.6475 8.32668 11.7293C8.26572 12.5914 7.87545 13.4018 7.18275 14.0944C6.36713 14.9101 5.2621 15.3334 3.96342 15.3334ZM1.89367 14.1063C2.17443 14.2055 2.7862 14.3948 3.51399 14.455C4.79654 14.5611 5.82649 14.2353 6.57505 13.4868C7.20584 12.856 7.51576 12.1138 7.47139 11.3403L7.44484 10.8774L7.90845 10.8861C8.71092 10.9014 9.46586 10.5978 10.0318 10.0318C10.5977 9.4659 10.9011 8.71182 10.8861 7.90849L10.8773 7.4449L11.3402 7.47146C12.1138 7.51583 12.8559 7.20588 13.4867 6.57512C15.0578 5.00407 14.3381 2.54876 14.1064 1.89385C13.8256 1.79456 13.2138 1.60527 12.486 1.54508C11.2034 1.43903 10.1735 1.7648 9.42498 2.51336C8.79419 3.14415 8.48427 3.88635 8.52864 4.6598L8.55519 5.12269L8.09158 5.11401C8.07262 5.11364 8.05357 5.11347 8.03463 5.11347C7.25262 5.11347 6.52079 5.41571 5.96823 5.96827C5.40233 6.53421 5.09893 7.2883 5.11397 8.09162L5.12268 8.55521L4.65978 8.52865C3.88599 8.48439 3.14408 8.79423 2.51332 9.42499C0.942296 10.996 1.66198 13.4513 1.89367 14.1063Z"
                    fill="currentColor" />
            </g>
        </g>
    </g>
    <defs>
        <clipPath id="clip0_1882_374044">
            <rect width="16" height="16" fill="white" />
        </clipPath>
    </defs>
</svg>