<svg width="20" height="14" viewBox="0 0 20 14" fill="none" xmlns="http://www.w3.org/2000/svg">
<path fill-rule="evenodd" clip-rule="evenodd" d="M20 1C20 0.45 19.55 0 19 0H1C0.45 0 0 0.45 0 1C0 1.55 0.45 2 1 2H19C19.55 2 20 1.55 20 1ZM14 5C14 5.55 13.55 6 13 6H1C0.45 6 0 5.55 0 5C0 4.45 0.45 4 1 4H13C13.55 4 14 4.45 14 5ZM20 9C20 8.45 19.55 8 19 8H1C0.45 8 0 8.45 0 9C0 9.55 0.45 10 1 10H19C19.55 10 20 9.55 20 9ZM14 13C14 12.45 13.55 12 13 12H1C0.45 12 0 12.45 0 13C0 13.55 0.45 14 1 14H13C13.55 14 14 13.55 14 13Z" fill="#303030"/>
</svg>
