<svg width="18" height="18" viewBox="0 0 18 18" fill="currentColor"
  xmlns="http://www.w3.org/2000/svg">
  <path fill-rule="evenodd" clip-rule="evenodd" d="M9.75 5.25V2.2912C13.125 2.66428 15.75 5.52558 15.75 9C15.75 12.7279 12.7279 15.75 9 15.75C5.27208 15.75 2.25 12.7279 2.25 9C2.25 7.18033 2.97237 5.477 4.236 4.21808L3.17732 3.15544C1.63398 4.69304 0.75 6.77743 0.75 9C0.75 13.5563 4.44365 17.25 9 17.25C13.5563 17.25 17.25 13.5563 17.25 9C17.25 4.44365 13.5563 0.75 9 0.75H8.25V5.25H9.75ZM9 7.5C8.86563 7.5 8.73539 7.51767 8.61147 7.55081L5.78033 4.71967L4.71967 5.78033L7.55081 8.61147C7.51767 8.73539 7.5 8.86563 7.5 9C7.5 9.82843 8.17157 10.5 9 10.5C9.82843 10.5 10.5 9.82843 10.5 9C10.5 8.17157 9.82843 7.5 9 7.5Z"/>
</svg>
