<svg width="32" height="32" viewBox="0 0 32 32" fill="none" xmlns="http://www.w3.org/2000/svg">
<path d="M0 9.33333C0 8.97971 0.140476 8.64057 0.390524 8.39052C0.640573 8.14047 0.979711 8 1.33333 8H24V3.51867C24.0026 3.31127 24.0662 3.10925 24.1829 2.93779C24.2997 2.76633 24.4643 2.63303 24.6562 2.55454C24.8482 2.47604 25.0591 2.45581 25.2625 2.49638C25.4659 2.53695 25.6528 2.63652 25.8 2.78267L31.6907 8.59733C31.7877 8.6932 31.8648 8.80739 31.9174 8.93327C31.97 9.05916 31.9971 9.19423 31.9971 9.33067C31.9971 9.4671 31.97 9.60217 31.9174 9.72806C31.8648 9.85394 31.7877 9.96813 31.6907 10.064L25.8 15.884C25.6528 16.0301 25.4659 16.1297 25.2625 16.1703C25.0591 16.2109 24.8482 16.1906 24.6562 16.1121C24.4643 16.0336 24.2997 15.9003 24.1829 15.7289C24.0662 15.5574 24.0026 15.3554 24 15.148V10.6667H1.33333C0.979711 10.6667 0.640573 10.5262 0.390524 10.2761C0.140476 10.0261 0 9.68695 0 9.33333ZM30.6667 21.3333H8V16.852C7.99738 16.6446 7.93375 16.4426 7.81705 16.2711C7.70034 16.0997 7.53573 15.9664 7.34375 15.8879C7.15177 15.8094 6.94093 15.7891 6.73752 15.8297C6.53412 15.8703 6.34717 15.9699 6.2 16.116L0.309333 21.9307C0.212259 22.0265 0.135185 22.1407 0.08258 22.2666C0.0299754 22.3925 0.00288763 22.5276 0.00288763 22.664C0.00288763 22.8004 0.0299754 22.9355 0.08258 23.0614C0.135185 23.1873 0.212259 23.3015 0.309333 23.3973L6.2 29.2173C6.34717 29.3635 6.53412 29.463 6.73752 29.5036C6.94093 29.5442 7.15177 29.524 7.34375 29.4455C7.53573 29.367 7.70034 29.2337 7.81705 29.0622C7.93375 28.8907 7.99738 28.6887 8 28.4813V24H30.6667C31.0203 24 31.3594 23.8595 31.6095 23.6095C31.8595 23.3594 32 23.0203 32 22.6667C32 22.313 31.8595 21.9739 31.6095 21.7239C31.3594 21.4738 31.0203 21.3333 30.6667 21.3333Z" fill="currentColor"/>
</svg>
