<svg width="32" height="32" viewBox="0 0 32 32" fill="none" xmlns="http://www.w3.org/2000/svg">
<path d="M31.5213 14.3467L30.176 10.3133C29.8231 9.25093 29.1444 8.32674 28.2363 7.6721C27.3281 7.01746 26.2368 6.66565 25.1173 6.66667H22.5333C22.2239 5.16188 21.4051 3.80979 20.215 2.83829C19.0249 1.86679 17.5363 1.33527 16 1.33333H6.66667C4.89921 1.33545 3.20474 2.03851 1.95496 3.28829C0.705176 4.53808 0.00211714 6.23254 0 8L0 26C0.0114068 26.9219 0.294302 27.8199 0.813318 28.5819C1.33233 29.3439 2.06444 29.9359 2.91812 30.2841C3.77179 30.6323 4.70915 30.7211 5.61302 30.5394C6.51688 30.3577 7.34714 29.9136 8 29.2627C8.65286 29.9136 9.48312 30.3577 10.387 30.5394C11.2908 30.7211 12.2282 30.6323 13.0819 30.2841C13.9356 29.9359 14.6677 29.3439 15.1867 28.5819C15.7057 27.8199 15.9886 26.9219 16 26V25.3333H20V26C20 27.2377 20.4917 28.4247 21.3668 29.2998C22.242 30.175 23.429 30.6667 24.6667 30.6667C25.9043 30.6667 27.0913 30.175 27.9665 29.2998C28.8417 28.4247 29.3333 27.2377 29.3333 26V24.6173C30.1439 24.1494 30.817 23.4763 31.2851 22.6658C31.7532 21.8554 31.9997 20.936 32 20V17.2987C32.0001 16.2953 31.8385 15.2985 31.5213 14.3467ZM27.6467 11.1573L28.816 14.6667H22.6667V9.33334H25.1173C25.677 9.33348 26.2225 9.50972 26.6764 9.83708C27.1304 10.1644 27.4698 10.6263 27.6467 11.1573V11.1573ZM2.66667 8C2.66667 6.93914 3.08809 5.92172 3.83824 5.17157C4.58838 4.42143 5.6058 4 6.66667 4H16C17.0609 4 18.0783 4.42143 18.8284 5.17157C19.5786 5.92172 20 6.93914 20 8V22.6667H2.66667V8ZM4.66667 28C4.13623 28 3.62753 27.7893 3.25245 27.4142C2.87738 27.0392 2.66667 26.5304 2.66667 26V25.3333H6.66667V26C6.66667 26.5304 6.45595 27.0392 6.08088 27.4142C5.70581 27.7893 5.1971 28 4.66667 28ZM13.3333 26C13.3333 26.5304 13.1226 27.0392 12.7475 27.4142C12.3725 27.7893 11.8638 28 11.3333 28C10.8029 28 10.2942 27.7893 9.91912 27.4142C9.54404 27.0392 9.33333 26.5304 9.33333 26V25.3333H13.3333V26ZM26.6667 26C26.6667 26.5304 26.4559 27.0392 26.0809 27.4142C25.7058 27.7893 25.1971 28 24.6667 28C24.1362 28 23.6275 27.7893 23.2524 27.4142C22.8774 27.0392 22.6667 26.5304 22.6667 26V25.3333H26.6667V26ZM26.6667 22.6667H22.6667V17.3333H29.3333V20C29.3333 20.7073 29.0524 21.3855 28.5523 21.8856C28.0522 22.3857 27.3739 22.6667 26.6667 22.6667Z" fill="currentColor"/>
</svg>
