<svg width="20" height="20" viewBox="0 0 20 20" fill="none" xmlns="http://www.w3.org/2000/svg">
<path fill-rule="evenodd" clip-rule="evenodd" d="M4.16667 18.3333H19.1667C19.3877 18.3333 19.5996 18.4211 19.7559 18.5774C19.9122 18.7337 20 18.9457 20 19.1667C20 19.3877 19.9122 19.5996 19.7559 19.7559C19.5996 19.9122 19.3877 20 19.1667 20H4.16667C3.062 19.9987 2.00296 19.5593 1.22185 18.7782C0.440735 17.997 0.00132321 16.938 0 15.8333V0.833333C0 0.61232 0.0877974 0.400358 0.244078 0.244078C0.400358 0.0877974 0.61232 0 0.833333 0C1.05435 0 1.26631 0.0877974 1.42259 0.244078C1.57887 0.400358 1.66667 0.61232 1.66667 0.833333V15.8333C1.66667 16.4964 1.93006 17.1323 2.3989 17.6011C2.86774 18.0699 3.50363 18.3333 4.16667 18.3333ZM5.58929 16.4226C5.43301 16.5788 5.22105 16.6666 5.00004 16.6666C4.77902 16.6666 4.56706 16.5788 4.41078 16.4226C4.2545 16.2663 4.1667 16.0543 4.1667 15.8333V9.99998C4.1667 9.77897 4.2545 9.56701 4.41078 9.41073C4.56706 9.25445 4.77902 9.16665 5.00004 9.16665C5.22105 9.16665 5.43301 9.25445 5.58929 9.41073C5.74557 9.56701 5.83337 9.77897 5.83337 9.99998V15.8333C5.83337 16.0543 5.74557 16.2663 5.58929 16.4226ZM8.3333 8.33333V15.8333C8.3333 16.0543 8.42109 16.2663 8.57737 16.4226C8.73365 16.5789 8.94562 16.6667 9.16663 16.6667C9.38764 16.6667 9.5996 16.5789 9.75588 16.4226C9.91216 16.2663 9.99996 16.0543 9.99996 15.8333V8.33333C9.99996 8.11232 9.91216 7.90036 9.75588 7.74408C9.5996 7.5878 9.38764 7.5 9.16663 7.5C8.94562 7.5 8.73365 7.5878 8.57737 7.74408C8.42109 7.90036 8.3333 8.11232 8.3333 8.33333ZM12.5 15.8333V10.8333C12.5 10.6123 12.5878 10.4004 12.7441 10.2441C12.9004 10.0878 13.1123 10 13.3333 10C13.5543 10 13.7663 10.0878 13.9226 10.2441C14.0789 10.4004 14.1667 10.6123 14.1667 10.8333V15.8333C14.1667 16.0543 14.0789 16.2663 13.9226 16.4226C13.7663 16.5789 13.5543 16.6667 13.3333 16.6667C13.1123 16.6667 12.9004 16.5789 12.7441 16.4226C12.5878 16.2663 12.5 16.0543 12.5 15.8333ZM16.6667 7.49998V15.8333C16.6667 16.0543 16.7545 16.2663 16.9108 16.4226C17.0671 16.5789 17.279 16.6666 17.5 16.6666C17.7211 16.6666 17.933 16.5789 18.0893 16.4226C18.2456 16.2663 18.3334 16.0543 18.3334 15.8333V7.49998C18.3334 7.27897 18.2456 7.06701 18.0893 6.91073C17.933 6.75445 17.7211 6.66665 17.5 6.66665C17.279 6.66665 17.0671 6.75445 16.9108 6.91073C16.7545 7.06701 16.6667 7.27897 16.6667 7.49998ZM5.58914 7.25586C5.43289 7.41215 5.22097 7.49998 4.99997 7.50002C4.83518 7.49999 4.6741 7.4511 4.53709 7.35953C4.40008 7.26795 4.2933 7.13782 4.23024 6.98557C4.16718 6.83332 4.15068 6.66579 4.18282 6.50416C4.21496 6.34254 4.2943 6.19407 4.4108 6.07752L7.39914 3.08919C7.86796 2.62051 8.50373 2.35723 9.16664 2.35723C9.82955 2.35723 10.4653 2.62051 10.9341 3.08919L12.7441 4.89836C12.9004 5.05458 13.1123 5.14235 13.3333 5.14235C13.5543 5.14235 13.7662 5.05458 13.9225 4.89836L18.5775 0.244192C18.7346 0.0923932 18.9451 0.00839782 19.1636 0.0102965C19.3821 0.0121952 19.5911 0.0998359 19.7457 0.254343C19.9002 0.408849 19.9878 0.61786 19.9897 0.836357C19.9916 1.05485 19.9076 1.26536 19.7558 1.42252L15.1008 6.07752C14.632 6.5462 13.9962 6.80949 13.3333 6.80949C12.6704 6.80949 12.0346 6.5462 11.5658 6.07752L9.75581 4.26752C9.59697 4.11621 9.38601 4.03181 9.16664 4.03181C8.94727 4.03181 8.73631 4.11621 8.57747 4.26752L5.58914 7.25586Z" fill="#7B7B7B"/>
</svg>
