<svg width="16" height="17" viewBox="0 0 16 17" fill="none" xmlns="http://www.w3.org/2000/svg">
<path fill-rule="evenodd" clip-rule="evenodd" d="M8.00001 3.16668C9.59576 3.16668 10.9643 3.88581 11.8713 5.16668H9.33334V6.50001H14V1.83334H12.6667V4.01358C11.5166 2.62168 9.8695 1.83334 8.00001 1.83334C4.31811 1.83334 1.33334 4.81811 1.33334 8.50001H2.66668C2.66668 5.55449 5.05449 3.16668 8.00001 3.16668ZM8.00001 13.8333C6.40426 13.8333 5.0357 13.1142 4.12872 11.8333H6.66668V10.5H2.00001V15.1667H3.33334V12.9864C4.48341 14.3783 6.13052 15.1667 8.00001 15.1667C11.6819 15.1667 14.6667 12.1819 14.6667 8.50001H13.3333C13.3333 11.4455 10.9455 13.8333 8.00001 13.8333Z" fill="currentColor"/>
</svg>
