<svg width="32" height="32" viewBox="0 0 32 32" fill="none" xmlns="http://www.w3.org/2000/svg">
<g clip-path="url(#clip0_1_1229)">
<path d="M29.0667 7.43867L19.7333 1.14C18.6322 0.391546 17.3315 -0.00865173 16 -0.00865173C14.6686 -0.00865173 13.3678 0.391546 12.2667 1.14L2.93334 7.43867C2.02888 8.0489 1.2883 8.87211 0.776789 9.83585C0.265278 10.7996 -0.00147674 11.8743 6.14883e-06 12.9653V25.3334C0.00212329 27.1008 0.705182 28.7953 1.95497 30.0451C3.20475 31.2949 4.89922 31.9979 6.66668 32H25.3334C27.1008 31.9979 28.7953 31.2949 30.0451 30.0451C31.2948 28.7953 31.9979 27.1008 32 25.3334V12.9653C32.0014 11.8743 31.7346 10.7996 31.2231 9.83593C30.7116 8.87222 29.9711 8.04899 29.0667 7.43867V7.43867ZM24 29.3334H8.00001V17.3333C8.00001 16.6261 8.28096 15.9478 8.78106 15.4477C9.28116 14.9476 9.95943 14.6667 10.6667 14.6667H21.3333C22.0406 14.6667 22.7189 14.9476 23.219 15.4477C23.7191 15.9478 24 16.6261 24 17.3333V29.3334ZM29.3334 25.3334C29.3332 26.1604 29.0767 26.9671 28.5992 27.6424C28.1216 28.3177 27.4465 28.8283 26.6667 29.104V17.3333C26.6667 15.9189 26.1048 14.5623 25.1046 13.5621C24.1044 12.5619 22.7478 12 21.3333 12H10.6667C9.25219 12 7.89563 12.5619 6.89544 13.5621C5.89525 14.5623 5.33334 15.9189 5.33334 17.3333V29.104C4.55356 28.8283 3.87842 28.3177 3.40085 27.6424C2.92329 26.9671 2.66679 26.1604 2.66667 25.3334V12.9653C2.66664 12.3106 2.82734 11.6658 3.13467 11.0876C3.442 10.5095 3.88657 10.0156 4.42934 9.64934L13.7627 3.352C14.4225 2.90311 15.202 2.66306 16 2.66306C16.798 2.66306 17.5776 2.90311 18.2373 3.352L27.5707 9.64934C28.1135 10.0156 28.558 10.5095 28.8654 11.0876C29.1727 11.6658 29.3334 12.3106 29.3334 12.9653V25.3334ZM18.6667 25.3334C18.6667 25.687 18.5262 26.0261 18.2762 26.2762C18.0261 26.5262 17.687 26.6667 17.3333 26.6667H14.6667C14.3131 26.6667 13.9739 26.5262 13.7239 26.2762C13.4738 26.0261 13.3333 25.687 13.3333 25.3334C13.3333 24.9797 13.4738 24.6406 13.7239 24.3905C13.9739 24.1405 14.3131 24 14.6667 24H17.3333C17.687 24 18.0261 24.1405 18.2762 24.3905C18.5262 24.6406 18.6667 24.9797 18.6667 25.3334Z" fill="currentColor"/>
</g>
<defs>
<clipPath id="clip0_1_1229">
<rect width="32" height="32" fill="currentColor"/>
</clipPath>
</defs>
</svg>
