<svg width="14" height="15" viewBox="0 0 14 15" fill="none" xmlns="http://www.w3.org/2000/svg">
<path fill-rule="evenodd" clip-rule="evenodd" d="M13.0909 9.80598L9.00445 2.82024C8.59419 2.10903 7.82954 1.6676 7.00259 1.66663C6.17556 1.66566 5.41064 2.10527 4.99528 2.82027L0.907321 9.80857C0.483428 10.5213 0.473838 11.4144 0.884426 12.1428C1.29535 12.8718 2.06479 13.3255 2.90172 13.3323L11.0905 13.3323C11.9361 13.3241 12.7041 12.8718 13.1149 12.1435C13.5253 11.416 13.5162 10.5249 13.0909 9.80598ZM1.9122 10.4013L6.0032 3.40783C6.21037 3.05119 6.59035 2.83282 7.00123 2.8333C7.41206 2.83378 7.7919 3.05306 7.99564 3.40626L12.0853 10.3975C12.2997 10.7599 12.3043 11.206 12.0988 11.5703C11.8931 11.935 11.5084 12.1616 11.0848 12.1657L2.90647 12.1656C2.49195 12.1623 2.10654 11.935 1.90074 11.5699C1.69518 11.2053 1.69998 10.7581 1.9122 10.4013ZM7.00018 10.999C7.32246 10.999 7.58371 10.7378 7.58371 10.4157C7.58371 10.0935 7.32246 9.83233 7.00018 9.83233C6.67791 9.83233 6.41666 10.0935 6.41666 10.4157C6.41666 10.7378 6.67791 10.999 7.00018 10.999ZM7.58543 5.16566H6.41838V9.249H7.58543V5.16566Z" fill="currentColor"/>
</svg>
